<?xml version="1.0" encoding="utf-8" ?><svg xmlns="http://www.w3.org/2000/svg" xmlns:xlink="http://www.w3.org/1999/xlink" width="512" height="512" viewBox="0 0 512 512"><path fill="#3954C3" d="M160.839 305.899C164.771 292.178 170.376 279.948 176.708 267.096C205.613 208.427 235.021 149.437 274.845 97.2367C277.93 93.1921 281.428 89.3299 285.002 85.7179C288.19 82.6834 291.586 79.8602 294.668 76.7151C299.419 71.8666 302.658 65.5207 308.734 62.0862C312.69 59.8502 314.64 61.6874 316.064 65.5167C317.638 69.7474 318.602 74.2277 319.585 78.6222L323.25 95.0222C326.818 110.274 330.693 125.453 334.872 140.549C346.303 181.054 359.108 221.158 373.267 260.792C377.323 272.431 381.461 284.043 385.679 295.625C387.798 301.498 389.981 307.961 392.268 313.703C393.878 314.636 396.74 315.972 398.076 317.132C402.873 321.294 411.651 335.135 409.373 341.692C408.839 342.309 408.709 342.296 407.967 342.616C414.689 346.344 421.658 349.854 428.459 353.604C439.985 360.025 451.467 366.527 462.902 373.109C472.119 378.353 481.608 383.606 490.755 388.937C475.862 411.844 448.501 425.944 423.289 434.113C418.744 435.585 410.436 438.367 406.021 439.29C405.724 439.353 405.427 439.411 405.128 439.464C400.056 440.474 394.27 442.042 389.082 443.165C358.701 449.719 327.582 452.192 296.547 450.521C277.518 449.361 258.562 447.222 239.752 444.115C199.591 437.622 157.358 427.875 117.335 419.384L70.0044 409.331C55.0561 406.153 34.1945 402.855 21.4271 394.626C49.7843 369.694 84.1367 353.835 120.171 343.372C124.898 341.999 136.618 338.596 141.027 338.151C147.579 323.628 142.982 313.295 160.839 305.899Z"/><defs><linearGradient id="gradient_0" gradientUnits="userSpaceOnUse" x1="384.02795" y1="185.52147" x2="155.45438" y2="198.49632"><stop offset="0" stop-color="#2746AC"/><stop offset="1" stop-color="#435CD0"/></linearGradient></defs><path fill="url(#gradient_0)" d="M160.839 305.899C164.771 292.178 170.376 279.948 176.708 267.096C205.613 208.427 235.021 149.437 274.845 97.2367C277.93 93.1921 281.428 89.3299 285.002 85.7179C288.19 82.6834 291.586 79.8602 294.668 76.7151C299.419 71.8666 302.658 65.5207 308.734 62.0862C312.69 59.8502 314.64 61.6874 316.064 65.5167C317.638 69.7474 318.602 74.2277 319.585 78.6222L323.25 95.0222C326.818 110.274 330.693 125.453 334.872 140.549C346.303 181.054 359.108 221.158 373.267 260.792C377.323 272.431 381.461 284.043 385.679 295.625C387.798 301.498 389.981 307.961 392.268 313.703C393.878 314.636 396.74 315.972 398.076 317.132C402.873 321.294 411.651 335.135 409.373 341.692C408.839 342.309 408.709 342.296 407.967 342.616C407.115 342.603 403.024 343.162 401.874 343.273C397.986 343.63 394.075 343.663 390.181 343.371C376.623 342.24 363.148 337.853 350.601 336.596C349.178 336.124 345.272 335.594 343.641 335.357C339.039 334.704 334.432 334.085 329.821 333.502C296.822 328.94 263.538 326.754 230.226 326.962L232.859 323.907C217.317 323.498 205.969 314.359 203.788 298.699C203.509 289.865 204.323 287.222 208.591 279.328C195.089 281.058 185.233 288.413 182.329 302.203C179.307 302.839 175.059 303.032 171.83 303.555C167.978 304.18 164.625 305.061 160.839 305.899Z"/><path fill="#1B2B5A" d="M203.788 298.699C204.929 299.048 210.233 298.098 211.761 297.9C221.315 296.665 230.436 296.272 240.099 296.722C274.883 298.344 309.858 299.676 344.362 304.773C352.899 306 361.404 307.434 369.871 309.075C372.151 309.51 390.976 313.871 392.268 313.703C393.878 314.636 396.74 315.972 398.076 317.132C402.873 321.294 411.651 335.135 409.373 341.692C408.839 342.309 408.709 342.296 407.967 342.616C407.115 342.603 403.024 343.162 401.874 343.273C397.986 343.63 394.075 343.663 390.181 343.371C376.623 342.24 363.148 337.853 350.601 336.596C349.178 336.124 345.272 335.594 343.641 335.357C339.039 334.704 334.432 334.085 329.821 333.502C296.822 328.94 263.538 326.754 230.226 326.962L232.859 323.907C217.317 323.498 205.969 314.359 203.788 298.699Z"/><path fill="#2D48A8" d="M273.37 309.137C277.946 308.872 282.914 309.086 287.521 309.278C299.413 309.84 311.266 311.057 323.025 312.923C327.491 313.639 332.036 314.704 336.418 315.376C351.034 317.617 365.49 320.583 379.497 325.41C383.076 326.643 386.871 327.886 390.167 329.775C385.328 329.092 377.574 326.982 372.552 325.918C361.309 323.534 350.145 321.217 338.693 319.95C334.599 319.289 328.364 318.815 324.204 318.479C305.16 316.973 286.022 317.117 267.003 318.911C261.423 319.441 255.852 320.053 250.29 320.748C246.874 321.179 241.564 321.983 238.196 322.052C250.149 317.088 274.189 314.445 286.982 313.506C283.687 312.632 265.55 311.631 264.674 309.91C266.039 309.158 271.549 309.19 273.37 309.137Z"/><path fill="#E8A631" d="M302.337 214.148C306.433 213.424 313.993 204.555 317.801 206.378C318.878 207.555 318.692 208.934 318.652 210.52C318.554 214.45 317.953 218.874 318.21 222.762C320.761 225.141 329.818 231.208 330.301 233.575C329.737 237.712 317.348 237.701 314.581 240.302C313.96 240.886 312.92 243.852 312.627 244.656C311.739 247.369 310.033 254.287 307.028 254.763C305.731 254.484 305.061 253.736 304.352 252.638C301.971 248.952 299.906 245.219 297.17 241.765C293.299 241.237 288.29 241.643 284.323 241.199C283.288 241.083 281.33 240.665 280.796 239.682C279.281 236.485 290.054 227.953 289.749 225.889C287.76 212.424 278.827 202.71 302.337 214.148Z"/><path fill="#E68432" d="M302.337 214.148C306.433 213.424 313.993 204.555 317.801 206.378C318.878 207.555 318.692 208.934 318.652 210.52C318.554 214.45 317.953 218.874 318.21 222.762C320.761 225.141 329.818 231.208 330.301 233.575C329.737 237.712 317.348 237.701 314.581 240.302C313.96 240.886 312.92 243.852 312.627 244.656C310.164 242.438 303.184 218.502 302.337 214.148Z"/><path fill="#E68432" d="M291.683 125.622C291.97 122.483 290.158 107.539 296.328 112.708C299.101 114.809 302.441 117.68 305.147 119.555C306.555 119.106 308.341 118.63 309.689 118.109C325.468 112.003 317.632 121.449 315.35 130.25L315.503 130.522C317.215 133.491 322.93 140.008 322.462 142.483C320.809 144.685 311.284 143.419 308.242 143.357L308.002 143.622C306.126 145.716 299.969 156.459 297.392 152.925C296.595 151.832 294.069 143.032 293.974 141.355C291.221 138.497 281.299 138.012 280.521 134.468C280.925 132.376 289.474 127.764 291.683 125.622Z"/><path fill="#E8A631" d="M291.683 125.622C291.97 122.483 290.158 107.539 296.328 112.708C294.999 117.858 294.798 127.928 294.451 133.472C294.324 135.505 294.41 139.638 293.974 141.355C291.221 138.497 281.299 138.012 280.521 134.468C280.925 132.376 289.474 127.764 291.683 125.622Z"/><path fill="#E8A631" d="M220.232 222.12C222.735 222.246 227.152 226.601 229.622 228.384C236.972 226.585 243.723 221.785 238.518 233.559C238.124 234.452 237.777 235.702 237.5 236.661C238.653 238.667 243.488 244.251 242.92 246.022C240.774 248.08 233.62 245.67 231.807 246.987C230.046 249.069 227.839 252.629 225.715 254.351C225.17 254.793 224.757 254.558 224.275 254.372C222.725 252.509 221.838 247.673 220.826 244.999L220.702 244.674C218.553 243.599 211.277 241.921 210.92 239.79C211.72 238.18 217.483 234.571 219.397 233.115C219.717 229.927 219.011 224.802 220.232 222.12Z"/><path fill="#2D48A8" d="M350.601 336.596C363.148 337.853 376.623 342.24 390.181 343.371C394.075 343.663 397.986 343.63 401.874 343.273C403.024 343.162 407.115 342.603 407.967 342.616C414.689 346.344 421.658 349.854 428.459 353.604C439.985 360.025 451.467 366.527 462.902 373.109C472.119 378.353 481.608 383.606 490.755 388.937C475.862 411.844 448.501 425.944 423.289 434.113C418.744 435.585 410.436 438.367 406.021 439.29C405.724 439.353 405.427 439.411 405.128 439.464C404.228 433.729 402.286 427.2 400.893 421.583C400.028 418.097 396.26 408.43 396.267 405.873C395.232 405.078 394.176 404.113 393.186 403.249L393.568 402.668C393.478 398.855 385.213 384.667 383.187 380.941C382.3 379.311 380.579 376.882 379.953 375.065C378.54 374.724 374.656 374.7 372.888 374.598C373.776 374.411 378.026 374.471 379.172 374.467C373.512 365.619 367.907 357.535 361.18 349.429C359.444 347.337 351.207 338.411 350.601 336.596Z"/><path fill="#E68432" d="M383.909 375.032C386.202 372.836 391.069 364.758 393.538 364.697C396.126 365.567 397.838 374.898 398.646 377.556C401.735 378.911 410.672 381.381 411.835 383.514C411.608 385.718 402.739 390.754 400.514 392.8C400.513 395.434 400.535 398.083 400.514 400.716C400.489 403.741 400.661 408.255 396.267 405.873C395.232 405.078 394.176 404.113 393.186 403.249L393.568 402.668C393.478 398.855 385.213 384.667 383.187 380.941C382.3 379.311 380.579 376.882 379.953 375.065C381.206 375.062 382.675 375.096 383.909 375.032Z"/><path fill="#E8A631" d="M182.329 302.203C185.233 288.413 195.089 281.058 208.591 279.328C204.323 287.222 203.509 289.865 203.788 298.699C205.969 314.359 217.317 323.498 232.859 323.907L230.226 326.962C218.635 337.859 205.291 338.178 192.361 329.427C183.949 321.604 180.796 313.667 182.329 302.203Z"/><path fill="#1B2B5A" d="M160.839 305.899C164.625 305.061 167.978 304.18 171.83 303.555C175.059 303.032 179.307 302.839 182.329 302.203C180.796 313.667 183.949 321.604 192.361 329.427C188.777 329.553 184.006 330.273 180.42 330.781C172.3 331.912 164.222 333.335 156.203 335.046C152.941 335.735 143.628 338.246 141.027 338.151C147.579 323.628 142.982 313.295 160.839 305.899Z"/><path fill="#2D48A8" d="M166.686 317.355C168.226 317.034 174.83 316.851 175.931 317.98L175.731 318.438C172.741 320.545 160.715 322.775 156.806 323.544C155.108 323.872 149.496 325.165 148.236 323.922C149.15 320.705 163.511 317.677 166.686 317.355Z"/><path fill="#E8A631" d="M372.888 374.598C374.656 374.7 378.54 374.724 379.953 375.065C380.579 376.882 382.3 379.311 383.187 380.941C385.213 384.667 393.478 398.855 393.568 402.668L393.186 403.249C391.119 401.806 389.494 400.374 387.256 398.897C384.407 399.539 375.352 403.151 373.427 401.545C372.359 399.187 376.046 391.758 376.914 388.406L377.008 388.037C375.88 385.931 374.284 384.008 372.918 382.048C371.204 379.589 367.292 375.11 372.888 374.598Z"/><path fill="#E8A631" d="M201.178 373.478C203.857 373.492 210.76 377.895 213.639 379.388C216.541 378.217 224.635 373.094 226.959 374.03C228.327 376.1 226.051 384.468 225.723 387.676L225.688 388.035C228.152 391.357 234.455 395.734 234.59 398.703C233.138 402.32 222.722 400.356 220.542 402.873C219.13 405.364 215.838 413.751 213.291 414.081C211.085 413.458 207.859 405.184 206.261 402.478L206.04 402.107C202.229 401.068 197.573 400.897 193.753 399.848C193.004 399.643 192.715 398.965 192.481 398.344C192.764 395.271 199.573 390.566 201.764 387.602C201.277 383.626 199.953 379.312 200.002 375.312C200.014 374.252 200.488 374.039 201.178 373.478Z"/><path fill="#E8A631" d="M297.013 349.084C299.611 350.204 302.93 354.482 304.98 356.706C307.429 356.468 309.896 355.997 312.348 355.786C313.818 355.66 315.266 355.367 315.998 356.808C315.92 359.039 312.896 363.421 311.765 365.93L311.623 366.249C312.439 368.332 316.205 374.306 315.623 376.041C313.317 377.995 307.202 374.868 304.312 375.447C294.398 384.563 296.014 385.005 293.904 371.634C291.47 369.711 287.48 368.334 285.1 366.243C284.639 365.837 284.772 365.679 284.823 365.175C286.153 363.561 291.444 361.503 293.763 360.067L294.082 359.867C295.065 356.759 295.129 351.185 297.013 349.084Z"/><path fill="#E8A631" d="M133.229 370.949C134.302 370.875 134.39 370.941 135.047 371.629C135.752 373.786 134.823 379.161 134.592 381.73C136.495 383.783 141.847 387.404 142.426 389.449C141.522 391.961 134.521 391.455 132.456 393.241C130.04 395.33 129.536 400.371 127.861 402.548C125.603 403.464 122.717 397.397 121.673 395.65C119.12 391.513 111.087 395.493 109.941 391.734C110.263 389.6 114.519 385.63 116.232 383.254C114.048 371.691 110.69 369.614 124.686 376.075C126.955 374.988 130.809 372.364 133.229 370.949Z"/></svg>