<?xml version="1.0" encoding="UTF-8"?>
<!DOCTYPE svg PUBLIC "-//W3C//DTD SVG 1.1//EN" "http://www.w3.org/Graphics/SVG/1.1/DTD/svg11.dtd">
<svg xmlns="http://www.w3.org/2000/svg" version="1.1" width="2048px" height="2048px" style="shape-rendering:geometricPrecision; text-rendering:geometricPrecision; image-rendering:optimizeQuality; fill-rule:evenodd; clip-rule:evenodd" xmlns:xlink="http://www.w3.org/1999/xlink">
<g><path style="opacity:1" fill="#e8fbfe" d="M 1091.5,68.5 C 1092.83,68.5 1094.17,68.5 1095.5,68.5C 1125.72,71.6726 1156.06,75.006 1186.5,78.5C 1380.52,109.856 1549.52,191.356 1693.5,323C 1767.8,392.591 1829.97,471.424 1880,559.5C 1887.78,574.064 1895.28,588.73 1902.5,603.5C 1900.86,605.258 1898.86,606.758 1896.5,608C 1896.83,608.333 1897.17,608.667 1897.5,609C 1896.33,609.5 1895.5,610.333 1895,611.5C 1893.33,610.66 1893.17,611.16 1894.5,613C 1893.25,614.824 1892.08,614.657 1891,612.5C 1889.68,615.028 1888.52,615.028 1887.5,612.5C 1885.8,615.118 1883.63,615.784 1881,614.5C 1878.77,616.598 1876.6,618.765 1874.5,621C 1870.89,619.551 1868.39,620.718 1867,624.5C 1866.67,623.833 1866.33,623.167 1866,622.5C 1864.29,623.878 1862.95,625.545 1862,627.5C 1861.67,626.5 1861.33,625.5 1861,624.5C 1859.75,626.001 1858.75,627.668 1858,629.5C 1857.67,628.833 1857.33,628.167 1857,627.5C 1851.01,633.589 1843.84,637.756 1835.5,640C 1834.38,641.074 1833.38,642.24 1832.5,643.5C 1831.09,642.332 1829.93,642.665 1829,644.5C 1828.33,643.833 1827.67,643.167 1827,642.5C 1825.04,645.57 1822.54,647.07 1819.5,647C 1818.42,647.956 1817.25,648.789 1816,649.5C 1816.02,654.207 1814.35,655.207 1811,652.5C 1810.67,652.833 1810.33,653.167 1810,653.5C 1808.63,651.14 1806.63,649.473 1804,648.5C 1801.71,639.96 1798.37,632.293 1794,625.5C 1792.96,623.285 1792.29,620.952 1792,618.5C 1789.64,618.4 1787.48,617.233 1785.5,615C 1787.23,611.543 1786.57,608.709 1783.5,606.5C 1782.12,603.439 1781.12,600.439 1780.5,597.5C 1777.01,596.491 1775.68,594.158 1776.5,590.5C 1775.32,590.719 1774.32,590.386 1773.5,589.5C 1771.1,585.826 1768.6,582.159 1766,578.5C 1765.28,575.28 1764.12,572.28 1762.5,569.5C 1762.17,570.167 1761.83,570.833 1761.5,571.5C 1760.77,569.659 1760.1,567.825 1759.5,566C 1759.83,565.667 1760.17,565.333 1760.5,565C 1758.01,562.126 1755.51,559.96 1753,558.5C 1752.8,556.793 1752.8,555.126 1753,553.5C 1750.01,552.366 1747.51,550.533 1745.5,548C 1746.52,546.951 1746.68,545.784 1746,544.5C 1745.26,543.359 1744.43,543.359 1743.5,544.5C 1743.87,539.638 1741.54,536.638 1736.5,535.5C 1736.3,533.362 1735.3,531.695 1733.5,530.5C 1733.71,529.914 1734.04,529.414 1734.5,529C 1731.52,527.388 1730.19,524.888 1730.5,521.5C 1729.45,521.649 1728.45,521.483 1727.5,521C 1728.63,519.984 1728.3,519.317 1726.5,519C 1727.83,518 1727.83,517 1726.5,516C 1725.21,515.51 1723.87,515.343 1722.5,515.5C 1722.37,512.78 1721.87,510.113 1721,507.5C 1720.67,507.833 1720.33,508.167 1720,508.5C 1719.5,507.333 1718.67,506.5 1717.5,506C 1717.83,505.667 1718.17,505.333 1718.5,505C 1717.5,504.667 1716.5,504.333 1715.5,504C 1715.83,503.667 1716.17,503.333 1716.5,503C 1712.59,500.102 1710.26,496.269 1709.5,491.5C 1706.19,490.584 1703.69,488.584 1702,485.5C 1701.67,485.833 1701.33,486.167 1701,486.5C 1700.51,485.451 1700.67,484.451 1701.5,483.5C 1700.48,482.646 1699.64,481.646 1699,480.5C 1698.68,482.569 1697.84,482.902 1696.5,481.5C 1695.78,478.93 1694.61,476.597 1693,474.5C 1688.41,470.39 1683.91,467.056 1679.5,464.5C 1680.67,463.094 1680.33,461.928 1678.5,461C 1679.17,460.667 1679.83,460.333 1680.5,460C 1679,459.417 1677.67,458.584 1676.5,457.5C 1674.58,453.266 1671.58,450.266 1667.5,448.5C 1667.41,446.323 1666.75,444.323 1665.5,442.5C 1663.39,439.92 1661.56,437.253 1660,434.5C 1658.73,434.616 1657.4,434.949 1656,435.5C 1655.89,432.354 1654.56,431.354 1652,432.5C 1649.17,429.516 1646.84,426.183 1645,422.5C 1644.67,422.833 1644.33,423.167 1644,423.5C 1643,421.5 1642,419.5 1641,417.5C 1639.68,417.201 1638.18,417.034 1636.5,417C 1636.83,416.667 1637.17,416.333 1637.5,416C 1634.53,413.71 1632.37,410.876 1631,407.5C 1629.27,406.751 1627.43,406.251 1625.5,406C 1626.45,405.282 1626.62,404.449 1626,403.5C 1621.82,400.743 1617.82,397.743 1614,394.5C 1613.51,393.207 1613.34,391.873 1613.5,390.5C 1612.17,390.5 1610.83,390.5 1609.5,390.5C 1607.91,387.521 1605.91,384.688 1603.5,382C 1601.14,381.803 1599.47,380.636 1598.5,378.5C 1597.55,379.326 1596.55,379.492 1595.5,379C 1596.83,378 1596.83,377 1595.5,376C 1592.71,373.94 1589.71,372.44 1586.5,371.5C 1586.22,369.037 1585.22,366.87 1583.5,365C 1577.61,365.141 1573.94,362.141 1572.5,356C 1569.72,355.584 1567.06,354.751 1564.5,353.5C 1560.78,349.659 1556.95,345.325 1553,340.5C 1551.56,342.014 1550.06,342.347 1548.5,341.5C 1547,339.167 1545.5,336.833 1544,334.5C 1540.11,334.389 1537.11,331.722 1535,326.5C 1534.28,327.059 1533.44,327.392 1532.5,327.5C 1527.31,325.134 1523.31,321.634 1520.5,317C 1517.31,315.373 1513.98,314.207 1510.5,313.5C 1509.36,310.667 1507.36,308.667 1504.5,307.5C 1503.91,307.709 1503.41,308.043 1503,308.5C 1499.14,306.395 1496.14,303.395 1494,299.5C 1491.75,300.765 1489.25,300.432 1486.5,298.5C 1487.46,297.188 1487.29,295.854 1486,294.5C 1484.48,294.057 1483.31,294.724 1482.5,296.5C 1481.5,296 1480.5,295.5 1479.5,295C 1479.83,294.667 1480.17,294.333 1480.5,294C 1479.5,293.667 1478.5,293.333 1477.5,293C 1476.38,290.876 1474.88,289.043 1473,287.5C 1472.67,287.833 1472.33,288.167 1472,288.5C 1470.11,287.07 1468.45,285.403 1467,283.5C 1465.16,284.833 1464.66,284.666 1465.5,283C 1464.22,282.316 1463.05,282.483 1462,283.5C 1461.68,281.699 1461.02,281.366 1460,282.5C 1458.6,281.773 1457.1,281.273 1455.5,281C 1453.39,278.631 1451.39,276.131 1449.5,273.5C 1448.83,273.833 1448.17,274.167 1447.5,274.5C 1443.73,271.711 1439.73,269.211 1435.5,267C 1434.22,266.316 1433.05,266.483 1432,267.5C 1427.77,265.766 1423.61,264.099 1419.5,262.5C 1419.73,258.944 1418.89,258.61 1417,261.5C 1413.2,259.801 1410.03,257.301 1407.5,254C 1405.78,252.441 1403.78,251.608 1401.5,251.5C 1401.65,250.448 1401.48,249.448 1401,248.5C 1398.07,251.453 1395.9,250.953 1394.5,247C 1391.14,245.901 1387.97,244.401 1385,242.5C 1384.67,243.167 1384.33,243.833 1384,244.5C 1382.31,242.955 1380.31,241.955 1378,241.5C 1377.59,241.957 1377.09,242.291 1376.5,242.5C 1373.04,237.014 1368.54,235.014 1363,236.5C 1362.44,234.275 1361.44,232.275 1360,230.5C 1358.13,233.012 1356.29,232.846 1354.5,230C 1350.39,231.269 1347.55,229.769 1346,225.5C 1345.03,226.198 1343.86,226.198 1342.5,225.5C 1340.06,224.197 1337.9,222.53 1336,220.5C 1335,220.833 1334,221.167 1333,221.5C 1328.94,219.47 1324.77,217.803 1320.5,216.5C 1318.1,216.101 1315.6,216.101 1313,216.5C 1310.4,215.167 1308.4,213.167 1307,210.5C 1307.08,211.738 1306.91,212.738 1306.5,213.5C 1302.35,211.661 1298.52,209.995 1295,208.5C 1293.61,210.402 1291.77,210.735 1289.5,209.5C 1289.65,208.448 1289.48,207.448 1289,206.5C 1288.67,206.833 1288.33,207.167 1288,207.5C 1285.3,206.72 1282.97,205.387 1281,203.5C 1279.42,203.493 1277.75,203.826 1276,204.5C 1273.36,202.249 1270.36,200.582 1267,199.5C 1266.67,200.5 1266.33,201.5 1266,202.5C 1263.07,201.976 1260.57,200.642 1258.5,198.5C 1257.91,198.709 1257.41,199.043 1257,199.5C 1253.68,197.555 1250.18,195.888 1246.5,194.5C 1245.91,194.709 1245.41,195.043 1245,195.5C 1243.33,194.167 1241.67,192.833 1240,191.5C 1237.3,192.337 1234.63,193.337 1232,194.5C 1231.5,190.295 1229.84,189.629 1227,192.5C 1223.16,190.676 1219.49,188.676 1216,186.5C 1214.01,188.592 1212.01,188.258 1210,185.5C 1208.77,186.108 1207.44,186.441 1206,186.5C 1201.52,184.734 1197.02,184.068 1192.5,184.5C 1192.54,182.641 1191.71,181.308 1190,180.5C 1187.61,180.93 1184.95,181.596 1182,182.5C 1179.26,181.211 1176.76,179.545 1174.5,177.5C 1171.46,179.183 1168.29,180.517 1165,181.5C 1164.48,180.484 1163.65,179.818 1162.5,179.5C 1160.87,180.423 1159.37,180.757 1158,180.5C 1153.38,177.099 1148.55,176.432 1143.5,178.5C 1142.41,174.212 1139.91,172.879 1136,174.5C 1132.26,173.993 1128.59,173.327 1125,172.5C 1124.67,173.167 1124.33,173.833 1124,174.5C 1119.35,174.459 1114.69,174.459 1110,174.5C 1108.78,173.728 1107.78,172.728 1107,171.5C 1105.41,172.727 1104.08,172.394 1103,170.5C 1095.27,169.279 1087.77,169.279 1080.5,170.5C 1078.97,168.238 1077.64,168.572 1076.5,171.5C 1075.15,170.047 1073.48,169.047 1071.5,168.5C 1070.18,165.531 1070.18,162.531 1071.5,159.5C 1068.83,157.5 1068.83,155.5 1071.5,153.5C 1070.25,151.958 1070.25,150.458 1071.5,149C 1070.83,148.667 1070.17,148.333 1069.5,148C 1072.08,145.597 1072.08,143.097 1069.5,140.5C 1069.92,139.328 1070.59,138.328 1071.5,137.5C 1070.83,136.167 1070.17,134.833 1069.5,133.5C 1070.17,133.167 1070.83,132.833 1071.5,132.5C 1069.93,128.959 1070.27,125.292 1072.5,121.5C 1070.25,119.086 1069.92,116.42 1071.5,113.5C 1070.83,112.833 1070.17,112.167 1069.5,111.5C 1071.03,106.891 1071.53,101.891 1071,96.5C 1067.89,93.4947 1068.39,90.9947 1072.5,89C 1070,85.7584 1070,82.4251 1072.5,79C 1070.02,75.8783 1070.02,72.7117 1072.5,69.5C 1078.8,68.5037 1085.13,68.1703 1091.5,68.5 Z"/></g>
<g><path style="opacity:0.098" fill="#eaf9f9" d="M 995.5,67.5 C 997.167,67.5 998.833,67.5 1000.5,67.5C 999.811,77.8609 998.145,77.8609 995.5,67.5 Z"/></g>
<g><path style="opacity:1" fill="#bdcccf" d="M 1095.5,68.5 C 1126.18,69.9461 1156.51,73.2794 1186.5,78.5C 1156.06,75.006 1125.72,71.6726 1095.5,68.5 Z"/></g>
<g><path style="opacity:1" fill="#a0dae5" d="M 1091.5,68.5 C 1085.13,68.1703 1078.8,68.5037 1072.5,69.5C 1070.02,72.7117 1070.02,75.8783 1072.5,79C 1070,82.4251 1070,85.7584 1072.5,89C 1068.39,90.9947 1067.89,93.4947 1071,96.5C 1071.53,101.891 1071.03,106.891 1069.5,111.5C 1070.17,112.167 1070.83,112.833 1071.5,113.5C 1069.92,116.42 1070.25,119.086 1072.5,121.5C 1070.27,125.292 1069.93,128.959 1071.5,132.5C 1070.83,132.833 1070.17,133.167 1069.5,133.5C 1070.17,134.833 1070.83,136.167 1071.5,137.5C 1070.59,138.328 1069.92,139.328 1069.5,140.5C 1072.08,143.097 1072.08,145.597 1069.5,148C 1070.17,148.333 1070.83,148.667 1071.5,149C 1070.25,150.458 1070.25,151.958 1071.5,153.5C 1068.83,155.5 1068.83,157.5 1071.5,159.5C 1070.18,162.531 1070.18,165.531 1071.5,168.5C 1071.28,171.097 1070.78,171.097 1070,168.5C 1067.94,169.202 1066.11,168.535 1064.5,166.5C 1061.82,168.373 1058.82,169.373 1055.5,169.5C 1056.63,135.512 1057.3,101.512 1057.5,67.5C 1069.01,67.1719 1080.35,67.5052 1091.5,68.5 Z"/></g>
<g><path style="opacity:1" fill="#82cddb" d="M 1071.5,168.5 C 1073.48,169.047 1075.15,170.047 1076.5,171.5C 1076.28,172.675 1076.61,173.675 1077.5,174.5C 1078.72,173.289 1079.89,173.289 1081,174.5C 1081.61,172.519 1082.61,172.185 1084,173.5C 1084.85,171.875 1085.85,171.542 1087,172.5C 1088.67,170.991 1090.34,170.324 1092,170.5C 1093.56,172.768 1095.72,173.934 1098.5,174C 1095.51,174.427 1095.01,175.594 1097,177.5C 1099.25,174.372 1101.42,174.205 1103.5,177C 1102.77,178.399 1102.27,179.899 1102,181.5C 1100.78,180.614 1099.45,179.614 1098,178.5C 1097.63,179.416 1097.13,180.25 1096.5,181C 1090.36,181.046 1084.36,181.213 1078.5,181.5C 1078.5,180.5 1078.5,179.5 1078.5,178.5C 1076.74,178.357 1075.07,178.691 1073.5,179.5C 1073.7,178.471 1073.2,177.471 1072,176.5C 1071.33,179.167 1070.67,179.167 1070,176.5C 1068.51,177.253 1068.35,178.086 1069.5,179C 1067.92,179.707 1066.42,180.54 1065,181.5C 1062.95,181.549 1060.79,181.215 1058.5,180.5C 1057.9,179.365 1057.56,178.365 1057.5,177.5C 1056.82,178.243 1056.15,178.909 1055.5,179.5C 1055.5,176.167 1055.5,172.833 1055.5,169.5C 1058.82,169.373 1061.82,168.373 1064.5,166.5C 1066.11,168.535 1067.94,169.202 1070,168.5C 1070.78,171.097 1071.28,171.097 1071.5,168.5 Z"/></g>
<g><path style="opacity:1" fill="#e8fbfe" d="M 1633.5,745.5 C 1564.05,604.549 1458.05,500.715 1315.5,434C 1243.26,401.524 1167.6,382.691 1088.5,377.5C 1087.05,376.698 1085.38,376.198 1083.5,376C 1076.84,375.5 1070.17,375.334 1063.5,375.5C 1063.8,372.421 1064.8,369.587 1066.5,367C 1065.75,365.513 1064.91,365.346 1064,366.5C 1063.33,363.833 1063.33,361.167 1064,358.5C 1065.37,360.815 1066.2,360.815 1066.5,358.5C 1063.99,355.532 1063.99,352.532 1066.5,349.5C 1065.87,347.742 1064.87,346.242 1063.5,345C 1064.67,344.581 1065.67,343.915 1066.5,343C 1066.76,339.251 1066.43,335.417 1065.5,331.5C 1065.35,328.747 1066.02,326.247 1067.5,324C 1066.83,323.333 1066.17,322.667 1065.5,322C 1067.08,319.436 1068.08,316.603 1068.5,313.5C 1067.83,312.833 1067.17,312.167 1066.5,311.5C 1067.25,309.668 1068.25,308.001 1069.5,306.5C 1067.66,302.876 1066.33,298.709 1065.5,294C 1066.16,290.846 1067.49,288.013 1069.5,285.5C 1068.83,284.833 1068.17,284.167 1067.5,283.5C 1068.71,282.28 1068.71,281.113 1067.5,280C 1068.17,279.333 1068.83,278.667 1069.5,278C 1068.67,275.993 1067.67,273.993 1066.5,272C 1068.14,270.566 1069.14,268.733 1069.5,266.5C 1068.87,263.298 1068.21,260.131 1067.5,257C 1070.53,253.424 1070.2,251.258 1066.5,250.5C 1067.38,249.749 1068.38,249.249 1069.5,249C 1068.31,247.088 1067.31,245.088 1066.5,243C 1069.76,239.745 1070.09,236.245 1067.5,232.5C 1068.17,231.167 1068.83,229.833 1069.5,228.5C 1069.02,224.31 1069.02,219.81 1069.5,215C 1067.11,213.691 1067.11,212.691 1069.5,212C 1069.5,210.667 1069.5,209.333 1069.5,208C 1068.69,207.692 1068.03,207.192 1067.5,206.5C 1068.63,202.437 1069.97,198.437 1071.5,194.5C 1071.02,193.522 1070.36,192.689 1069.5,192C 1069.96,189.595 1070.13,187.095 1070,184.5C 1072.83,181.53 1075.83,181.197 1079,183.5C 1082.16,183.66 1085.16,183.326 1088,182.5C 1088.74,183.574 1089.74,184.241 1091,184.5C 1094.19,183.879 1097.35,183.212 1100.5,182.5C 1101.19,183.025 1101.69,183.692 1102,184.5C 1103.8,183.233 1105.63,183.233 1107.5,184.5C 1108.83,183.833 1110.17,183.167 1111.5,182.5C 1111.42,184.31 1112.59,185.644 1115,186.5C 1115.67,185.833 1116.33,185.167 1117,184.5C 1121.61,187.626 1125.94,187.626 1130,184.5C 1130.48,185.448 1130.65,186.448 1130.5,187.5C 1132.14,187.714 1133.64,187.38 1135,186.5C 1137.15,188.167 1139.65,189.167 1142.5,189.5C 1143.22,188.689 1144.05,188.022 1145,187.5C 1148.09,188.079 1150.75,189.413 1153,191.5C 1156.84,189.946 1160.67,189.279 1164.5,189.5C 1167.65,190.395 1170.48,191.729 1173,193.5C 1174.33,193.245 1175.33,192.578 1176,191.5C 1180.64,193.275 1185.47,194.775 1190.5,196C 1191.13,196.75 1191.63,197.584 1192,198.5C 1197.49,197.436 1202.82,197.436 1208,198.5C 1208.62,200.116 1209.62,201.449 1211,202.5C 1213.39,201.883 1215.72,201.55 1218,201.5C 1222.31,203.055 1226.81,204.055 1231.5,204.5C 1235.59,201.574 1238.25,202.574 1239.5,207.5C 1242.78,208.799 1246.11,210.132 1249.5,211.5C 1253.08,209.272 1256.58,209.605 1260,212.5C 1260.77,212.355 1261.44,212.022 1262,211.5C 1264,212.833 1265.67,214.5 1267,216.5C 1272.26,217.231 1277.59,217.231 1283,216.5C 1287.34,220.509 1292.34,223.509 1298,225.5C 1301.58,224.462 1304.92,225.128 1308,227.5C 1310.41,225.847 1311.58,226.513 1311.5,229.5C 1315.81,230.313 1320.14,231.147 1324.5,232C 1324.17,232.333 1323.83,232.667 1323.5,233C 1327.06,236.223 1330.22,236.056 1333,232.5C 1333.78,234.286 1334.95,235.786 1336.5,237C 1334.29,237.957 1334.46,239.124 1337,240.5C 1337.56,239.978 1338.23,239.645 1339,239.5C 1343.38,241.929 1348.05,243.596 1353,244.5C 1354.42,243.795 1355.76,243.461 1357,243.5C 1357.2,245.256 1357.7,246.922 1358.5,248.5C 1360.56,249.239 1362.9,249.239 1365.5,248.5C 1367.85,251.933 1371.18,253.433 1375.5,253C 1378.01,254.299 1380.67,255.299 1383.5,256C 1384.52,258.316 1386.02,258.816 1388,257.5C 1388.51,259.521 1389.68,261.021 1391.5,262C 1394.87,262.287 1397.87,263.454 1400.5,265.5C 1401.09,265.291 1401.59,264.957 1402,264.5C 1404.4,266.949 1406.9,269.283 1409.5,271.5C 1413.5,269.63 1416.5,270.63 1418.5,274.5C 1422.27,275.128 1425.44,276.795 1428,279.5C 1430.33,280.833 1432.67,280.833 1435,279.5C 1436.67,282.095 1438.84,283.095 1441.5,282.5C 1445.16,286.327 1448.99,289.993 1453,293.5C 1455.43,294.322 1457.93,294.656 1460.5,294.5C 1460.35,295.552 1460.52,296.552 1461,297.5C 1462.11,296.289 1463.28,296.289 1464.5,297.5C 1468.91,302.956 1474.08,305.623 1480,305.5C 1480.33,306.5 1480.67,307.5 1481,308.5C 1481.33,308.167 1481.67,307.833 1482,307.5C 1483.38,311.547 1486.22,313.714 1490.5,314C 1490.17,314.333 1489.83,314.667 1489.5,315C 1490.67,315.5 1491.5,316.333 1492,317.5C 1493.27,317.384 1494.6,317.051 1496,316.5C 1500.4,320.896 1504.4,324.896 1508,328.5C 1508.56,327.978 1509.23,327.645 1510,327.5C 1513.22,330.198 1516.72,332.532 1520.5,334.5C 1520.29,335.086 1519.96,335.586 1519.5,336C 1522.44,336.212 1524.27,337.712 1525,340.5C 1525.33,340.167 1525.67,339.833 1526,339.5C 1527.83,340.667 1529.67,341.833 1531.5,343C 1532.34,344.011 1532.67,345.178 1532.5,346.5C 1535.88,346.959 1539.21,347.626 1542.5,348.5C 1542.19,352.697 1544.19,354.697 1548.5,354.5C 1548.5,355.5 1548.5,356.5 1548.5,357.5C 1550.94,357.354 1551.61,358.187 1550.5,360C 1552.78,360.212 1554.78,361.045 1556.5,362.5C 1557.96,361.391 1558.96,361.891 1559.5,364C 1559.17,364.333 1558.83,364.667 1558.5,365C 1562.07,366.278 1564.41,368.278 1565.5,371C 1567.17,371.833 1568.83,372.667 1570.5,373.5C 1573.1,375.717 1575.6,378.051 1578,380.5C 1581.19,379.296 1583.36,380.463 1584.5,384C 1585.85,385.294 1587.19,385.46 1588.5,384.5C 1589.28,385.729 1589.78,387.062 1590,388.5C 1590.33,387.833 1590.67,387.167 1591,386.5C 1591.22,387.938 1591.72,389.271 1592.5,390.5C 1594.74,391.269 1596.74,392.436 1598.5,394C 1597.58,396.048 1598.08,397.881 1600,399.5C 1600.33,399.167 1600.67,398.833 1601,398.5C 1601.48,399.448 1601.65,400.448 1601.5,401.5C 1605.14,401.563 1607.64,403.23 1609,406.5C 1609.33,406.167 1609.67,405.833 1610,405.5C 1610.27,407.329 1611.11,408.829 1612.5,410C 1612.17,410.333 1611.83,410.667 1611.5,411C 1613.49,412.751 1615.82,413.751 1618.5,414C 1619.34,415.011 1619.67,416.178 1619.5,417.5C 1623.15,418.237 1626.48,419.57 1629.5,421.5C 1628.96,424.238 1629.96,426.072 1632.5,427C 1632.04,427.414 1631.71,427.914 1631.5,428.5C 1634.68,430.955 1638.01,433.289 1641.5,435.5C 1642.73,436.651 1642.73,437.817 1641.5,439C 1644.9,439.851 1647.23,441.851 1648.5,445C 1648.17,445.333 1647.83,445.667 1647.5,446C 1648.76,447.113 1649.93,447.28 1651,446.5C 1650.74,447.951 1650.9,449.284 1651.5,450.5C 1652.43,451.641 1653.26,451.641 1654,450.5C 1654.44,452.679 1655.44,453.345 1657,452.5C 1661.1,455.606 1664.6,459.44 1667.5,464C 1666.4,465.131 1666.73,465.965 1668.5,466.5C 1669.09,466.291 1669.59,465.957 1670,465.5C 1671.65,467.747 1671.99,470.08 1671,472.5C 1674.98,475.309 1678.81,478.309 1682.5,481.5C 1681.18,484.057 1682.01,485.724 1685,486.5C 1685.22,487.938 1685.72,489.271 1686.5,490.5C 1687.43,491.641 1688.26,491.641 1689,490.5C 1690.2,492.412 1691.87,493.745 1694,494.5C 1694.75,495.635 1694.58,496.635 1693.5,497.5C 1693.17,496.833 1692.83,496.167 1692.5,495.5C 1691.61,496.325 1691.28,497.325 1691.5,498.5C 1693.14,498.714 1694.64,498.38 1696,497.5C 1696.83,499 1698,500.167 1699.5,501C 1699.04,501.414 1698.71,501.914 1698.5,502.5C 1700.78,504.827 1702.62,507.494 1704,510.5C 1705.84,509.167 1706.34,509.334 1705.5,511C 1706.16,512.332 1707.33,513.498 1709,514.5C 1709.31,515.766 1709.81,516.933 1710.5,518C 1710.17,518.333 1709.83,518.667 1709.5,519C 1711.67,520.586 1714,521.92 1716.5,523C 1715.69,523.308 1715.03,523.808 1714.5,524.5C 1715.69,525.429 1717.02,525.762 1718.5,525.5C 1717.8,527.678 1717.46,529.678 1717.5,531.5C 1719.05,533.44 1721.05,534.606 1723.5,535C 1723.17,535.333 1722.83,535.667 1722.5,536C 1725.71,540.341 1729.71,544.674 1734.5,549C 1733.83,549.667 1733.17,550.333 1732.5,551C 1737.45,556.775 1741.78,562.941 1745.5,569.5C 1746.73,571.321 1748.39,572.321 1750.5,572.5C 1749.34,578.178 1751.34,582.178 1756.5,584.5C 1757.17,583.833 1757.83,583.167 1758.5,582.5C 1759.21,585.366 1759.87,588.2 1760.5,591C 1760.17,591.333 1759.83,591.667 1759.5,592C 1760.45,592.483 1761.45,592.649 1762.5,592.5C 1762.44,596.548 1764.11,599.715 1767.5,602C 1766.83,602.333 1766.17,602.667 1765.5,603C 1767.09,603.862 1768.75,604.529 1770.5,605C 1771.25,606.742 1771.25,608.742 1770.5,611C 1772.58,612.244 1773.58,614.077 1773.5,616.5C 1775.86,617.178 1778.02,617.512 1780,617.5C 1780.33,619.047 1779.83,620.38 1778.5,621.5C 1779.73,622.281 1781.06,622.781 1782.5,623C 1781.5,623.333 1780.5,623.667 1779.5,624C 1782.74,627.572 1785.4,631.906 1787.5,637C 1786.98,637.561 1786.64,638.228 1786.5,639C 1787.83,641.333 1789.17,643.667 1790.5,646C 1790.26,646.873 1789.93,647.707 1789.5,648.5C 1792.29,652.679 1795.29,656.179 1798.5,659C 1797.55,659.483 1796.55,659.649 1795.5,659.5C 1795.5,660.833 1795.5,662.167 1795.5,663.5C 1793.88,663.36 1792.71,664.027 1792,665.5C 1791,664.833 1790,664.167 1789,663.5C 1786.02,666.191 1783.35,668.524 1781,670.5C 1779.67,669.833 1778.33,669.167 1777,668.5C 1776.15,672.729 1773.82,674.396 1770,673.5C 1767.81,675.235 1765.31,676.402 1762.5,677C 1760.88,677.853 1760.54,678.853 1761.5,680C 1759.08,680.293 1757.24,681.459 1756,683.5C 1755.67,683.167 1755.33,682.833 1755,682.5C 1753.97,684.776 1752.47,685.443 1750.5,684.5C 1749.18,686.682 1747.51,687.349 1745.5,686.5C 1742.19,687.972 1739.69,690.305 1738,693.5C 1736.33,693.167 1734.67,692.833 1733,692.5C 1731.93,693.191 1730.77,693.691 1729.5,694C 1727.66,697.178 1725.5,699.345 1723,700.5C 1721.17,700.333 1719.33,700.167 1717.5,700C 1716.54,701.419 1715.71,702.919 1715,704.5C 1714.67,704.167 1714.33,703.833 1714,703.5C 1710.8,704.789 1708.14,706.789 1706,709.5C 1704.85,708.542 1703.85,708.875 1703,710.5C 1702.67,709.833 1702.33,709.167 1702,708.5C 1701,709.833 1700,711.167 1699,712.5C 1696.46,711.124 1694.46,711.79 1693,714.5C 1692.67,714.167 1692.33,713.833 1692,713.5C 1690.32,715.351 1688.48,717.018 1686.5,718.5C 1686.71,719.086 1687.04,719.586 1687.5,720C 1686.22,720.684 1685.05,720.517 1684,719.5C 1682.68,720.88 1681.34,721.214 1680,720.5C 1677.68,721.62 1675.51,723.62 1673.5,726.5C 1672.17,727.833 1670.83,727.833 1669.5,726.5C 1664.21,729.391 1659.04,732.391 1654,735.5C 1652.43,734.939 1651.1,735.606 1650,737.5C 1649.67,737.167 1649.33,736.833 1649,736.5C 1646.01,738.775 1642.84,740.775 1639.5,742.5C 1638.61,743.325 1638.28,744.325 1638.5,745.5C 1636.83,745.5 1635.17,745.5 1633.5,745.5 Z"/></g>
<g><path style="opacity:0.059" fill="#eefdff" d="M 1035.5,197.5 C 1036.16,200.482 1036.5,203.648 1036.5,207C 1035.78,228.16 1035.28,249.327 1035,270.5C 1033.12,246.19 1033.28,221.856 1035.5,197.5 Z"/></g>
<g><path style="opacity:0.014" fill="#eefcfe" d="M 1051.5,345.5 C 1052.31,348.478 1052.64,351.478 1052.5,354.5C 1049.44,359.645 1050.11,364.145 1054.5,368C 1053.5,369 1052.5,370 1051.5,371C 1052.52,372.049 1052.68,373.216 1052,374.5C 1047.6,375.467 1043.1,375.8 1038.5,375.5C 1040.78,369.83 1041.94,363.83 1042,357.5C 1042.33,347.167 1042.67,336.833 1043,326.5C 1043.33,334.167 1043.67,341.833 1044,349.5C 1044.51,351.878 1045.18,354.212 1046,356.5C 1047,357.833 1048,357.833 1049,356.5C 1050.15,352.896 1050.99,349.229 1051.5,345.5 Z"/></g>
<g><path style="opacity:1" fill="#e8fbfe" d="M 1909.5,617.5 C 1967.95,740.07 1998.95,869.404 2002.5,1005.5C 2002.52,1031.84 2002.19,1058.17 2001.5,1084.5C 1985.1,1335.79 1888.1,1549.63 1710.5,1726C 1694.96,1740.54 1679.13,1754.7 1663,1768.5C 1640.29,1739.96 1617.79,1711.29 1595.5,1682.5C 1597.75,1681.38 1600.08,1680.21 1602.5,1679C 1601.66,1677.99 1601.33,1676.82 1601.5,1675.5C 1607.21,1672.96 1611.54,1668.8 1614.5,1663C 1615.45,1662.38 1616.28,1662.55 1617,1663.5C 1617.83,1662.5 1618.67,1661.5 1619.5,1660.5C 1620.45,1661.33 1621.45,1661.49 1622.5,1661C 1623.17,1659 1624.5,1657.67 1626.5,1657C 1625.36,1656.26 1625.36,1655.43 1626.5,1654.5C 1627.67,1653.42 1629,1652.58 1630.5,1652C 1630.17,1651.67 1629.83,1651.33 1629.5,1651C 1631.73,1649.77 1633.23,1647.94 1634,1645.5C 1637.94,1642.9 1641.27,1639.56 1644,1635.5C 1644.33,1636.17 1644.67,1636.83 1645,1637.5C 1647.72,1635.09 1649.72,1632.09 1651,1628.5C 1651.91,1629.65 1652.75,1629.49 1653.5,1628C 1653.17,1627.67 1652.83,1627.33 1652.5,1627C 1654.68,1626.56 1655.35,1625.56 1654.5,1624C 1658.84,1622.33 1662.18,1619.5 1664.5,1615.5C 1664.29,1614.91 1663.96,1614.41 1663.5,1614C 1665.5,1613 1667.5,1612 1669.5,1611C 1668.17,1610.33 1668.17,1609.67 1669.5,1609C 1670.45,1608.52 1671.45,1608.35 1672.5,1608.5C 1672.42,1607.07 1672.75,1605.74 1673.5,1604.5C 1679.98,1601.89 1684.48,1596.89 1687,1589.5C 1688.33,1588.83 1689.67,1588.17 1691,1587.5C 1691.68,1586.22 1691.52,1585.05 1690.5,1584C 1692.42,1583.64 1694.09,1582.81 1695.5,1581.5C 1694.78,1579.84 1695.11,1578.17 1696.5,1576.5C 1698.49,1576.47 1700.49,1575.63 1702.5,1574C 1703.83,1573.33 1703.83,1572.67 1702.5,1572C 1705.65,1571.89 1706.65,1570.56 1705.5,1568C 1708.29,1566.71 1710.62,1564.87 1712.5,1562.5C 1711.39,1560.79 1712.06,1560.12 1714.5,1560.5C 1714.3,1558.61 1714.96,1557.11 1716.5,1556C 1716.04,1555.59 1715.71,1555.09 1715.5,1554.5C 1718.31,1553.24 1720.48,1551.24 1722,1548.5C 1722.49,1547.21 1722.66,1545.87 1722.5,1544.5C 1724.43,1544.77 1726.1,1544.27 1727.5,1543C 1726.17,1542.33 1726.17,1541.67 1727.5,1541C 1726.5,1540.67 1725.5,1540.33 1724.5,1540C 1726.25,1539.53 1727.91,1538.86 1729.5,1538C 1727.12,1537.03 1727.46,1536.36 1730.5,1536C 1729.66,1534.76 1730,1533.59 1731.5,1532.5C 1733.53,1533.63 1733.86,1533.13 1732.5,1531C 1736.46,1525.64 1740.79,1520.47 1745.5,1515.5C 1746.64,1514.57 1746.64,1513.74 1745.5,1513C 1749.04,1511.76 1751.04,1509.26 1751.5,1505.5C 1752.5,1504.67 1753.5,1503.83 1754.5,1503C 1754.17,1502.67 1753.83,1502.33 1753.5,1502C 1754.82,1500.34 1756.48,1499.17 1758.5,1498.5C 1759.46,1495.37 1759.46,1492.54 1758.5,1490C 1760.64,1488.05 1762.81,1486.88 1765,1486.5C 1766.31,1484.31 1766.48,1482.15 1765.5,1480C 1766.72,1478.35 1767.55,1476.52 1768,1474.5C 1768.72,1475.45 1769.55,1475.62 1770.5,1475C 1771.79,1470.04 1774.62,1466.21 1779,1463.5C 1779.86,1460.47 1781.36,1457.81 1783.5,1455.5C 1782.44,1452.9 1782.27,1450.23 1783,1447.5C 1786.43,1447.99 1788.6,1446.33 1789.5,1442.5C 1789.29,1441.91 1788.96,1441.41 1788.5,1441C 1789.72,1439.26 1791.38,1438.26 1793.5,1438C 1793.04,1437.59 1792.71,1437.09 1792.5,1436.5C 1794.06,1433.32 1796.06,1430.49 1798.5,1428C 1798.04,1427.59 1797.71,1427.09 1797.5,1426.5C 1799.62,1423.1 1801.62,1419.6 1803.5,1416C 1803.36,1415.23 1803.02,1414.56 1802.5,1414C 1804.17,1411.67 1805.83,1409.33 1807.5,1407C 1806.83,1406.33 1806.17,1405.67 1805.5,1405C 1807.9,1402.32 1810.4,1399.82 1813,1397.5C 1813.32,1395.94 1814.15,1394.77 1815.5,1394C 1815.04,1393.59 1814.71,1393.09 1814.5,1392.5C 1815.86,1391.11 1816.7,1389.44 1817,1387.5C 1817.91,1388.65 1818.75,1388.49 1819.5,1387C 1818.37,1385.98 1818.7,1385.32 1820.5,1385C 1820.04,1384.59 1819.71,1384.09 1819.5,1383.5C 1822.57,1380.1 1823.91,1376.27 1823.5,1372C 1825.18,1370.05 1825.85,1368.05 1825.5,1366C 1829.21,1364.05 1830.88,1361.22 1830.5,1357.5C 1833.72,1356.55 1834.05,1355.22 1831.5,1353.5C 1833.3,1349.54 1835.3,1345.71 1837.5,1342C 1837.17,1341 1836.83,1340 1836.5,1339C 1839.53,1334.63 1842.19,1329.96 1844.5,1325C 1843.83,1324.33 1843.17,1323.67 1842.5,1323C 1847.16,1319.85 1848.49,1315.69 1846.5,1310.5C 1848.84,1306.46 1851.17,1302.46 1853.5,1298.5C 1853.09,1295.97 1852.75,1293.47 1852.5,1291C 1855.15,1289.37 1856.82,1287.04 1857.5,1284C 1857.17,1283.67 1856.83,1283.33 1856.5,1283C 1857.42,1282.63 1858.25,1282.13 1859,1281.5C 1859.27,1278.65 1860.1,1275.98 1861.5,1273.5C 1860.97,1272.81 1860.31,1272.31 1859.5,1272C 1860.97,1270.9 1861.8,1269.4 1862,1267.5C 1862.9,1266.3 1864.07,1265.47 1865.5,1265C 1864.67,1264.09 1863.67,1263.42 1862.5,1263C 1863.63,1261.25 1864.63,1259.41 1865.5,1257.5C 1865.28,1256.03 1864.94,1254.53 1864.5,1253C 1867.67,1250.64 1869.33,1248.3 1869.5,1246C 1869.26,1245.13 1868.93,1244.29 1868.5,1243.5C 1872.13,1239.23 1872.47,1235.06 1869.5,1231C 1871.59,1227.42 1873.59,1223.42 1875.5,1219C 1874.57,1218.61 1873.91,1217.95 1873.5,1217C 1875.39,1212.29 1877.06,1207.46 1878.5,1202.5C 1875.83,1199.83 1875.83,1197.17 1878.5,1194.5C 1877.13,1192.38 1877.8,1191.38 1880.5,1191.5C 1881.42,1189.12 1881.42,1186.79 1880.5,1184.5C 1881.83,1182.83 1883.17,1181.17 1884.5,1179.5C 1883.97,1178.81 1883.31,1178.31 1882.5,1178C 1883.54,1175.74 1883.54,1173.41 1882.5,1171C 1884.74,1165.79 1886.41,1160.46 1887.5,1155C 1886.19,1153.61 1886.52,1152.61 1888.5,1152C 1885.34,1149.6 1885.34,1146.93 1888.5,1144C 1886.11,1142.69 1886.11,1141.69 1888.5,1141C 1888.63,1138.77 1888.29,1136.43 1887.5,1134C 1890.03,1130.68 1891.03,1127.35 1890.5,1124C 1891.63,1122.53 1892.29,1120.87 1892.5,1119C 1892.27,1115.71 1891.6,1112.55 1890.5,1109.5C 1892.26,1107.44 1892.59,1105.27 1891.5,1103C 1892.17,1102.67 1892.83,1102.33 1893.5,1102C 1891,1100.45 1891,1098.78 1893.5,1097C 1893.43,1094.38 1893.1,1091.71 1892.5,1089C 1892.96,1086.42 1893.96,1084.08 1895.5,1082C 1893.63,1079.42 1893.63,1076.59 1895.5,1073.5C 1894.97,1072.81 1894.31,1072.31 1893.5,1072C 1896.7,1070.32 1897.03,1068.32 1894.5,1066C 1893.98,1062.94 1894.65,1059.94 1896.5,1057C 1894.94,1053.73 1893.94,1050.56 1893.5,1047.5C 1894.02,1045.62 1894.69,1043.78 1895.5,1042C 1894.98,1041.05 1894.31,1040.22 1893.5,1039.5C 1894.17,1038.5 1894.83,1037.5 1895.5,1036.5C 1894.17,1034.83 1894.17,1033.17 1895.5,1031.5C 1894.83,1030.5 1894.17,1029.5 1893.5,1028.5C 1896.54,1028.36 1896.88,1027.02 1894.5,1024.5C 1897.35,1021.72 1897.02,1019.38 1893.5,1017.5C 1894.03,1016.81 1894.69,1016.31 1895.5,1016C 1895.58,1014.09 1895.25,1012.09 1894.5,1010C 1895.17,1009.67 1895.83,1009.33 1896.5,1009C 1895.24,1006.3 1893.91,1004.3 1892.5,1003C 1893.38,1001.9 1894.38,1001.4 1895.5,1001.5C 1893.09,998.869 1893.09,996.369 1895.5,994C 1894.83,993.333 1894.17,992.667 1893.5,992C 1895.18,990.055 1895.85,988.055 1895.5,986C 1894.83,984.667 1894.17,983.333 1893.5,982C 1894.48,980.221 1894.15,978.555 1892.5,977C 1893.8,976.196 1894.47,975.029 1894.5,973.5C 1892,969.507 1890.67,965.341 1890.5,961C 1891.02,960.05 1891.69,959.216 1892.5,958.5C 1891.36,957.575 1891.36,956.741 1892.5,956C 1891.57,955.612 1890.91,954.945 1890.5,954C 1893.63,951.727 1893.8,949.561 1891,947.5C 1890.67,941.628 1890.83,935.961 1891.5,930.5C 1891.15,929.304 1890.65,929.304 1890,930.5C 1889.48,927.081 1888.65,923.748 1887.5,920.5C 1888.37,917.425 1887.37,914.925 1884.5,913C 1885.17,912.667 1885.83,912.333 1886.5,912C 1886.24,908.942 1886.07,905.775 1886,902.5C 1885.36,900.238 1884.52,898.071 1883.5,896C 1885.7,892.239 1885.53,888.739 1883,885.5C 1882.29,883.101 1882.46,880.768 1883.5,878.5C 1881.92,874.977 1880.59,871.31 1879.5,867.5C 1880.28,865.671 1879.62,864.171 1877.5,863C 1878.27,860.164 1877.93,857.33 1876.5,854.5C 1877.37,852.587 1878.37,850.753 1879.5,849C 1878.55,848.383 1877.72,848.549 1877,849.5C 1877,845.825 1875.67,842.825 1873,840.5C 1872.26,838.559 1872.42,836.726 1873.5,835C 1871.29,833.372 1870.95,831.372 1872.5,829C 1870.91,823.088 1869.08,817.588 1867,812.5C 1866.35,813.696 1865.85,813.696 1865.5,812.5C 1866.03,811.808 1866.69,811.308 1867.5,811C 1866.36,810.259 1866.36,809.425 1867.5,808.5C 1867.15,807.304 1866.65,807.304 1866,808.5C 1865.71,806.048 1865.04,803.715 1864,801.5C 1863.67,801.833 1863.33,802.167 1863,802.5C 1862.73,800.899 1862.23,799.399 1861.5,798C 1862.5,797.667 1863.5,797.333 1864.5,797C 1863.36,796.259 1863.36,795.425 1864.5,794.5C 1862.91,792.364 1861.25,790.198 1859.5,788C 1860.73,786.413 1860.39,785.079 1858.5,784C 1859.31,783.692 1859.97,783.192 1860.5,782.5C 1859.73,781.289 1858.89,781.289 1858,782.5C 1856.3,780.701 1856.13,778.701 1857.5,776.5C 1856.35,774.373 1855.35,772.206 1854.5,770C 1854.83,769.667 1855.17,769.333 1855.5,769C 1854.42,765.595 1853.58,762.095 1853,758.5C 1852.33,757.167 1851.67,757.167 1851,758.5C 1849.49,756.702 1849.33,754.868 1850.5,753C 1849.17,752 1847.83,751 1846.5,750C 1846.83,749.667 1847.17,749.333 1847.5,749C 1846.74,747.559 1846.07,746.059 1845.5,744.5C 1846.93,742.669 1847.43,740.669 1847,738.5C 1846.67,738.833 1846.33,739.167 1846,739.5C 1844.93,738.809 1843.77,738.309 1842.5,738C 1844.85,736.312 1845.01,734.478 1843,732.5C 1842.67,732.833 1842.33,733.167 1842,733.5C 1841.28,731.888 1841.45,730.388 1842.5,729C 1840.4,728.511 1840.06,727.345 1841.5,725.5C 1840.83,722.972 1840,722.972 1839,725.5C 1837.75,721.918 1836.75,718.251 1836,714.5C 1834.39,710.88 1832.55,707.38 1830.5,704C 1831.55,702.284 1830.89,701.284 1828.5,701C 1828.83,699.333 1829.17,697.667 1829.5,696C 1825.2,692.56 1823.2,688.06 1823.5,682.5C 1821.8,682.66 1820.13,682.494 1818.5,682C 1820.16,681.275 1820.66,680.108 1820,678.5C 1819.67,678.833 1819.33,679.167 1819,679.5C 1817.5,676.867 1817.33,674.2 1818.5,671.5C 1816.67,670.572 1816.33,669.406 1817.5,668C 1813.63,666.013 1813.63,665.513 1817.5,666.5C 1819.01,664.576 1821.01,663.409 1823.5,663C 1824.16,661.095 1825.32,659.595 1827,658.5C 1828.49,659.747 1829.99,659.747 1831.5,658.5C 1832.82,656.174 1834.49,654.174 1836.5,652.5C 1838.1,653.485 1839.76,653.651 1841.5,653C 1843.73,650.937 1846.4,649.604 1849.5,649C 1848.54,647.853 1848.88,646.853 1850.5,646C 1855.17,645.354 1859.17,643.52 1862.5,640.5C 1865.11,639.682 1867.77,639.182 1870.5,639C 1871.83,638 1871.83,637 1870.5,636C 1872.05,634.354 1873.72,634.021 1875.5,635C 1874.17,634.333 1874.17,633.667 1875.5,633C 1877.44,632.257 1879.27,632.424 1881,633.5C 1883.76,631.614 1886.1,629.281 1888,626.5C 1889.88,627.557 1891.54,627.557 1893,626.5C 1893.67,625.167 1894.33,623.833 1895,622.5C 1895.33,623.5 1895.67,624.5 1896,625.5C 1898.34,623.226 1901.18,622.059 1904.5,622C 1906.39,620.921 1906.73,619.587 1905.5,618C 1906.79,617.51 1908.13,617.343 1909.5,617.5 Z"/></g>
<g><path style="opacity:0.004" fill="#ccfffe" d="M 267.5,644.5 C 269.97,645.36 270.137,646.694 268,648.5C 267.51,647.207 267.343,645.873 267.5,644.5 Z"/></g>
<g><path style="opacity:1" fill="#e8fbfe" d="M 1587.5,1672.5 C 1560.21,1639.27 1533.37,1605.6 1507,1571.5C 1497.26,1562.69 1488.92,1552.69 1482,1541.5C 1477.98,1537.65 1474.15,1533.65 1470.5,1529.5C 1618.23,1396.49 1694.23,1229.99 1698.5,1030C 1697.86,934.967 1678.2,844.134 1639.5,757.5C 1639.54,752.987 1641.21,751.987 1644.5,754.5C 1647.8,754.322 1649.47,752.656 1649.5,749.5C 1652.95,749.111 1656.28,748.278 1659.5,747C 1660.83,746.333 1660.83,745.667 1659.5,745C 1661.26,742.166 1663.59,741.666 1666.5,743.5C 1668.55,741.806 1670.89,740.639 1673.5,740C 1674.86,738.416 1675.53,736.582 1675.5,734.5C 1676.93,734.421 1678.26,734.754 1679.5,735.5C 1680.89,734.395 1682.06,733.061 1683,731.5C 1683.33,731.833 1683.67,732.167 1684,732.5C 1686.41,731.726 1688.91,731.226 1691.5,731C 1692.63,729.984 1692.3,729.317 1690.5,729C 1691.76,727.887 1692.93,727.72 1694,728.5C 1694.33,727.833 1694.67,727.167 1695,726.5C 1695.72,727.451 1696.55,727.617 1697.5,727C 1699.25,724.666 1701.42,722.833 1704,721.5C 1705.91,721.255 1707.91,721.255 1710,721.5C 1711.58,720.624 1712.58,719.291 1713,717.5C 1714.3,717.966 1715.8,717.966 1717.5,717.5C 1717.33,714.203 1718,713.869 1719.5,716.5C 1720.19,715.975 1720.69,715.308 1721,714.5C 1722.11,715.711 1723.28,715.711 1724.5,714.5C 1725.71,713.726 1725.71,712.893 1724.5,712C 1725.52,709.684 1727.02,709.184 1729,710.5C 1730.02,709.313 1731.19,708.313 1732.5,707.5C 1733.19,708.025 1733.69,708.692 1734,709.5C 1736.73,708.638 1736.9,707.805 1734.5,707C 1738.58,705.083 1742.25,702.583 1745.5,699.5C 1751.64,699.217 1757.48,696.55 1763,691.5C 1764.05,692.517 1765.22,692.684 1766.5,692C 1768.02,690.478 1769.52,688.978 1771,687.5C 1771.77,687.645 1772.44,687.978 1773,688.5C 1773.33,687.167 1773.67,685.833 1774,684.5C 1774.74,685.641 1775.57,685.641 1776.5,684.5C 1777.68,682.954 1778.68,681.287 1779.5,679.5C 1783.29,679.257 1787.12,679.257 1791,679.5C 1793.51,675.997 1796.68,674.331 1800.5,674.5C 1801.17,673.5 1801.83,672.5 1802.5,671.5C 1803.49,673.323 1804.82,674.823 1806.5,676C 1805.83,677.667 1805.17,679.333 1804.5,681C 1806.77,681.941 1808.77,683.274 1810.5,685C 1810.41,686.813 1810.07,688.646 1809.5,690.5C 1810.45,692.4 1811.95,693.733 1814,694.5C 1814.42,696.515 1815.26,698.349 1816.5,700C 1816.36,700.772 1816.02,701.439 1815.5,702C 1816.43,704.701 1817.77,707.201 1819.5,709.5C 1818.71,711.329 1819.21,712.996 1821,714.5C 1821.33,713.833 1821.67,713.167 1822,712.5C 1822.68,713.784 1822.52,714.951 1821.5,716C 1823.3,716.317 1823.63,716.984 1822.5,718C 1823.3,719.771 1824.47,721.271 1826,722.5C 1826.68,723.784 1826.52,724.951 1825.5,726C 1827.6,726.489 1827.94,727.655 1826.5,729.5C 1826.83,730.167 1827.17,730.833 1827.5,731.5C 1828.61,730.41 1829.61,730.41 1830.5,731.5C 1829.69,732.814 1828.69,733.981 1827.5,735C 1830.22,736.51 1831.88,738.343 1832.5,740.5C 1833.33,745.455 1834.83,750.122 1837,754.5C 1837.5,756.81 1837.66,759.143 1837.5,761.5C 1838.68,761.281 1839.68,761.614 1840.5,762.5C 1840.09,765.032 1839.75,767.532 1839.5,770C 1841,771.491 1841.84,773.324 1842,775.5C 1843.17,776.893 1844.67,777.727 1846.5,778C 1846.3,780.016 1845.3,782.016 1843.5,784C 1846.71,788.113 1849.04,793.113 1850.5,799C 1850.33,800.117 1850,801.284 1849.5,802.5C 1851.44,804.124 1852.77,806.124 1853.5,808.5C 1853.43,809.772 1853.1,810.938 1852.5,812C 1855.23,812.84 1856.89,814.173 1857.5,816C 1856.83,816.667 1856.17,817.333 1855.5,818C 1856.42,818.85 1856.42,819.85 1855.5,821C 1855.88,823.964 1856.88,826.63 1858.5,829C 1858.17,829.333 1857.83,829.667 1857.5,830C 1858.83,832 1860.17,834 1861.5,836C 1859.56,838.153 1859.06,840.653 1860,843.5C 1861.62,843.889 1862.78,845.222 1863.5,847.5C 1864.4,846.494 1865.06,846.494 1865.5,847.5C 1864.89,849.709 1864.23,851.876 1863.5,854C 1864.31,854.308 1864.97,854.808 1865.5,855.5C 1865.17,857.5 1864.83,859.5 1864.5,861.5C 1865.38,862.251 1866.38,862.751 1867.5,863C 1866.89,865.058 1865.89,865.891 1864.5,865.5C 1865.51,867.864 1866.85,869.198 1868.5,869.5C 1867.36,870.425 1867.36,871.259 1868.5,872C 1865.83,872.667 1865.83,873.333 1868.5,874C 1868.33,875.117 1868,876.284 1867.5,877.5C 1868.15,879.115 1868.65,880.782 1869,882.5C 1869.75,883.126 1870.58,883.626 1871.5,884C 1870.95,885.398 1870.62,886.732 1870.5,888C 1871.17,888.333 1871.83,888.667 1872.5,889C 1871.29,890.113 1871.29,891.28 1872.5,892.5C 1869.86,894.14 1869.86,896.64 1872.5,900C 1871.83,900.667 1871.17,901.333 1870.5,902C 1872.78,905.638 1874.78,909.472 1876.5,913.5C 1876.48,915.551 1875.81,917.717 1874.5,920C 1875.6,923.136 1876.6,926.303 1877.5,929.5C 1876.83,930.833 1876.17,932.167 1875.5,933.5C 1878.56,938.95 1878.89,944.45 1876.5,950C 1877.68,954.117 1879.02,958.117 1880.5,962C 1879.83,962.667 1879.17,963.333 1878.5,964C 1880.28,969.152 1880.61,974.152 1879.5,979C 1880.19,981.795 1880.69,984.628 1881,987.5C 1881.5,988 1882,988.5 1882.5,989C 1879.66,993.283 1879.99,997.283 1883.5,1001C 1883.05,1002.29 1882.38,1003.45 1881.5,1004.5C 1881.55,1008.11 1881.89,1011.61 1882.5,1015C 1881.79,1018.49 1881.12,1021.99 1880.5,1025.5C 1882.5,1027.49 1883.33,1029.82 1883,1032.5C 1882.26,1030.36 1881.42,1030.19 1880.5,1032C 1881.17,1033.33 1881.83,1034.67 1882.5,1036C 1880.92,1038.65 1881.25,1040.98 1883.5,1043C 1881.3,1045.76 1880.96,1048.76 1882.5,1052C 1881.83,1052.33 1881.17,1052.67 1880.5,1053C 1881.83,1053.67 1883.17,1054.33 1884.5,1055C 1881.26,1057.72 1880.26,1061.05 1881.5,1065C 1879.09,1068.41 1879.09,1071.75 1881.5,1075C 1880.83,1075.67 1880.17,1076.33 1879.5,1077C 1879.47,1080.64 1879.8,1084.31 1880.5,1088C 1879.69,1088.31 1879.03,1088.81 1878.5,1089.5C 1878.42,1096.5 1878.76,1103.16 1879.5,1109.5C 1878.51,1110.67 1877.51,1111.83 1876.5,1113C 1878.8,1116.76 1878.8,1120.43 1876.5,1124C 1876.9,1125.47 1877.57,1126.81 1878.5,1128C 1876.33,1129.86 1875.99,1132.03 1877.5,1134.5C 1876.17,1135.83 1874.83,1137.17 1873.5,1138.5C 1874.17,1139.83 1874.83,1141.17 1875.5,1142.5C 1874.97,1143.19 1874.31,1143.69 1873.5,1144C 1873.67,1145.12 1874,1146.28 1874.5,1147.5C 1872.44,1149.09 1872.1,1150.93 1873.5,1153C 1872.83,1154.67 1872.17,1156.33 1871.5,1158C 1873.08,1162.27 1872.24,1166.44 1869,1170.5C 1868.66,1173.86 1868.16,1177.19 1867.5,1180.5C 1867.38,1182.98 1867.71,1185.31 1868.5,1187.5C 1867.11,1187.11 1866.11,1187.94 1865.5,1190C 1865.62,1191.27 1865.95,1192.6 1866.5,1194C 1865.02,1200.16 1863.02,1206.16 1860.5,1212C 1861.06,1215.1 1861.4,1218.27 1861.5,1221.5C 1857.85,1226.92 1856.19,1232.76 1856.5,1239C 1856.03,1240.89 1855.03,1242.39 1853.5,1243.5C 1854,1244.72 1854.33,1245.88 1854.5,1247C 1852.83,1249.91 1851.17,1252.91 1849.5,1256C 1853.19,1256.42 1853.36,1257.26 1850,1258.5C 1849.38,1259.45 1849.55,1260.28 1850.5,1261C 1848.7,1261.32 1848.37,1261.98 1849.5,1263C 1848.67,1268.17 1846.67,1272.83 1843.5,1277C 1844.06,1277.72 1844.39,1278.56 1844.5,1279.5C 1841.95,1282.81 1840.29,1286.48 1839.5,1290.5C 1840.5,1290.5 1841.5,1290.5 1842.5,1290.5C 1840.8,1293.92 1839.63,1297.59 1839,1301.5C 1834.75,1308.68 1830.91,1316.01 1827.5,1323.5C 1827.61,1325.1 1827.94,1326.76 1828.5,1328.5C 1825.38,1334.6 1822.72,1340.94 1820.5,1347.5C 1820.71,1348.09 1821.04,1348.59 1821.5,1349C 1817.6,1349.85 1815.6,1352.35 1815.5,1356.5C 1817.85,1357.77 1817.68,1359.11 1815,1360.5C 1814.67,1360.17 1814.33,1359.83 1814,1359.5C 1813.28,1361.11 1813.45,1362.61 1814.5,1364C 1813.58,1364.37 1812.75,1364.87 1812,1365.5C 1811.58,1367.98 1810.74,1370.31 1809.5,1372.5C 1809.61,1373.44 1809.94,1374.28 1810.5,1375C 1809.17,1375.33 1807.83,1375.67 1806.5,1376C 1806.96,1376.41 1807.29,1376.91 1807.5,1377.5C 1805.29,1380.18 1803.63,1383.18 1802.5,1386.5C 1803.48,1388.12 1802.98,1389.46 1801,1390.5C 1800.47,1393.26 1799.63,1395.93 1798.5,1398.5C 1797.68,1399.39 1796.68,1399.72 1795.5,1399.5C 1792.23,1408.75 1788.23,1418.08 1783.5,1427.5C 1779.31,1432.55 1776.14,1438.22 1774,1444.5C 1770.02,1447.11 1768.85,1450.61 1770.5,1455C 1768.61,1456.1 1767.94,1457.43 1768.5,1459C 1767.15,1459.77 1766.32,1460.94 1766,1462.5C 1764.23,1458.57 1763.06,1458.9 1762.5,1463.5C 1762.82,1464.65 1763.48,1465.48 1764.5,1466C 1763.5,1466.33 1762.5,1466.67 1761.5,1467C 1757.45,1471.11 1754.12,1475.77 1751.5,1481C 1751.83,1481.33 1752.17,1481.67 1752.5,1482C 1747.39,1488.16 1742.39,1494.5 1737.5,1501C 1737.83,1501.33 1738.17,1501.67 1738.5,1502C 1735.6,1505.93 1732.6,1509.93 1729.5,1514C 1732.28,1516.17 1732.11,1516.67 1729,1515.5C 1723.98,1522.01 1719.31,1529.34 1715,1537.5C 1713.85,1538.74 1712.51,1539.74 1711,1540.5C 1710.73,1542.33 1709.89,1543.83 1708.5,1545C 1708.83,1545.33 1709.17,1545.67 1709.5,1546C 1708.55,1546.48 1707.55,1546.65 1706.5,1546.5C 1706.26,1548.47 1706.59,1550.3 1707.5,1552C 1705.87,1552.49 1704.2,1552.66 1702.5,1552.5C 1702.65,1553.55 1702.48,1554.55 1702,1555.5C 1701.28,1554.55 1700.45,1554.38 1699.5,1555C 1698.17,1557.16 1696.51,1558.99 1694.5,1560.5C 1693.29,1561.72 1693.29,1562.89 1694.5,1564C 1692.33,1565.59 1690,1566.92 1687.5,1568C 1686.33,1570.5 1684.5,1572.33 1682,1573.5C 1679.84,1580.49 1676.67,1586.82 1672.5,1592.5C 1670.52,1592.38 1668.85,1593.05 1667.5,1594.5C 1666.91,1594.29 1666.41,1593.96 1666,1593.5C 1662.66,1599.88 1658.16,1605.21 1652.5,1609.5C 1651.91,1609.29 1651.41,1608.96 1651,1608.5C 1648.39,1614.91 1644.73,1619.91 1640,1623.5C 1638.85,1622.54 1637.85,1622.88 1637,1624.5C 1636.67,1626.17 1636.33,1627.83 1636,1629.5C 1635.67,1628.83 1635.33,1628.17 1635,1627.5C 1633.47,1628.73 1632.3,1630.23 1631.5,1632C 1628.58,1632.05 1627.58,1633.22 1628.5,1635.5C 1627.92,1638.12 1626.59,1638.79 1624.5,1637.5C 1622.8,1638.8 1621.63,1640.47 1621,1642.5C 1620.33,1641.17 1619.67,1641.17 1619,1642.5C 1617.47,1644.23 1616.47,1646.23 1616,1648.5C 1615.67,1648.17 1615.33,1647.83 1615,1647.5C 1613.91,1649.35 1612.57,1651.02 1611,1652.5C 1610.68,1650.7 1610.02,1650.37 1609,1651.5C 1607.87,1653.35 1607.37,1655.35 1607.5,1657.5C 1604.2,1657.3 1601.7,1658.63 1600,1661.5C 1599.23,1661.36 1598.56,1661.02 1598,1660.5C 1597.53,1661.93 1596.7,1663.1 1595.5,1664C 1595.83,1664.33 1596.17,1664.67 1596.5,1665C 1592.99,1665.66 1590.33,1667.49 1588.5,1670.5C 1589.98,1671.94 1589.65,1672.61 1587.5,1672.5 Z"/></g>
<g><path style="opacity:0.004" fill="#e0f0f0" d="M 455.5,739.5 C 458.774,739.628 458.941,740.961 456,743.5C 455.51,742.207 455.343,740.873 455.5,739.5 Z"/></g>
<g><path style="opacity:0.053" fill="#e9faff" d="M 106.5,792.5 C 110.441,794.14 114.108,796.306 117.5,799C 114.076,798.639 110.742,797.639 107.5,796C 106.663,794.989 106.33,793.822 106.5,792.5 Z"/></g>
<g><path style="opacity:1" fill="#9dd9e4" d="M 1902.5,603.5 C 1905.34,607.849 1907.67,612.516 1909.5,617.5C 1908.13,617.343 1906.79,617.51 1905.5,618C 1906.73,619.587 1906.39,620.921 1904.5,622C 1901.18,622.059 1898.34,623.226 1896,625.5C 1895.67,624.5 1895.33,623.5 1895,622.5C 1894.33,623.833 1893.67,625.167 1893,626.5C 1891.54,627.557 1889.88,627.557 1888,626.5C 1886.1,629.281 1883.76,631.614 1881,633.5C 1879.27,632.424 1877.44,632.257 1875.5,633C 1874.17,633.667 1874.17,634.333 1875.5,635C 1873.72,634.021 1872.05,634.354 1870.5,636C 1871.83,637 1871.83,638 1870.5,639C 1867.77,639.182 1865.11,639.682 1862.5,640.5C 1859.17,643.52 1855.17,645.354 1850.5,646C 1848.88,646.853 1848.54,647.853 1849.5,649C 1846.4,649.604 1843.73,650.937 1841.5,653C 1839.76,653.651 1838.1,653.485 1836.5,652.5C 1834.49,654.174 1832.82,656.174 1831.5,658.5C 1829.99,659.747 1828.49,659.747 1827,658.5C 1825.32,659.595 1824.16,661.095 1823.5,663C 1821.01,663.409 1819.01,664.576 1817.5,666.5C 1813.63,665.513 1813.63,666.013 1817.5,668C 1816.33,669.406 1816.67,670.572 1818.5,671.5C 1817.33,674.2 1817.5,676.867 1819,679.5C 1819.33,679.167 1819.67,678.833 1820,678.5C 1820.66,680.108 1820.16,681.275 1818.5,682C 1820.13,682.494 1821.8,682.66 1823.5,682.5C 1823.2,688.06 1825.2,692.56 1829.5,696C 1829.17,697.667 1828.83,699.333 1828.5,701C 1830.89,701.284 1831.55,702.284 1830.5,704C 1832.55,707.38 1834.39,710.88 1836,714.5C 1836.75,718.251 1837.75,721.918 1839,725.5C 1840,722.972 1840.83,722.972 1841.5,725.5C 1840.06,727.345 1840.4,728.511 1842.5,729C 1841.45,730.388 1841.28,731.888 1842,733.5C 1842.33,733.167 1842.67,732.833 1843,732.5C 1845.01,734.478 1844.85,736.312 1842.5,738C 1843.77,738.309 1844.93,738.809 1846,739.5C 1846.33,739.167 1846.67,738.833 1847,738.5C 1847.43,740.669 1846.93,742.669 1845.5,744.5C 1846.07,746.059 1846.74,747.559 1847.5,749C 1847.17,749.333 1846.83,749.667 1846.5,750C 1847.83,751 1849.17,752 1850.5,753C 1849.33,754.868 1849.49,756.702 1851,758.5C 1851.67,757.167 1852.33,757.167 1853,758.5C 1853.58,762.095 1854.42,765.595 1855.5,769C 1855.17,769.333 1854.83,769.667 1854.5,770C 1855.35,772.206 1856.35,774.373 1857.5,776.5C 1856.13,778.701 1856.3,780.701 1858,782.5C 1858.89,781.289 1859.73,781.289 1860.5,782.5C 1859.97,783.192 1859.31,783.692 1858.5,784C 1860.39,785.079 1860.73,786.413 1859.5,788C 1861.25,790.198 1862.91,792.364 1864.5,794.5C 1863.36,795.425 1863.36,796.259 1864.5,797C 1863.5,797.333 1862.5,797.667 1861.5,798C 1862.23,799.399 1862.73,800.899 1863,802.5C 1863.33,802.167 1863.67,801.833 1864,801.5C 1865.04,803.715 1865.71,806.048 1866,808.5C 1866.65,807.304 1867.15,807.304 1867.5,808.5C 1866.36,809.425 1866.36,810.259 1867.5,811C 1866.69,811.308 1866.03,811.808 1865.5,812.5C 1865.85,813.696 1866.35,813.696 1867,812.5C 1869.08,817.588 1870.91,823.088 1872.5,829C 1870.95,831.372 1871.29,833.372 1873.5,835C 1872.42,836.726 1872.26,838.559 1873,840.5C 1875.67,842.825 1877,845.825 1877,849.5C 1877.72,848.549 1878.55,848.383 1879.5,849C 1878.37,850.753 1877.37,852.587 1876.5,854.5C 1877.93,857.33 1878.27,860.164 1877.5,863C 1879.62,864.171 1880.28,865.671 1879.5,867.5C 1880.59,871.31 1881.92,874.977 1883.5,878.5C 1882.46,880.768 1882.29,883.101 1883,885.5C 1885.53,888.739 1885.7,892.239 1883.5,896C 1884.52,898.071 1885.36,900.238 1886,902.5C 1886.07,905.775 1886.24,908.942 1886.5,912C 1885.83,912.333 1885.17,912.667 1884.5,913C 1887.37,914.925 1888.37,917.425 1887.5,920.5C 1888.65,923.748 1889.48,927.081 1890,930.5C 1890.65,929.304 1891.15,929.304 1891.5,930.5C 1890.83,935.961 1890.67,941.628 1891,947.5C 1893.8,949.561 1893.63,951.727 1890.5,954C 1890.91,954.945 1891.57,955.612 1892.5,956C 1891.36,956.741 1891.36,957.575 1892.5,958.5C 1891.69,959.216 1891.02,960.05 1890.5,961C 1890.67,965.341 1892,969.507 1894.5,973.5C 1894.47,975.029 1893.8,976.196 1892.5,977C 1894.15,978.555 1894.48,980.221 1893.5,982C 1894.17,983.333 1894.83,984.667 1895.5,986C 1895.85,988.055 1895.18,990.055 1893.5,992C 1894.17,992.667 1894.83,993.333 1895.5,994C 1893.09,996.369 1893.09,998.869 1895.5,1001.5C 1894.38,1001.4 1893.38,1001.9 1892.5,1003C 1893.91,1004.3 1895.24,1006.3 1896.5,1009C 1895.83,1009.33 1895.17,1009.67 1894.5,1010C 1895.25,1012.09 1895.58,1014.09 1895.5,1016C 1894.69,1016.31 1894.03,1016.81 1893.5,1017.5C 1897.02,1019.38 1897.35,1021.72 1894.5,1024.5C 1896.88,1027.02 1896.54,1028.36 1893.5,1028.5C 1894.17,1029.5 1894.83,1030.5 1895.5,1031.5C 1894.17,1033.17 1894.17,1034.83 1895.5,1036.5C 1894.83,1037.5 1894.17,1038.5 1893.5,1039.5C 1894.31,1040.22 1894.98,1041.05 1895.5,1042C 1894.69,1043.78 1894.02,1045.62 1893.5,1047.5C 1893.94,1050.56 1894.94,1053.73 1896.5,1057C 1894.65,1059.94 1893.98,1062.94 1894.5,1066C 1897.03,1068.32 1896.7,1070.32 1893.5,1072C 1894.31,1072.31 1894.97,1072.81 1895.5,1073.5C 1893.63,1076.59 1893.63,1079.42 1895.5,1082C 1893.96,1084.08 1892.96,1086.42 1892.5,1089C 1893.1,1091.71 1893.43,1094.38 1893.5,1097C 1891,1098.78 1891,1100.45 1893.5,1102C 1892.83,1102.33 1892.17,1102.67 1891.5,1103C 1892.59,1105.27 1892.26,1107.44 1890.5,1109.5C 1891.6,1112.55 1892.27,1115.71 1892.5,1119C 1892.29,1120.87 1891.63,1122.53 1890.5,1124C 1891.03,1127.35 1890.03,1130.68 1887.5,1134C 1888.29,1136.43 1888.63,1138.77 1888.5,1141C 1886.11,1141.69 1886.11,1142.69 1888.5,1144C 1885.34,1146.93 1885.34,1149.6 1888.5,1152C 1886.52,1152.61 1886.19,1153.61 1887.5,1155C 1886.41,1160.46 1884.74,1165.79 1882.5,1171C 1883.54,1173.41 1883.54,1175.74 1882.5,1178C 1883.31,1178.31 1883.97,1178.81 1884.5,1179.5C 1883.17,1181.17 1881.83,1182.83 1880.5,1184.5C 1881.42,1186.79 1881.42,1189.12 1880.5,1191.5C 1877.8,1191.38 1877.13,1192.38 1878.5,1194.5C 1875.83,1197.17 1875.83,1199.83 1878.5,1202.5C 1877.06,1207.46 1875.39,1212.29 1873.5,1217C 1873.91,1217.95 1874.57,1218.61 1875.5,1219C 1873.59,1223.42 1871.59,1227.42 1869.5,1231C 1872.47,1235.06 1872.13,1239.23 1868.5,1243.5C 1868.93,1244.29 1869.26,1245.13 1869.5,1246C 1869.33,1248.3 1867.67,1250.64 1864.5,1253C 1864.94,1254.53 1865.28,1256.03 1865.5,1257.5C 1864.63,1259.41 1863.63,1261.25 1862.5,1263C 1863.67,1263.42 1864.67,1264.09 1865.5,1265C 1864.07,1265.47 1862.9,1266.3 1862,1267.5C 1861.8,1269.4 1860.97,1270.9 1859.5,1272C 1860.31,1272.31 1860.97,1272.81 1861.5,1273.5C 1860.1,1275.98 1859.27,1278.65 1859,1281.5C 1858.25,1282.13 1857.42,1282.63 1856.5,1283C 1856.83,1283.33 1857.17,1283.67 1857.5,1284C 1856.82,1287.04 1855.15,1289.37 1852.5,1291C 1852.75,1293.47 1853.09,1295.97 1853.5,1298.5C 1851.17,1302.46 1848.84,1306.46 1846.5,1310.5C 1848.49,1315.69 1847.16,1319.85 1842.5,1323C 1843.17,1323.67 1843.83,1324.33 1844.5,1325C 1842.19,1329.96 1839.53,1334.63 1836.5,1339C 1836.83,1340 1837.17,1341 1837.5,1342C 1835.3,1345.71 1833.3,1349.54 1831.5,1353.5C 1834.05,1355.22 1833.72,1356.55 1830.5,1357.5C 1830.88,1361.22 1829.21,1364.05 1825.5,1366C 1825.85,1368.05 1825.18,1370.05 1823.5,1372C 1823.91,1376.27 1822.57,1380.1 1819.5,1383.5C 1819.71,1384.09 1820.04,1384.59 1820.5,1385C 1818.7,1385.32 1818.37,1385.98 1819.5,1387C 1818.75,1388.49 1817.91,1388.65 1817,1387.5C 1816.7,1389.44 1815.86,1391.11 1814.5,1392.5C 1814.71,1393.09 1815.04,1393.59 1815.5,1394C 1814.15,1394.77 1813.32,1395.94 1813,1397.5C 1810.4,1399.82 1807.9,1402.32 1805.5,1405C 1806.17,1405.67 1806.83,1406.33 1807.5,1407C 1805.83,1409.33 1804.17,1411.67 1802.5,1414C 1803.02,1414.56 1803.36,1415.23 1803.5,1416C 1801.62,1419.6 1799.62,1423.1 1797.5,1426.5C 1797.71,1427.09 1798.04,1427.59 1798.5,1428C 1796.06,1430.49 1794.06,1433.32 1792.5,1436.5C 1792.71,1437.09 1793.04,1437.59 1793.5,1438C 1791.38,1438.26 1789.72,1439.26 1788.5,1441C 1788.96,1441.41 1789.29,1441.91 1789.5,1442.5C 1788.6,1446.33 1786.43,1447.99 1783,1447.5C 1782.27,1450.23 1782.44,1452.9 1783.5,1455.5C 1781.36,1457.81 1779.86,1460.47 1779,1463.5C 1774.62,1466.21 1771.79,1470.04 1770.5,1475C 1769.55,1475.62 1768.72,1475.45 1768,1474.5C 1767.55,1476.52 1766.72,1478.35 1765.5,1480C 1766.48,1482.15 1766.31,1484.31 1765,1486.5C 1762.81,1486.88 1760.64,1488.05 1758.5,1490C 1759.46,1492.54 1759.46,1495.37 1758.5,1498.5C 1756.48,1499.17 1754.82,1500.34 1753.5,1502C 1753.83,1502.33 1754.17,1502.67 1754.5,1503C 1753.5,1503.83 1752.5,1504.67 1751.5,1505.5C 1751.04,1509.26 1749.04,1511.76 1745.5,1513C 1746.64,1513.74 1746.64,1514.57 1745.5,1515.5C 1740.79,1520.47 1736.46,1525.64 1732.5,1531C 1733.86,1533.13 1733.53,1533.63 1731.5,1532.5C 1730,1533.59 1729.66,1534.76 1730.5,1536C 1727.46,1536.36 1727.12,1537.03 1729.5,1538C 1727.91,1538.86 1726.25,1539.53 1724.5,1540C 1725.5,1540.33 1726.5,1540.67 1727.5,1541C 1726.17,1541.67 1726.17,1542.33 1727.5,1543C 1726.1,1544.27 1724.43,1544.77 1722.5,1544.5C 1722.66,1545.87 1722.49,1547.21 1722,1548.5C 1720.48,1551.24 1718.31,1553.24 1715.5,1554.5C 1715.71,1555.09 1716.04,1555.59 1716.5,1556C 1714.96,1557.11 1714.3,1558.61 1714.5,1560.5C 1712.06,1560.12 1711.39,1560.79 1712.5,1562.5C 1710.62,1564.87 1708.29,1566.71 1705.5,1568C 1706.65,1570.56 1705.65,1571.89 1702.5,1572C 1703.83,1572.67 1703.83,1573.33 1702.5,1574C 1700.49,1575.63 1698.49,1576.47 1696.5,1576.5C 1695.11,1578.17 1694.78,1579.84 1695.5,1581.5C 1694.09,1582.81 1692.42,1583.64 1690.5,1584C 1691.52,1585.05 1691.68,1586.22 1691,1587.5C 1689.67,1588.17 1688.33,1588.83 1687,1589.5C 1684.48,1596.89 1679.98,1601.89 1673.5,1604.5C 1672.75,1605.74 1672.42,1607.07 1672.5,1608.5C 1671.45,1608.35 1670.45,1608.52 1669.5,1609C 1668.17,1609.67 1668.17,1610.33 1669.5,1611C 1667.5,1612 1665.5,1613 1663.5,1614C 1663.96,1614.41 1664.29,1614.91 1664.5,1615.5C 1662.18,1619.5 1658.84,1622.33 1654.5,1624C 1655.35,1625.56 1654.68,1626.56 1652.5,1627C 1652.83,1627.33 1653.17,1627.67 1653.5,1628C 1652.75,1629.49 1651.91,1629.65 1651,1628.5C 1649.72,1632.09 1647.72,1635.09 1645,1637.5C 1644.67,1636.83 1644.33,1636.17 1644,1635.5C 1641.27,1639.56 1637.94,1642.9 1634,1645.5C 1633.23,1647.94 1631.73,1649.77 1629.5,1651C 1629.83,1651.33 1630.17,1651.67 1630.5,1652C 1629,1652.58 1627.67,1653.42 1626.5,1654.5C 1625.36,1655.43 1625.36,1656.26 1626.5,1657C 1624.5,1657.67 1623.17,1659 1622.5,1661C 1621.45,1661.49 1620.45,1661.33 1619.5,1660.5C 1618.67,1661.5 1617.83,1662.5 1617,1663.5C 1616.28,1662.55 1615.45,1662.38 1614.5,1663C 1611.54,1668.8 1607.21,1672.96 1601.5,1675.5C 1601.33,1676.82 1601.66,1677.99 1602.5,1679C 1600.08,1680.21 1597.75,1681.38 1595.5,1682.5C 1592.48,1679.48 1589.82,1676.15 1587.5,1672.5C 1589.65,1672.61 1589.98,1671.94 1588.5,1670.5C 1590.33,1667.49 1592.99,1665.66 1596.5,1665C 1596.17,1664.67 1595.83,1664.33 1595.5,1664C 1596.7,1663.1 1597.53,1661.93 1598,1660.5C 1598.56,1661.02 1599.23,1661.36 1600,1661.5C 1601.7,1658.63 1604.2,1657.3 1607.5,1657.5C 1607.37,1655.35 1607.87,1653.35 1609,1651.5C 1610.02,1650.37 1610.68,1650.7 1611,1652.5C 1612.57,1651.02 1613.91,1649.35 1615,1647.5C 1615.33,1647.83 1615.67,1648.17 1616,1648.5C 1616.47,1646.23 1617.47,1644.23 1619,1642.5C 1619.67,1641.17 1620.33,1641.17 1621,1642.5C 1621.63,1640.47 1622.8,1638.8 1624.5,1637.5C 1626.59,1638.79 1627.92,1638.12 1628.5,1635.5C 1627.58,1633.22 1628.58,1632.05 1631.5,1632C 1632.3,1630.23 1633.47,1628.73 1635,1627.5C 1635.33,1628.17 1635.67,1628.83 1636,1629.5C 1636.33,1627.83 1636.67,1626.17 1637,1624.5C 1637.85,1622.88 1638.85,1622.54 1640,1623.5C 1644.73,1619.91 1648.39,1614.91 1651,1608.5C 1651.41,1608.96 1651.91,1609.29 1652.5,1609.5C 1658.16,1605.21 1662.66,1599.88 1666,1593.5C 1666.41,1593.96 1666.91,1594.29 1667.5,1594.5C 1668.85,1593.05 1670.52,1592.38 1672.5,1592.5C 1676.67,1586.82 1679.84,1580.49 1682,1573.5C 1684.5,1572.33 1686.33,1570.5 1687.5,1568C 1690,1566.92 1692.33,1565.59 1694.5,1564C 1693.29,1562.89 1693.29,1561.72 1694.5,1560.5C 1696.51,1558.99 1698.17,1557.16 1699.5,1555C 1700.45,1554.38 1701.28,1554.55 1702,1555.5C 1702.48,1554.55 1702.65,1553.55 1702.5,1552.5C 1704.2,1552.66 1705.87,1552.49 1707.5,1552C 1706.59,1550.3 1706.26,1548.47 1706.5,1546.5C 1707.55,1546.65 1708.55,1546.48 1709.5,1546C 1709.17,1545.67 1708.83,1545.33 1708.5,1545C 1709.89,1543.83 1710.73,1542.33 1711,1540.5C 1712.51,1539.74 1713.85,1538.74 1715,1537.5C 1719.31,1529.34 1723.98,1522.01 1729,1515.5C 1732.11,1516.67 1732.28,1516.17 1729.5,1514C 1732.6,1509.93 1735.6,1505.93 1738.5,1502C 1738.17,1501.67 1737.83,1501.33 1737.5,1501C 1742.39,1494.5 1747.39,1488.16 1752.5,1482C 1752.17,1481.67 1751.83,1481.33 1751.5,1481C 1754.12,1475.77 1757.45,1471.11 1761.5,1467C 1762.5,1466.67 1763.5,1466.33 1764.5,1466C 1763.48,1465.48 1762.82,1464.65 1762.5,1463.5C 1763.06,1458.9 1764.23,1458.57 1766,1462.5C 1766.32,1460.94 1767.15,1459.77 1768.5,1459C 1767.94,1457.43 1768.61,1456.1 1770.5,1455C 1768.85,1450.61 1770.02,1447.11 1774,1444.5C 1776.14,1438.22 1779.31,1432.55 1783.5,1427.5C 1788.23,1418.08 1792.23,1408.75 1795.5,1399.5C 1796.68,1399.72 1797.68,1399.39 1798.5,1398.5C 1799.63,1395.93 1800.47,1393.26 1801,1390.5C 1802.98,1389.46 1803.48,1388.12 1802.5,1386.5C 1803.63,1383.18 1805.29,1380.18 1807.5,1377.5C 1807.29,1376.91 1806.96,1376.41 1806.5,1376C 1807.83,1375.67 1809.17,1375.33 1810.5,1375C 1809.94,1374.28 1809.61,1373.44 1809.5,1372.5C 1810.74,1370.31 1811.58,1367.98 1812,1365.5C 1812.75,1364.87 1813.58,1364.37 1814.5,1364C 1813.45,1362.61 1813.28,1361.11 1814,1359.5C 1814.33,1359.83 1814.67,1360.17 1815,1360.5C 1817.68,1359.11 1817.85,1357.77 1815.5,1356.5C 1815.6,1352.35 1817.6,1349.85 1821.5,1349C 1821.04,1348.59 1820.71,1348.09 1820.5,1347.5C 1822.72,1340.94 1825.38,1334.6 1828.5,1328.5C 1827.94,1326.76 1827.61,1325.1 1827.5,1323.5C 1830.91,1316.01 1834.75,1308.68 1839,1301.5C 1839.63,1297.59 1840.8,1293.92 1842.5,1290.5C 1841.5,1290.5 1840.5,1290.5 1839.5,1290.5C 1840.29,1286.48 1841.95,1282.81 1844.5,1279.5C 1844.39,1278.56 1844.06,1277.72 1843.5,1277C 1846.67,1272.83 1848.67,1268.17 1849.5,1263C 1848.37,1261.98 1848.7,1261.32 1850.5,1261C 1849.55,1260.28 1849.38,1259.45 1850,1258.5C 1853.36,1257.26 1853.19,1256.42 1849.5,1256C 1851.17,1252.91 1852.83,1249.91 1854.5,1247C 1854.33,1245.88 1854,1244.72 1853.5,1243.5C 1855.03,1242.39 1856.03,1240.89 1856.5,1239C 1856.19,1232.76 1857.85,1226.92 1861.5,1221.5C 1861.4,1218.27 1861.06,1215.1 1860.5,1212C 1863.02,1206.16 1865.02,1200.16 1866.5,1194C 1865.95,1192.6 1865.62,1191.27 1865.5,1190C 1866.11,1187.94 1867.11,1187.11 1868.5,1187.5C 1867.71,1185.31 1867.38,1182.98 1867.5,1180.5C 1868.16,1177.19 1868.66,1173.86 1869,1170.5C 1872.24,1166.44 1873.08,1162.27 1871.5,1158C 1872.17,1156.33 1872.83,1154.67 1873.5,1153C 1872.1,1150.93 1872.44,1149.09 1874.5,1147.5C 1874,1146.28 1873.67,1145.12 1873.5,1144C 1874.31,1143.69 1874.97,1143.19 1875.5,1142.5C 1874.83,1141.17 1874.17,1139.83 1873.5,1138.5C 1874.83,1137.17 1876.17,1135.83 1877.5,1134.5C 1875.99,1132.03 1876.33,1129.86 1878.5,1128C 1877.57,1126.81 1876.9,1125.47 1876.5,1124C 1878.8,1120.43 1878.8,1116.76 1876.5,1113C 1877.51,1111.83 1878.51,1110.67 1879.5,1109.5C 1878.76,1103.16 1878.42,1096.5 1878.5,1089.5C 1879.03,1088.81 1879.69,1088.31 1880.5,1088C 1879.8,1084.31 1879.47,1080.64 1879.5,1077C 1880.17,1076.33 1880.83,1075.67 1881.5,1075C 1879.09,1071.75 1879.09,1068.41 1881.5,1065C 1880.26,1061.05 1881.26,1057.72 1884.5,1055C 1883.17,1054.33 1881.83,1053.67 1880.5,1053C 1881.17,1052.67 1881.83,1052.33 1882.5,1052C 1880.96,1048.76 1881.3,1045.76 1883.5,1043C 1881.25,1040.98 1880.92,1038.65 1882.5,1036C 1881.83,1034.67 1881.17,1033.33 1880.5,1032C 1881.42,1030.19 1882.26,1030.36 1883,1032.5C 1883.33,1029.82 1882.5,1027.49 1880.5,1025.5C 1881.12,1021.99 1881.79,1018.49 1882.5,1015C 1881.89,1011.61 1881.55,1008.11 1881.5,1004.5C 1882.38,1003.45 1883.05,1002.29 1883.5,1001C 1879.99,997.283 1879.66,993.283 1882.5,989C 1882,988.5 1881.5,988 1881,987.5C 1880.69,984.628 1880.19,981.795 1879.5,979C 1880.61,974.152 1880.28,969.152 1878.5,964C 1879.17,963.333 1879.83,962.667 1880.5,962C 1879.02,958.117 1877.68,954.117 1876.5,950C 1878.89,944.45 1878.56,938.95 1875.5,933.5C 1876.17,932.167 1876.83,930.833 1877.5,929.5C 1876.6,926.303 1875.6,923.136 1874.5,920C 1875.81,917.717 1876.48,915.551 1876.5,913.5C 1874.78,909.472 1872.78,905.638 1870.5,902C 1871.17,901.333 1871.83,900.667 1872.5,900C 1869.86,896.64 1869.86,894.14 1872.5,892.5C 1871.29,891.28 1871.29,890.113 1872.5,889C 1871.83,888.667 1871.17,888.333 1870.5,888C 1870.62,886.732 1870.95,885.398 1871.5,884C 1870.58,883.626 1869.75,883.126 1869,882.5C 1868.65,880.782 1868.15,879.115 1867.5,877.5C 1868,876.284 1868.33,875.117 1868.5,874C 1865.83,873.333 1865.83,872.667 1868.5,872C 1867.36,871.259 1867.36,870.425 1868.5,869.5C 1866.85,869.198 1865.51,867.864 1864.5,865.5C 1865.89,865.891 1866.89,865.058 1867.5,863C 1866.38,862.751 1865.38,862.251 1864.5,861.5C 1864.83,859.5 1865.17,857.5 1865.5,855.5C 1864.97,854.808 1864.31,854.308 1863.5,854C 1864.23,851.876 1864.89,849.709 1865.5,847.5C 1865.06,846.494 1864.4,846.494 1863.5,847.5C 1862.78,845.222 1861.62,843.889 1860,843.5C 1859.06,840.653 1859.56,838.153 1861.5,836C 1860.17,834 1858.83,832 1857.5,830C 1857.83,829.667 1858.17,829.333 1858.5,829C 1856.88,826.63 1855.88,823.964 1855.5,821C 1856.42,819.85 1856.42,818.85 1855.5,818C 1856.17,817.333 1856.83,816.667 1857.5,816C 1856.89,814.173 1855.23,812.84 1852.5,812C 1853.1,810.938 1853.43,809.772 1853.5,808.5C 1852.77,806.124 1851.44,804.124 1849.5,802.5C 1850,801.284 1850.33,800.117 1850.5,799C 1849.04,793.113 1846.71,788.113 1843.5,784C 1845.3,782.016 1846.3,780.016 1846.5,778C 1844.67,777.727 1843.17,776.893 1842,775.5C 1841.84,773.324 1841,771.491 1839.5,770C 1839.75,767.532 1840.09,765.032 1840.5,762.5C 1839.68,761.614 1838.68,761.281 1837.5,761.5C 1837.66,759.143 1837.5,756.81 1837,754.5C 1834.83,750.122 1833.33,745.455 1832.5,740.5C 1831.88,738.343 1830.22,736.51 1827.5,735C 1828.69,733.981 1829.69,732.814 1830.5,731.5C 1829.61,730.41 1828.61,730.41 1827.5,731.5C 1827.17,730.833 1826.83,730.167 1826.5,729.5C 1827.94,727.655 1827.6,726.489 1825.5,726C 1826.52,724.951 1826.68,723.784 1826,722.5C 1824.47,721.271 1823.3,719.771 1822.5,718C 1823.63,716.984 1823.3,716.317 1821.5,716C 1822.52,714.951 1822.68,713.784 1822,712.5C 1821.67,713.167 1821.33,713.833 1821,714.5C 1819.21,712.996 1818.71,711.329 1819.5,709.5C 1817.77,707.201 1816.43,704.701 1815.5,702C 1816.02,701.439 1816.36,700.772 1816.5,700C 1815.26,698.349 1814.42,696.515 1814,694.5C 1811.95,693.733 1810.45,692.4 1809.5,690.5C 1810.07,688.646 1810.41,686.813 1810.5,685C 1808.77,683.274 1806.77,681.941 1804.5,681C 1805.17,679.333 1805.83,677.667 1806.5,676C 1804.82,674.823 1803.49,673.323 1802.5,671.5C 1801.83,672.5 1801.17,673.5 1800.5,674.5C 1796.68,674.331 1793.51,675.997 1791,679.5C 1787.12,679.257 1783.29,679.257 1779.5,679.5C 1778.68,681.287 1777.68,682.954 1776.5,684.5C 1775.57,685.641 1774.74,685.641 1774,684.5C 1773.67,685.833 1773.33,687.167 1773,688.5C 1772.44,687.978 1771.77,687.645 1771,687.5C 1769.52,688.978 1768.02,690.478 1766.5,692C 1765.22,692.684 1764.05,692.517 1763,691.5C 1757.48,696.55 1751.64,699.217 1745.5,699.5C 1742.25,702.583 1738.58,705.083 1734.5,707C 1736.9,707.805 1736.73,708.638 1734,709.5C 1733.69,708.692 1733.19,708.025 1732.5,707.5C 1731.19,708.313 1730.02,709.313 1729,710.5C 1727.02,709.184 1725.52,709.684 1724.5,712C 1725.71,712.893 1725.71,713.726 1724.5,714.5C 1723.28,715.711 1722.11,715.711 1721,714.5C 1720.69,715.308 1720.19,715.975 1719.5,716.5C 1718,713.869 1717.33,714.203 1717.5,717.5C 1715.8,717.966 1714.3,717.966 1713,717.5C 1712.58,719.291 1711.58,720.624 1710,721.5C 1707.91,721.255 1705.91,721.255 1704,721.5C 1701.42,722.833 1699.25,724.666 1697.5,727C 1696.55,727.617 1695.72,727.451 1695,726.5C 1694.67,727.167 1694.33,727.833 1694,728.5C 1692.93,727.72 1691.76,727.887 1690.5,729C 1692.3,729.317 1692.63,729.984 1691.5,731C 1688.91,731.226 1686.41,731.726 1684,732.5C 1683.67,732.167 1683.33,731.833 1683,731.5C 1682.06,733.061 1680.89,734.395 1679.5,735.5C 1678.26,734.754 1676.93,734.421 1675.5,734.5C 1675.53,736.582 1674.86,738.416 1673.5,740C 1670.89,740.639 1668.55,741.806 1666.5,743.5C 1663.59,741.666 1661.26,742.166 1659.5,745C 1660.83,745.667 1660.83,746.333 1659.5,747C 1656.28,748.278 1652.95,749.111 1649.5,749.5C 1649.47,752.656 1647.8,754.322 1644.5,754.5C 1641.21,751.987 1639.54,752.987 1639.5,757.5C 1637.53,753.565 1635.53,749.565 1633.5,745.5C 1635.17,745.5 1636.83,745.5 1638.5,745.5C 1638.28,744.325 1638.61,743.325 1639.5,742.5C 1642.84,740.775 1646.01,738.775 1649,736.5C 1649.33,736.833 1649.67,737.167 1650,737.5C 1651.1,735.606 1652.43,734.939 1654,735.5C 1659.04,732.391 1664.21,729.391 1669.5,726.5C 1670.83,727.833 1672.17,727.833 1673.5,726.5C 1675.51,723.62 1677.68,721.62 1680,720.5C 1681.34,721.214 1682.68,720.88 1684,719.5C 1685.05,720.517 1686.22,720.684 1687.5,720C 1687.04,719.586 1686.71,719.086 1686.5,718.5C 1688.48,717.018 1690.32,715.351 1692,713.5C 1692.33,713.833 1692.67,714.167 1693,714.5C 1694.46,711.79 1696.46,711.124 1699,712.5C 1700,711.167 1701,709.833 1702,708.5C 1702.33,709.167 1702.67,709.833 1703,710.5C 1703.85,708.875 1704.85,708.542 1706,709.5C 1708.14,706.789 1710.8,704.789 1714,703.5C 1714.33,703.833 1714.67,704.167 1715,704.5C 1715.71,702.919 1716.54,701.419 1717.5,700C 1719.33,700.167 1721.17,700.333 1723,700.5C 1725.5,699.345 1727.66,697.178 1729.5,694C 1730.77,693.691 1731.93,693.191 1733,692.5C 1734.67,692.833 1736.33,693.167 1738,693.5C 1739.69,690.305 1742.19,687.972 1745.5,686.5C 1747.51,687.349 1749.18,686.682 1750.5,684.5C 1752.47,685.443 1753.97,684.776 1755,682.5C 1755.33,682.833 1755.67,683.167 1756,683.5C 1757.24,681.459 1759.08,680.293 1761.5,680C 1760.54,678.853 1760.88,677.853 1762.5,677C 1765.31,676.402 1767.81,675.235 1770,673.5C 1773.82,674.396 1776.15,672.729 1777,668.5C 1778.33,669.167 1779.67,669.833 1781,670.5C 1783.35,668.524 1786.02,666.191 1789,663.5C 1790,664.167 1791,664.833 1792,665.5C 1792.71,664.027 1793.88,663.36 1795.5,663.5C 1795.5,662.167 1795.5,660.833 1795.5,659.5C 1796.55,659.649 1797.55,659.483 1798.5,659C 1795.29,656.179 1792.29,652.679 1789.5,648.5C 1789.93,647.707 1790.26,646.873 1790.5,646C 1789.17,643.667 1787.83,641.333 1786.5,639C 1786.64,638.228 1786.98,637.561 1787.5,637C 1785.4,631.906 1782.74,627.572 1779.5,624C 1780.5,623.667 1781.5,623.333 1782.5,623C 1781.06,622.781 1779.73,622.281 1778.5,621.5C 1779.83,620.38 1780.33,619.047 1780,617.5C 1778.02,617.512 1775.86,617.178 1773.5,616.5C 1773.58,614.077 1772.58,612.244 1770.5,611C 1771.25,608.742 1771.25,606.742 1770.5,605C 1768.75,604.529 1767.09,603.862 1765.5,603C 1766.17,602.667 1766.83,602.333 1767.5,602C 1764.11,599.715 1762.44,596.548 1762.5,592.5C 1761.45,592.649 1760.45,592.483 1759.5,592C 1759.83,591.667 1760.17,591.333 1760.5,591C 1759.87,588.2 1759.21,585.366 1758.5,582.5C 1757.83,583.167 1757.17,583.833 1756.5,584.5C 1751.34,582.178 1749.34,578.178 1750.5,572.5C 1748.39,572.321 1746.73,571.321 1745.5,569.5C 1741.78,562.941 1737.45,556.775 1732.5,551C 1733.17,550.333 1733.83,549.667 1734.5,549C 1729.71,544.674 1725.71,540.341 1722.5,536C 1722.83,535.667 1723.17,535.333 1723.5,535C 1721.05,534.606 1719.05,533.44 1717.5,531.5C 1717.46,529.678 1717.8,527.678 1718.5,525.5C 1717.02,525.762 1715.69,525.429 1714.5,524.5C 1715.03,523.808 1715.69,523.308 1716.5,523C 1714,521.92 1711.67,520.586 1709.5,519C 1709.83,518.667 1710.17,518.333 1710.5,518C 1709.81,516.933 1709.31,515.766 1709,514.5C 1707.33,513.498 1706.16,512.332 1705.5,511C 1706.34,509.334 1705.84,509.167 1704,510.5C 1702.62,507.494 1700.78,504.827 1698.5,502.5C 1698.71,501.914 1699.04,501.414 1699.5,501C 1698,500.167 1696.83,499 1696,497.5C 1694.64,498.38 1693.14,498.714 1691.5,498.5C 1691.28,497.325 1691.61,496.325 1692.5,495.5C 1692.83,496.167 1693.17,496.833 1693.5,497.5C 1694.58,496.635 1694.75,495.635 1694,494.5C 1691.87,493.745 1690.2,492.412 1689,490.5C 1688.26,491.641 1687.43,491.641 1686.5,490.5C 1685.72,489.271 1685.22,487.938 1685,486.5C 1682.01,485.724 1681.18,484.057 1682.5,481.5C 1678.81,478.309 1674.98,475.309 1671,472.5C 1671.99,470.08 1671.65,467.747 1670,465.5C 1669.59,465.957 1669.09,466.291 1668.5,466.5C 1666.73,465.965 1666.4,465.131 1667.5,464C 1664.6,459.44 1661.1,455.606 1657,452.5C 1655.44,453.345 1654.44,452.679 1654,450.5C 1653.26,451.641 1652.43,451.641 1651.5,450.5C 1650.9,449.284 1650.74,447.951 1651,446.5C 1649.93,447.28 1648.76,447.113 1647.5,446C 1647.83,445.667 1648.17,445.333 1648.5,445C 1647.23,441.851 1644.9,439.851 1641.5,439C 1642.73,437.817 1642.73,436.651 1641.5,435.5C 1638.01,433.289 1634.68,430.955 1631.5,428.5C 1631.71,427.914 1632.04,427.414 1632.5,427C 1629.96,426.072 1628.96,424.238 1629.5,421.5C 1626.48,419.57 1623.15,418.237 1619.5,417.5C 1619.67,416.178 1619.34,415.011 1618.5,414C 1615.82,413.751 1613.49,412.751 1611.5,411C 1611.83,410.667 1612.17,410.333 1612.5,410C 1611.11,408.829 1610.27,407.329 1610,405.5C 1609.67,405.833 1609.33,406.167 1609,406.5C 1607.64,403.23 1605.14,401.563 1601.5,401.5C 1601.65,400.448 1601.48,399.448 1601,398.5C 1600.67,398.833 1600.33,399.167 1600,399.5C 1598.08,397.881 1597.58,396.048 1598.5,394C 1596.74,392.436 1594.74,391.269 1592.5,390.5C 1591.72,389.271 1591.22,387.938 1591,386.5C 1590.67,387.167 1590.33,387.833 1590,388.5C 1589.78,387.062 1589.28,385.729 1588.5,384.5C 1587.19,385.46 1585.85,385.294 1584.5,384C 1583.36,380.463 1581.19,379.296 1578,380.5C 1575.6,378.051 1573.1,375.717 1570.5,373.5C 1568.83,372.667 1567.17,371.833 1565.5,371C 1564.41,368.278 1562.07,366.278 1558.5,365C 1558.83,364.667 1559.17,364.333 1559.5,364C 1558.96,361.891 1557.96,361.391 1556.5,362.5C 1554.78,361.045 1552.78,360.212 1550.5,360C 1551.61,358.187 1550.94,357.354 1548.5,357.5C 1548.5,356.5 1548.5,355.5 1548.5,354.5C 1544.19,354.697 1542.19,352.697 1542.5,348.5C 1539.21,347.626 1535.88,346.959 1532.5,346.5C 1532.67,345.178 1532.34,344.011 1531.5,343C 1529.67,341.833 1527.83,340.667 1526,339.5C 1525.67,339.833 1525.33,340.167 1525,340.5C 1524.27,337.712 1522.44,336.212 1519.5,336C 1519.96,335.586 1520.29,335.086 1520.5,334.5C 1516.72,332.532 1513.22,330.198 1510,327.5C 1509.23,327.645 1508.56,327.978 1508,328.5C 1504.4,324.896 1500.4,320.896 1496,316.5C 1494.6,317.051 1493.27,317.384 1492,317.5C 1491.5,316.333 1490.67,315.5 1489.5,315C 1489.83,314.667 1490.17,314.333 1490.5,314C 1486.22,313.714 1483.38,311.547 1482,307.5C 1481.67,307.833 1481.33,308.167 1481,308.5C 1480.67,307.5 1480.33,306.5 1480,305.5C 1474.08,305.623 1468.91,302.956 1464.5,297.5C 1463.28,296.289 1462.11,296.289 1461,297.5C 1460.52,296.552 1460.35,295.552 1460.5,294.5C 1457.93,294.656 1455.43,294.322 1453,293.5C 1448.99,289.993 1445.16,286.327 1441.5,282.5C 1438.84,283.095 1436.67,282.095 1435,279.5C 1432.67,280.833 1430.33,280.833 1428,279.5C 1425.44,276.795 1422.27,275.128 1418.5,274.5C 1416.5,270.63 1413.5,269.63 1409.5,271.5C 1406.9,269.283 1404.4,266.949 1402,264.5C 1401.59,264.957 1401.09,265.291 1400.5,265.5C 1397.87,263.454 1394.87,262.287 1391.5,262C 1389.68,261.021 1388.51,259.521 1388,257.5C 1386.02,258.816 1384.52,258.316 1383.5,256C 1380.67,255.299 1378.01,254.299 1375.5,253C 1371.18,253.433 1367.85,251.933 1365.5,248.5C 1362.9,249.239 1360.56,249.239 1358.5,248.5C 1357.7,246.922 1357.2,245.256 1357,243.5C 1355.76,243.461 1354.42,243.795 1353,244.5C 1348.05,243.596 1343.38,241.929 1339,239.5C 1338.23,239.645 1337.56,239.978 1337,240.5C 1334.46,239.124 1334.29,237.957 1336.5,237C 1334.95,235.786 1333.78,234.286 1333,232.5C 1330.22,236.056 1327.06,236.223 1323.5,233C 1323.83,232.667 1324.17,232.333 1324.5,232C 1320.14,231.147 1315.81,230.313 1311.5,229.5C 1311.58,226.513 1310.41,225.847 1308,227.5C 1304.92,225.128 1301.58,224.462 1298,225.5C 1292.34,223.509 1287.34,220.509 1283,216.5C 1277.59,217.231 1272.26,217.231 1267,216.5C 1265.67,214.5 1264,212.833 1262,211.5C 1261.44,212.022 1260.77,212.355 1260,212.5C 1256.58,209.605 1253.08,209.272 1249.5,211.5C 1246.11,210.132 1242.78,208.799 1239.5,207.5C 1238.25,202.574 1235.59,201.574 1231.5,204.5C 1226.81,204.055 1222.31,203.055 1218,201.5C 1215.72,201.55 1213.39,201.883 1211,202.5C 1209.62,201.449 1208.62,200.116 1208,198.5C 1202.82,197.436 1197.49,197.436 1192,198.5C 1191.63,197.584 1191.13,196.75 1190.5,196C 1185.47,194.775 1180.64,193.275 1176,191.5C 1175.33,192.578 1174.33,193.245 1173,193.5C 1170.48,191.729 1167.65,190.395 1164.5,189.5C 1160.67,189.279 1156.84,189.946 1153,191.5C 1150.75,189.413 1148.09,188.079 1145,187.5C 1144.05,188.022 1143.22,188.689 1142.5,189.5C 1139.65,189.167 1137.15,188.167 1135,186.5C 1133.64,187.38 1132.14,187.714 1130.5,187.5C 1130.65,186.448 1130.48,185.448 1130,184.5C 1125.94,187.626 1121.61,187.626 1117,184.5C 1116.33,185.167 1115.67,185.833 1115,186.5C 1112.59,185.644 1111.42,184.31 1111.5,182.5C 1110.17,183.167 1108.83,183.833 1107.5,184.5C 1105.63,183.233 1103.8,183.233 1102,184.5C 1101.69,183.692 1101.19,183.025 1100.5,182.5C 1097.35,183.212 1094.19,183.879 1091,184.5C 1089.74,184.241 1088.74,183.574 1088,182.5C 1085.16,183.326 1082.16,183.66 1079,183.5C 1075.83,181.197 1072.83,181.53 1070,184.5C 1070.13,187.095 1069.96,189.595 1069.5,192C 1070.36,192.689 1071.02,193.522 1071.5,194.5C 1069.97,198.437 1068.63,202.437 1067.5,206.5C 1068.03,207.192 1068.69,207.692 1069.5,208C 1069.5,209.333 1069.5,210.667 1069.5,212C 1067.11,212.691 1067.11,213.691 1069.5,215C 1069.02,219.81 1069.02,224.31 1069.5,228.5C 1068.83,229.833 1068.17,231.167 1067.5,232.5C 1070.09,236.245 1069.76,239.745 1066.5,243C 1067.31,245.088 1068.31,247.088 1069.5,249C 1068.38,249.249 1067.38,249.749 1066.5,250.5C 1070.2,251.258 1070.53,253.424 1067.5,257C 1068.21,260.131 1068.87,263.298 1069.5,266.5C 1069.14,268.733 1068.14,270.566 1066.5,272C 1067.67,273.993 1068.67,275.993 1069.5,278C 1068.83,278.667 1068.17,279.333 1067.5,280C 1068.71,281.113 1068.71,282.28 1067.5,283.5C 1068.17,284.167 1068.83,284.833 1069.5,285.5C 1067.49,288.013 1066.16,290.846 1065.5,294C 1066.33,298.709 1067.66,302.876 1069.5,306.5C 1068.25,308.001 1067.25,309.668 1066.5,311.5C 1067.17,312.167 1067.83,312.833 1068.5,313.5C 1068.08,316.603 1067.08,319.436 1065.5,322C 1066.17,322.667 1066.83,323.333 1067.5,324C 1066.02,326.247 1065.35,328.747 1065.5,331.5C 1066.43,335.417 1066.76,339.251 1066.5,343C 1065.67,343.915 1064.67,344.581 1063.5,345C 1064.87,346.242 1065.87,347.742 1066.5,349.5C 1063.99,352.532 1063.99,355.532 1066.5,358.5C 1066.2,360.815 1065.37,360.815 1064,358.5C 1063.33,361.167 1063.33,363.833 1064,366.5C 1064.91,365.346 1065.75,365.513 1066.5,367C 1064.8,369.587 1063.8,372.421 1063.5,375.5C 1070.17,375.334 1076.84,375.5 1083.5,376C 1085.38,376.198 1087.05,376.698 1088.5,377.5C 1071.67,376.959 1055.01,376.292 1038.5,375.5C 1043.1,375.8 1047.6,375.467 1052,374.5C 1052.68,373.216 1052.52,372.049 1051.5,371C 1052.5,370 1053.5,369 1054.5,368C 1050.11,364.145 1049.44,359.645 1052.5,354.5C 1052.64,351.478 1052.31,348.478 1051.5,345.5C 1053.12,290.176 1054.46,234.842 1055.5,179.5C 1056.15,178.909 1056.82,178.243 1057.5,177.5C 1057.56,178.365 1057.9,179.365 1058.5,180.5C 1060.79,181.215 1062.95,181.549 1065,181.5C 1066.42,180.54 1067.92,179.707 1069.5,179C 1068.35,178.086 1068.51,177.253 1070,176.5C 1070.67,179.167 1071.33,179.167 1072,176.5C 1073.2,177.471 1073.7,178.471 1073.5,179.5C 1075.07,178.691 1076.74,178.357 1078.5,178.5C 1078.5,179.5 1078.5,180.5 1078.5,181.5C 1084.36,181.213 1090.36,181.046 1096.5,181C 1097.13,180.25 1097.63,179.416 1098,178.5C 1099.45,179.614 1100.78,180.614 1102,181.5C 1102.27,179.899 1102.77,178.399 1103.5,177C 1101.42,174.205 1099.25,174.372 1097,177.5C 1095.01,175.594 1095.51,174.427 1098.5,174C 1095.72,173.934 1093.56,172.768 1092,170.5C 1090.34,170.324 1088.67,170.991 1087,172.5C 1085.85,171.542 1084.85,171.875 1084,173.5C 1082.61,172.185 1081.61,172.519 1081,174.5C 1079.89,173.289 1078.72,173.289 1077.5,174.5C 1076.61,173.675 1076.28,172.675 1076.5,171.5C 1077.64,168.572 1078.97,168.238 1080.5,170.5C 1087.77,169.279 1095.27,169.279 1103,170.5C 1104.08,172.394 1105.41,172.727 1107,171.5C 1107.78,172.728 1108.78,173.728 1110,174.5C 1114.69,174.459 1119.35,174.459 1124,174.5C 1124.33,173.833 1124.67,173.167 1125,172.5C 1128.59,173.327 1132.26,173.993 1136,174.5C 1139.91,172.879 1142.41,174.212 1143.5,178.5C 1148.55,176.432 1153.38,177.099 1158,180.5C 1159.37,180.757 1160.87,180.423 1162.5,179.5C 1163.65,179.818 1164.48,180.484 1165,181.5C 1168.29,180.517 1171.46,179.183 1174.5,177.5C 1176.76,179.545 1179.26,181.211 1182,182.5C 1184.95,181.596 1187.61,180.93 1190,180.5C 1191.71,181.308 1192.54,182.641 1192.5,184.5C 1197.02,184.068 1201.52,184.734 1206,186.5C 1207.44,186.441 1208.77,186.108 1210,185.5C 1212.01,188.258 1214.01,188.592 1216,186.5C 1219.49,188.676 1223.16,190.676 1227,192.5C 1229.84,189.629 1231.5,190.295 1232,194.5C 1234.63,193.337 1237.3,192.337 1240,191.5C 1241.67,192.833 1243.33,194.167 1245,195.5C 1245.41,195.043 1245.91,194.709 1246.5,194.5C 1250.18,195.888 1253.68,197.555 1257,199.5C 1257.41,199.043 1257.91,198.709 1258.5,198.5C 1260.57,200.642 1263.07,201.976 1266,202.5C 1266.33,201.5 1266.67,200.5 1267,199.5C 1270.36,200.582 1273.36,202.249 1276,204.5C 1277.75,203.826 1279.42,203.493 1281,203.5C 1282.97,205.387 1285.3,206.72 1288,207.5C 1288.33,207.167 1288.67,206.833 1289,206.5C 1289.48,207.448 1289.65,208.448 1289.5,209.5C 1291.77,210.735 1293.61,210.402 1295,208.5C 1298.52,209.995 1302.35,211.661 1306.5,213.5C 1306.91,212.738 1307.08,211.738 1307,210.5C 1308.4,213.167 1310.4,215.167 1313,216.5C 1315.6,216.101 1318.1,216.101 1320.5,216.5C 1324.77,217.803 1328.94,219.47 1333,221.5C 1334,221.167 1335,220.833 1336,220.5C 1337.9,222.53 1340.06,224.197 1342.5,225.5C 1343.86,226.198 1345.03,226.198 1346,225.5C 1347.55,229.769 1350.39,231.269 1354.5,230C 1356.29,232.846 1358.13,233.012 1360,230.5C 1361.44,232.275 1362.44,234.275 1363,236.5C 1368.54,235.014 1373.04,237.014 1376.5,242.5C 1377.09,242.291 1377.59,241.957 1378,241.5C 1380.31,241.955 1382.31,242.955 1384,244.5C 1384.33,243.833 1384.67,243.167 1385,242.5C 1387.97,244.401 1391.14,245.901 1394.5,247C 1395.9,250.953 1398.07,251.453 1401,248.5C 1401.48,249.448 1401.65,250.448 1401.5,251.5C 1403.78,251.608 1405.78,252.441 1407.5,254C 1410.03,257.301 1413.2,259.801 1417,261.5C 1418.89,258.61 1419.73,258.944 1419.5,262.5C 1423.61,264.099 1427.77,265.766 1432,267.5C 1433.05,266.483 1434.22,266.316 1435.5,267C 1439.73,269.211 1443.73,271.711 1447.5,274.5C 1448.17,274.167 1448.83,273.833 1449.5,273.5C 1451.39,276.131 1453.39,278.631 1455.5,281C 1457.1,281.273 1458.6,281.773 1460,282.5C 1461.02,281.366 1461.68,281.699 1462,283.5C 1463.05,282.483 1464.22,282.316 1465.5,283C 1464.66,284.666 1465.16,284.833 1467,283.5C 1468.45,285.403 1470.11,287.07 1472,288.5C 1472.33,288.167 1472.67,287.833 1473,287.5C 1474.88,289.043 1476.38,290.876 1477.5,293C 1478.5,293.333 1479.5,293.667 1480.5,294C 1480.17,294.333 1479.83,294.667 1479.5,295C 1480.5,295.5 1481.5,296 1482.5,296.5C 1483.31,294.724 1484.48,294.057 1486,294.5C 1487.29,295.854 1487.46,297.188 1486.5,298.5C 1489.25,300.432 1491.75,300.765 1494,299.5C 1496.14,303.395 1499.14,306.395 1503,308.5C 1503.41,308.043 1503.91,307.709 1504.5,307.5C 1507.36,308.667 1509.36,310.667 1510.5,313.5C 1513.98,314.207 1517.31,315.373 1520.5,317C 1523.31,321.634 1527.31,325.134 1532.5,327.5C 1533.44,327.392 1534.28,327.059 1535,326.5C 1537.11,331.722 1540.11,334.389 1544,334.5C 1545.5,336.833 1547,339.167 1548.5,341.5C 1550.06,342.347 1551.56,342.014 1553,340.5C 1556.95,345.325 1560.78,349.659 1564.5,353.5C 1567.06,354.751 1569.72,355.584 1572.5,356C 1573.94,362.141 1577.61,365.141 1583.5,365C 1585.22,366.87 1586.22,369.037 1586.5,371.5C 1589.71,372.44 1592.71,373.94 1595.5,376C 1596.83,377 1596.83,378 1595.5,379C 1596.55,379.492 1597.55,379.326 1598.5,378.5C 1599.47,380.636 1601.14,381.803 1603.5,382C 1605.91,384.688 1607.91,387.521 1609.5,390.5C 1610.83,390.5 1612.17,390.5 1613.5,390.5C 1613.34,391.873 1613.51,393.207 1614,394.5C 1617.82,397.743 1621.82,400.743 1626,403.5C 1626.62,404.449 1626.45,405.282 1625.5,406C 1627.43,406.251 1629.27,406.751 1631,407.5C 1632.37,410.876 1634.53,413.71 1637.5,416C 1637.17,416.333 1636.83,416.667 1636.5,417C 1638.18,417.034 1639.68,417.201 1641,417.5C 1642,419.5 1643,421.5 1644,423.5C 1644.33,423.167 1644.67,422.833 1645,422.5C 1646.84,426.183 1649.17,429.516 1652,432.5C 1654.56,431.354 1655.89,432.354 1656,435.5C 1657.4,434.949 1658.73,434.616 1660,434.5C 1661.56,437.253 1663.39,439.92 1665.5,442.5C 1666.75,444.323 1667.41,446.323 1667.5,448.5C 1671.58,450.266 1674.58,453.266 1676.5,457.5C 1677.67,458.584 1679,459.417 1680.5,460C 1679.83,460.333 1679.17,460.667 1678.5,461C 1680.33,461.928 1680.67,463.094 1679.5,464.5C 1683.91,467.056 1688.41,470.39 1693,474.5C 1694.61,476.597 1695.78,478.93 1696.5,481.5C 1697.84,482.902 1698.68,482.569 1699,480.5C 1699.64,481.646 1700.48,482.646 1701.5,483.5C 1700.67,484.451 1700.51,485.451 1701,486.5C 1701.33,486.167 1701.67,485.833 1702,485.5C 1703.69,488.584 1706.19,490.584 1709.5,491.5C 1710.26,496.269 1712.59,500.102 1716.5,503C 1716.17,503.333 1715.83,503.667 1715.5,504C 1716.5,504.333 1717.5,504.667 1718.5,505C 1718.17,505.333 1717.83,505.667 1717.5,506C 1718.67,506.5 1719.5,507.333 1720,508.5C 1720.33,508.167 1720.67,507.833 1721,507.5C 1721.87,510.113 1722.37,512.78 1722.5,515.5C 1723.87,515.343 1725.21,515.51 1726.5,516C 1727.83,517 1727.83,518 1726.5,519C 1728.3,519.317 1728.63,519.984 1727.5,521C 1728.45,521.483 1729.45,521.649 1730.5,521.5C 1730.19,524.888 1731.52,527.388 1734.5,529C 1734.04,529.414 1733.71,529.914 1733.5,530.5C 1735.3,531.695 1736.3,533.362 1736.5,535.5C 1741.54,536.638 1743.87,539.638 1743.5,544.5C 1744.43,543.359 1745.26,543.359 1746,544.5C 1746.68,545.784 1746.52,546.951 1745.5,548C 1747.51,550.533 1750.01,552.366 1753,553.5C 1752.8,555.126 1752.8,556.793 1753,558.5C 1755.51,559.96 1758.01,562.126 1760.5,565C 1760.17,565.333 1759.83,565.667 1759.5,566C 1760.1,567.825 1760.77,569.659 1761.5,571.5C 1761.83,570.833 1762.17,570.167 1762.5,569.5C 1764.12,572.28 1765.28,575.28 1766,578.5C 1768.6,582.159 1771.1,585.826 1773.5,589.5C 1774.32,590.386 1775.32,590.719 1776.5,590.5C 1775.68,594.158 1777.01,596.491 1780.5,597.5C 1781.12,600.439 1782.12,603.439 1783.5,606.5C 1786.57,608.709 1787.23,611.543 1785.5,615C 1787.48,617.233 1789.64,618.4 1792,618.5C 1792.29,620.952 1792.96,623.285 1794,625.5C 1798.37,632.293 1801.71,639.96 1804,648.5C 1806.63,649.473 1808.63,651.14 1810,653.5C 1810.33,653.167 1810.67,652.833 1811,652.5C 1814.35,655.207 1816.02,654.207 1816,649.5C 1817.25,648.789 1818.42,647.956 1819.5,647C 1822.54,647.07 1825.04,645.57 1827,642.5C 1827.67,643.167 1828.33,643.833 1829,644.5C 1829.93,642.665 1831.09,642.332 1832.5,643.5C 1833.38,642.24 1834.38,641.074 1835.5,640C 1843.84,637.756 1851.01,633.589 1857,627.5C 1857.33,628.167 1857.67,628.833 1858,629.5C 1858.75,627.668 1859.75,626.001 1861,624.5C 1861.33,625.5 1861.67,626.5 1862,627.5C 1862.95,625.545 1864.29,623.878 1866,622.5C 1866.33,623.167 1866.67,623.833 1867,624.5C 1868.39,620.718 1870.89,619.551 1874.5,621C 1876.6,618.765 1878.77,616.598 1881,614.5C 1883.63,615.784 1885.8,615.118 1887.5,612.5C 1888.52,615.028 1889.68,615.028 1891,612.5C 1892.08,614.657 1893.25,614.824 1894.5,613C 1893.17,611.16 1893.33,610.66 1895,611.5C 1895.5,610.333 1896.33,609.5 1897.5,609C 1897.17,608.667 1896.83,608.333 1896.5,608C 1898.86,606.758 1900.86,605.258 1902.5,603.5 Z"/></g>
<g><path style="opacity:0.004" fill="#fefffe" d="M 237.5,945.5 C 236.761,945.631 236.094,945.464 235.5,945C 236.437,944.308 237.103,944.475 237.5,945.5 Z"/></g>
<g><path style="opacity:0.004" fill="#fefffe" d="M 237.5,945.5 C 238.492,945.328 239.158,945.662 239.5,946.5C 238.508,946.672 237.842,946.338 237.5,945.5 Z"/></g>
<g><path style="opacity:0.004" fill="#fefffe" d="M 239.5,946.5 C 240.492,946.328 241.158,946.662 241.5,947.5C 240.508,947.672 239.842,947.338 239.5,946.5 Z"/></g>
<g><path style="opacity:0.004" fill="#fefffe" d="M 241.5,947.5 C 242.492,947.328 243.158,947.662 243.5,948.5C 242.508,948.672 241.842,948.338 241.5,947.5 Z"/></g>
<g><path style="opacity:0.004" fill="#fefffe" d="M 168.5,977.5 C 169.833,978.167 169.833,978.167 168.5,977.5 Z"/></g>
<g><path style="opacity:0.031" fill="#f0fefe" d="M 243.5,948.5 C 270.046,960.772 296.379,973.605 322.5,987C 325.009,988.421 327.343,990.088 329.5,992C 300.171,978.836 271.505,964.336 243.5,948.5 Z"/></g>
<g><path style="opacity:0.004" fill="#00fffe" d="M 172.5,979.5 C 173.833,980.167 173.833,980.167 172.5,979.5 Z"/></g>
<g><path style="opacity:0.004" fill="#00fffe" d="M 174.5,980.5 C 175.833,981.167 175.833,981.167 174.5,980.5 Z"/></g>
<g><path style="opacity:0.004" fill="#fefffe" d="M 210.5,997.5 C 211.833,998.167 211.833,998.167 210.5,997.5 Z"/></g>
<g><path style="opacity:0.004" fill="#fefffe" d="M 214.5,999.5 C 213.761,999.631 213.094,999.464 212.5,999C 213.437,998.308 214.103,998.475 214.5,999.5 Z"/></g>
<g><path style="opacity:0.004" fill="#fefffe" d="M 214.5,999.5 C 215.492,999.328 216.158,999.662 216.5,1000.5C 215.508,1000.67 214.842,1000.34 214.5,999.5 Z"/></g>
<g><path style="opacity:0.004" fill="#fefffe" d="M 216.5,1000.5 C 217.492,1000.33 218.158,1000.66 218.5,1001.5C 217.508,1001.67 216.842,1001.34 216.5,1000.5 Z"/></g>
<g><path style="opacity:0.004" fill="#fefffe" d="M 218.5,1001.5 C 219.492,1001.33 220.158,1001.66 220.5,1002.5C 219.508,1002.67 218.842,1002.34 218.5,1001.5 Z"/></g>
<g><path style="opacity:0.013" fill="#f2feff" d="M 220.5,1002.5 C 255.951,1017.89 290.951,1034.39 325.5,1052C 327.061,1052.94 328.395,1054.11 329.5,1055.5C 292.75,1039.22 256.416,1021.55 220.5,1002.5 Z"/></g>
<g><path style="opacity:1" fill="#9ca9ab" d="M 2002.5,1005.5 C 2003.88,1031.85 2003.54,1058.18 2001.5,1084.5C 2002.19,1058.17 2002.52,1031.84 2002.5,1005.5 Z"/></g>
</svg>
