<?xml version="1.0" encoding="UTF-8"?>
<!DOCTYPE svg PUBLIC "-//W3C//DTD SVG 1.1//EN" "http://www.w3.org/Graphics/SVG/1.1/DTD/svg11.dtd">
<svg xmlns="http://www.w3.org/2000/svg" version="1.1" width="2048px" height="2048px" style="shape-rendering:geometricPrecision; text-rendering:geometricPrecision; image-rendering:optimizeQuality; fill-rule:evenodd; clip-rule:evenodd" xmlns:xlink="http://www.w3.org/1999/xlink">
<g><path style="opacity:1" fill="#e8fbfe" d="M 1091.5,68.5 C 1092.83,68.5 1094.17,68.5 1095.5,68.5C 1125.72,71.6726 1156.06,75.006 1186.5,78.5C 1433.82,119.851 1635.99,237.184 1793,430.5C 1835.95,484.355 1872.79,542.355 1903.5,604.5C 1872.43,621.369 1841.09,637.702 1809.5,653.5C 1805.78,648.888 1803.28,643.554 1802,637.5C 1798.9,636.116 1797.73,633.949 1798.5,631C 1794.64,627.772 1792.47,623.606 1792,618.5C 1789.64,618.4 1787.48,617.233 1785.5,615C 1787.23,611.543 1786.57,608.709 1783.5,606.5C 1782.12,603.439 1781.12,600.439 1780.5,597.5C 1777.01,596.491 1775.68,594.158 1776.5,590.5C 1775.32,590.719 1774.32,590.386 1773.5,589.5C 1771.1,585.826 1768.6,582.159 1766,578.5C 1765.28,575.28 1764.12,572.28 1762.5,569.5C 1762.17,570.167 1761.83,570.833 1761.5,571.5C 1760.77,569.659 1760.1,567.825 1759.5,566C 1759.83,565.667 1760.17,565.333 1760.5,565C 1758.01,562.126 1755.51,559.96 1753,558.5C 1752.8,556.793 1752.8,555.126 1753,553.5C 1750.01,552.366 1747.51,550.533 1745.5,548C 1746.52,546.951 1746.68,545.784 1746,544.5C 1745.26,543.359 1744.43,543.359 1743.5,544.5C 1743.87,539.638 1741.54,536.638 1736.5,535.5C 1736.3,533.362 1735.3,531.695 1733.5,530.5C 1733.71,529.914 1734.04,529.414 1734.5,529C 1731.52,527.388 1730.19,524.888 1730.5,521.5C 1729.45,521.649 1728.45,521.483 1727.5,521C 1728.63,519.984 1728.3,519.317 1726.5,519C 1727.83,518 1727.83,517 1726.5,516C 1725.21,515.51 1723.87,515.343 1722.5,515.5C 1722.37,512.78 1721.87,510.113 1721,507.5C 1720.67,507.833 1720.33,508.167 1720,508.5C 1719.5,507.333 1718.67,506.5 1717.5,506C 1717.83,505.667 1718.17,505.333 1718.5,505C 1717.5,504.667 1716.5,504.333 1715.5,504C 1715.83,503.667 1716.17,503.333 1716.5,503C 1712.59,500.102 1710.26,496.269 1709.5,491.5C 1706.19,490.584 1703.69,488.584 1702,485.5C 1701.67,485.833 1701.33,486.167 1701,486.5C 1700.51,485.451 1700.67,484.451 1701.5,483.5C 1700.48,482.646 1699.64,481.646 1699,480.5C 1698.68,482.569 1697.84,482.902 1696.5,481.5C 1695.78,478.93 1694.61,476.597 1693,474.5C 1688.41,470.39 1683.91,467.056 1679.5,464.5C 1680.67,463.094 1680.33,461.928 1678.5,461C 1679.17,460.667 1679.83,460.333 1680.5,460C 1679,459.417 1677.67,458.584 1676.5,457.5C 1674.58,453.266 1671.58,450.266 1667.5,448.5C 1667.41,446.323 1666.75,444.323 1665.5,442.5C 1663.39,439.92 1661.56,437.253 1660,434.5C 1658.73,434.616 1657.4,434.949 1656,435.5C 1655.89,432.354 1654.56,431.354 1652,432.5C 1649.17,429.516 1646.84,426.183 1645,422.5C 1644.67,422.833 1644.33,423.167 1644,423.5C 1643,421.5 1642,419.5 1641,417.5C 1639.68,417.201 1638.18,417.034 1636.5,417C 1636.83,416.667 1637.17,416.333 1637.5,416C 1634.53,413.71 1632.37,410.876 1631,407.5C 1629.27,406.751 1627.43,406.251 1625.5,406C 1626.45,405.282 1626.62,404.449 1626,403.5C 1621.82,400.743 1617.82,397.743 1614,394.5C 1613.51,393.207 1613.34,391.873 1613.5,390.5C 1612.17,390.5 1610.83,390.5 1609.5,390.5C 1607.91,387.521 1605.91,384.688 1603.5,382C 1601.14,381.803 1599.47,380.636 1598.5,378.5C 1597.55,379.326 1596.55,379.492 1595.5,379C 1596.83,378 1596.83,377 1595.5,376C 1592.71,373.94 1589.71,372.44 1586.5,371.5C 1586.22,369.037 1585.22,366.87 1583.5,365C 1577.61,365.141 1573.94,362.141 1572.5,356C 1569.72,355.584 1567.06,354.751 1564.5,353.5C 1560.78,349.659 1556.95,345.325 1553,340.5C 1551.56,342.014 1550.06,342.347 1548.5,341.5C 1547,339.167 1545.5,336.833 1544,334.5C 1540.11,334.389 1537.11,331.722 1535,326.5C 1534.28,327.059 1533.44,327.392 1532.5,327.5C 1527.31,325.134 1523.31,321.634 1520.5,317C 1517.31,315.373 1513.98,314.207 1510.5,313.5C 1509.36,310.667 1507.36,308.667 1504.5,307.5C 1503.91,307.709 1503.41,308.043 1503,308.5C 1499.14,306.395 1496.14,303.395 1494,299.5C 1491.75,300.765 1489.25,300.432 1486.5,298.5C 1487.46,297.188 1487.29,295.854 1486,294.5C 1484.48,294.057 1483.31,294.724 1482.5,296.5C 1481.5,296 1480.5,295.5 1479.5,295C 1479.83,294.667 1480.17,294.333 1480.5,294C 1479.5,293.667 1478.5,293.333 1477.5,293C 1476.38,290.876 1474.88,289.043 1473,287.5C 1472.67,287.833 1472.33,288.167 1472,288.5C 1470.11,287.07 1468.45,285.403 1467,283.5C 1465.16,284.833 1464.66,284.666 1465.5,283C 1464.22,282.316 1463.05,282.483 1462,283.5C 1461.68,281.699 1461.02,281.366 1460,282.5C 1458.6,281.773 1457.1,281.273 1455.5,281C 1453.39,278.631 1451.39,276.131 1449.5,273.5C 1448.83,273.833 1448.17,274.167 1447.5,274.5C 1443.73,271.711 1439.73,269.211 1435.5,267C 1434.22,266.316 1433.05,266.483 1432,267.5C 1427.77,265.766 1423.61,264.099 1419.5,262.5C 1419.73,258.944 1418.89,258.61 1417,261.5C 1413.2,259.801 1410.03,257.301 1407.5,254C 1405.78,252.441 1403.78,251.608 1401.5,251.5C 1401.65,250.448 1401.48,249.448 1401,248.5C 1398.07,251.453 1395.9,250.953 1394.5,247C 1391.14,245.901 1387.97,244.401 1385,242.5C 1384.67,243.167 1384.33,243.833 1384,244.5C 1382.31,242.955 1380.31,241.955 1378,241.5C 1377.59,241.957 1377.09,242.291 1376.5,242.5C 1373.04,237.014 1368.54,235.014 1363,236.5C 1362.44,234.275 1361.44,232.275 1360,230.5C 1358.13,233.012 1356.29,232.846 1354.5,230C 1350.39,231.269 1347.55,229.769 1346,225.5C 1345.03,226.198 1343.86,226.198 1342.5,225.5C 1340.06,224.197 1337.9,222.53 1336,220.5C 1335,220.833 1334,221.167 1333,221.5C 1328.94,219.47 1324.77,217.803 1320.5,216.5C 1318.1,216.101 1315.6,216.101 1313,216.5C 1310.4,215.167 1308.4,213.167 1307,210.5C 1307.08,211.738 1306.91,212.738 1306.5,213.5C 1302.35,211.661 1298.52,209.995 1295,208.5C 1293.61,210.402 1291.77,210.735 1289.5,209.5C 1289.65,208.448 1289.48,207.448 1289,206.5C 1288.67,206.833 1288.33,207.167 1288,207.5C 1285.3,206.72 1282.97,205.387 1281,203.5C 1279.42,203.493 1277.75,203.826 1276,204.5C 1273.36,202.249 1270.36,200.582 1267,199.5C 1266.67,200.5 1266.33,201.5 1266,202.5C 1263.07,201.976 1260.57,200.642 1258.5,198.5C 1257.91,198.709 1257.41,199.043 1257,199.5C 1253.68,197.555 1250.18,195.888 1246.5,194.5C 1245.91,194.709 1245.41,195.043 1245,195.5C 1243.33,194.167 1241.67,192.833 1240,191.5C 1237.3,192.337 1234.63,193.337 1232,194.5C 1231.5,190.295 1229.84,189.629 1227,192.5C 1223.16,190.676 1219.49,188.676 1216,186.5C 1214.01,188.592 1212.01,188.258 1210,185.5C 1208.77,186.108 1207.44,186.441 1206,186.5C 1201.52,184.734 1197.02,184.068 1192.5,184.5C 1192.54,182.641 1191.71,181.308 1190,180.5C 1187.61,180.93 1184.95,181.596 1182,182.5C 1179.26,181.211 1176.76,179.545 1174.5,177.5C 1171.46,179.183 1168.29,180.517 1165,181.5C 1164.48,180.484 1163.65,179.818 1162.5,179.5C 1160.87,180.423 1159.37,180.757 1158,180.5C 1153.38,177.099 1148.55,176.432 1143.5,178.5C 1142.41,174.212 1139.91,172.879 1136,174.5C 1132.26,173.993 1128.59,173.327 1125,172.5C 1124.67,173.167 1124.33,173.833 1124,174.5C 1119.35,174.459 1114.69,174.459 1110,174.5C 1108.78,173.728 1107.78,172.728 1107,171.5C 1105.41,172.727 1104.08,172.394 1103,170.5C 1102.59,170.957 1102.09,171.291 1101.5,171.5C 1098.41,170.515 1095.24,169.849 1092,169.5C 1088.12,169.357 1084.29,169.691 1080.5,170.5C 1078.97,168.342 1077.47,168.675 1076,171.5C 1070.66,169.061 1069.16,165.061 1071.5,159.5C 1068.83,157.5 1068.83,155.5 1071.5,153.5C 1070.25,151.958 1070.25,150.458 1071.5,149C 1070.83,148.667 1070.17,148.333 1069.5,148C 1072.08,145.597 1072.08,143.097 1069.5,140.5C 1069.92,139.328 1070.59,138.328 1071.5,137.5C 1070.83,136.167 1070.17,134.833 1069.5,133.5C 1070.17,133.167 1070.83,132.833 1071.5,132.5C 1069.93,128.959 1070.27,125.292 1072.5,121.5C 1070.25,119.086 1069.92,116.42 1071.5,113.5C 1070.83,112.833 1070.17,112.167 1069.5,111.5C 1071.03,106.891 1071.53,101.891 1071,96.5C 1067.89,93.4947 1068.39,90.9947 1072.5,89C 1070,85.7584 1070,82.4251 1072.5,79C 1070.02,75.8783 1070.02,72.7117 1072.5,69.5C 1078.8,68.5037 1085.13,68.1703 1091.5,68.5 Z"/></g>
<g><path style="opacity:0.098" fill="#eaf9f9" d="M 995.5,67.5 C 997.167,67.5 998.833,67.5 1000.5,67.5C 999.811,77.8609 998.145,77.8609 995.5,67.5 Z"/></g>
<g><path style="opacity:1" fill="#bdcccf" d="M 1095.5,68.5 C 1126.18,69.9461 1156.51,73.2794 1186.5,78.5C 1156.06,75.006 1125.72,71.6726 1095.5,68.5 Z"/></g>
<g><path style="opacity:1" fill="#e8fbfe" d="M 1798.5,659.5 C 1749.35,685.576 1700.02,711.409 1650.5,737C 1645.14,740.349 1640.14,744.182 1635.5,748.5C 1557.02,589.23 1434.69,478.064 1268.5,415C 1210.27,393.988 1150.27,381.488 1088.5,377.5C 1087.05,376.698 1085.38,376.198 1083.5,376C 1076.84,375.5 1070.17,375.334 1063.5,375.5C 1063.8,372.421 1064.8,369.587 1066.5,367C 1065.75,365.513 1064.91,365.346 1064,366.5C 1063.33,363.833 1063.33,361.167 1064,358.5C 1065.37,360.815 1066.2,360.815 1066.5,358.5C 1063.99,355.532 1063.99,352.532 1066.5,349.5C 1065.87,347.742 1064.87,346.242 1063.5,345C 1064.67,344.581 1065.67,343.915 1066.5,343C 1066.76,339.251 1066.43,335.417 1065.5,331.5C 1065.35,328.747 1066.02,326.247 1067.5,324C 1066.83,323.333 1066.17,322.667 1065.5,322C 1067.08,319.436 1068.08,316.603 1068.5,313.5C 1067.83,312.833 1067.17,312.167 1066.5,311.5C 1067.25,309.668 1068.25,308.001 1069.5,306.5C 1067.66,302.876 1066.33,298.709 1065.5,294C 1066.16,290.846 1067.49,288.013 1069.5,285.5C 1068.83,284.833 1068.17,284.167 1067.5,283.5C 1068.71,282.28 1068.71,281.113 1067.5,280C 1068.17,279.333 1068.83,278.667 1069.5,278C 1068.67,275.993 1067.67,273.993 1066.5,272C 1068.14,270.566 1069.14,268.733 1069.5,266.5C 1068.87,263.298 1068.21,260.131 1067.5,257C 1068.86,255.416 1069.53,253.582 1069.5,251.5C 1068.47,250.926 1067.47,250.593 1066.5,250.5C 1067.38,249.749 1068.38,249.249 1069.5,249C 1068.31,247.088 1067.31,245.088 1066.5,243C 1067.31,240.895 1068.31,238.895 1069.5,237C 1068.68,235.2 1068.01,233.366 1067.5,231.5C 1068.39,230.739 1069.06,229.739 1069.5,228.5C 1069.02,224.31 1069.02,219.81 1069.5,215C 1067.11,213.691 1067.11,212.691 1069.5,212C 1069.5,210.667 1069.5,209.333 1069.5,208C 1068.69,207.692 1068.03,207.192 1067.5,206.5C 1068.63,202.437 1069.97,198.437 1071.5,194.5C 1071.02,193.522 1070.36,192.689 1069.5,192C 1069.62,189.211 1069.95,186.378 1070.5,183.5C 1073.5,181.291 1076.33,181.291 1079,183.5C 1082.16,183.66 1085.16,183.326 1088,182.5C 1088.74,183.574 1089.74,184.241 1091,184.5C 1094.19,183.879 1097.35,183.212 1100.5,182.5C 1101.19,183.025 1101.69,183.692 1102,184.5C 1103.8,183.233 1105.63,183.233 1107.5,184.5C 1108.83,183.833 1110.17,183.167 1111.5,182.5C 1111.42,184.31 1112.59,185.644 1115,186.5C 1115.67,185.833 1116.33,185.167 1117,184.5C 1121.61,187.626 1125.94,187.626 1130,184.5C 1130.48,185.448 1130.65,186.448 1130.5,187.5C 1132.14,187.714 1133.64,187.38 1135,186.5C 1137.15,188.167 1139.65,189.167 1142.5,189.5C 1143.22,188.689 1144.05,188.022 1145,187.5C 1148.09,188.079 1150.75,189.413 1153,191.5C 1156.84,189.946 1160.67,189.279 1164.5,189.5C 1167.65,190.395 1170.48,191.729 1173,193.5C 1174.33,193.245 1175.33,192.578 1176,191.5C 1180.64,193.275 1185.47,194.775 1190.5,196C 1191.13,196.75 1191.63,197.584 1192,198.5C 1197.49,197.436 1202.82,197.436 1208,198.5C 1208.62,200.116 1209.62,201.449 1211,202.5C 1213.39,201.883 1215.72,201.55 1218,201.5C 1222.31,203.055 1226.81,204.055 1231.5,204.5C 1235.59,201.574 1238.25,202.574 1239.5,207.5C 1242.78,208.799 1246.11,210.132 1249.5,211.5C 1253.08,209.272 1256.58,209.605 1260,212.5C 1260.77,212.355 1261.44,212.022 1262,211.5C 1264,212.833 1265.67,214.5 1267,216.5C 1272.26,217.231 1277.59,217.231 1283,216.5C 1287.34,220.509 1292.34,223.509 1298,225.5C 1301.58,224.462 1304.92,225.128 1308,227.5C 1310.41,225.847 1311.58,226.513 1311.5,229.5C 1315.81,230.313 1320.14,231.147 1324.5,232C 1324.17,232.333 1323.83,232.667 1323.5,233C 1327.06,236.223 1330.22,236.056 1333,232.5C 1333.78,234.286 1334.95,235.786 1336.5,237C 1334.29,237.957 1334.46,239.124 1337,240.5C 1337.56,239.978 1338.23,239.645 1339,239.5C 1343.38,241.929 1348.05,243.596 1353,244.5C 1354.42,243.795 1355.76,243.461 1357,243.5C 1357.2,245.256 1357.7,246.922 1358.5,248.5C 1360.56,249.239 1362.9,249.239 1365.5,248.5C 1367.85,251.933 1371.18,253.433 1375.5,253C 1378.01,254.299 1380.67,255.299 1383.5,256C 1384.52,258.316 1386.02,258.816 1388,257.5C 1388.51,259.521 1389.68,261.021 1391.5,262C 1394.87,262.287 1397.87,263.454 1400.5,265.5C 1401.09,265.291 1401.59,264.957 1402,264.5C 1404.4,266.949 1406.9,269.283 1409.5,271.5C 1413.5,269.63 1416.5,270.63 1418.5,274.5C 1422.27,275.128 1425.44,276.795 1428,279.5C 1430.33,280.833 1432.67,280.833 1435,279.5C 1436.67,282.095 1438.84,283.095 1441.5,282.5C 1445.16,286.327 1448.99,289.993 1453,293.5C 1455.43,294.322 1457.93,294.656 1460.5,294.5C 1460.35,295.552 1460.52,296.552 1461,297.5C 1462.11,296.289 1463.28,296.289 1464.5,297.5C 1468.91,302.956 1474.08,305.623 1480,305.5C 1480.33,306.5 1480.67,307.5 1481,308.5C 1481.33,308.167 1481.67,307.833 1482,307.5C 1483.38,311.547 1486.22,313.714 1490.5,314C 1490.17,314.333 1489.83,314.667 1489.5,315C 1490.67,315.5 1491.5,316.333 1492,317.5C 1493.27,317.384 1494.6,317.051 1496,316.5C 1500.4,320.896 1504.4,324.896 1508,328.5C 1508.56,327.978 1509.23,327.645 1510,327.5C 1513.22,330.198 1516.72,332.532 1520.5,334.5C 1520.29,335.086 1519.96,335.586 1519.5,336C 1522.44,336.212 1524.27,337.712 1525,340.5C 1525.33,340.167 1525.67,339.833 1526,339.5C 1527.83,340.667 1529.67,341.833 1531.5,343C 1532.34,344.011 1532.67,345.178 1532.5,346.5C 1535.88,346.959 1539.21,347.626 1542.5,348.5C 1542.19,352.697 1544.19,354.697 1548.5,354.5C 1548.5,355.5 1548.5,356.5 1548.5,357.5C 1550.94,357.354 1551.61,358.187 1550.5,360C 1552.78,360.212 1554.78,361.045 1556.5,362.5C 1557.96,361.391 1558.96,361.891 1559.5,364C 1559.17,364.333 1558.83,364.667 1558.5,365C 1562.07,366.278 1564.41,368.278 1565.5,371C 1567.17,371.833 1568.83,372.667 1570.5,373.5C 1573.1,375.717 1575.6,378.051 1578,380.5C 1581.19,379.296 1583.36,380.463 1584.5,384C 1585.85,385.294 1587.19,385.46 1588.5,384.5C 1589.28,385.729 1589.78,387.062 1590,388.5C 1590.33,387.833 1590.67,387.167 1591,386.5C 1591.22,387.938 1591.72,389.271 1592.5,390.5C 1594.74,391.269 1596.74,392.436 1598.5,394C 1597.58,396.048 1598.08,397.881 1600,399.5C 1600.33,399.167 1600.67,398.833 1601,398.5C 1601.48,399.448 1601.65,400.448 1601.5,401.5C 1605.14,401.563 1607.64,403.23 1609,406.5C 1609.33,406.167 1609.67,405.833 1610,405.5C 1610.27,407.329 1611.11,408.829 1612.5,410C 1612.17,410.333 1611.83,410.667 1611.5,411C 1613.49,412.751 1615.82,413.751 1618.5,414C 1619.34,415.011 1619.67,416.178 1619.5,417.5C 1623.15,418.237 1626.48,419.57 1629.5,421.5C 1628.96,424.238 1629.96,426.072 1632.5,427C 1632.04,427.414 1631.71,427.914 1631.5,428.5C 1634.68,430.955 1638.01,433.289 1641.5,435.5C 1642.73,436.651 1642.73,437.817 1641.5,439C 1644.9,439.851 1647.23,441.851 1648.5,445C 1648.17,445.333 1647.83,445.667 1647.5,446C 1648.76,447.113 1649.93,447.28 1651,446.5C 1650.74,447.951 1650.9,449.284 1651.5,450.5C 1652.43,451.641 1653.26,451.641 1654,450.5C 1654.44,452.679 1655.44,453.345 1657,452.5C 1661.1,455.606 1664.6,459.44 1667.5,464C 1666.4,465.131 1666.73,465.965 1668.5,466.5C 1669.09,466.291 1669.59,465.957 1670,465.5C 1671.65,467.747 1671.99,470.08 1671,472.5C 1674.98,475.309 1678.81,478.309 1682.5,481.5C 1681.18,484.057 1682.01,485.724 1685,486.5C 1685.22,487.938 1685.72,489.271 1686.5,490.5C 1687.43,491.641 1688.26,491.641 1689,490.5C 1690.2,492.412 1691.87,493.745 1694,494.5C 1694.75,495.635 1694.58,496.635 1693.5,497.5C 1693.17,496.833 1692.83,496.167 1692.5,495.5C 1691.61,496.325 1691.28,497.325 1691.5,498.5C 1693.14,498.714 1694.64,498.38 1696,497.5C 1696.83,499 1698,500.167 1699.5,501C 1699.04,501.414 1698.71,501.914 1698.5,502.5C 1700.78,504.827 1702.62,507.494 1704,510.5C 1705.84,509.167 1706.34,509.334 1705.5,511C 1706.16,512.332 1707.33,513.498 1709,514.5C 1709.31,515.766 1709.81,516.933 1710.5,518C 1710.17,518.333 1709.83,518.667 1709.5,519C 1711.67,520.586 1714,521.92 1716.5,523C 1715.69,523.308 1715.03,523.808 1714.5,524.5C 1715.69,525.429 1717.02,525.762 1718.5,525.5C 1717.8,527.678 1717.46,529.678 1717.5,531.5C 1719.05,533.44 1721.05,534.606 1723.5,535C 1723.17,535.333 1722.83,535.667 1722.5,536C 1725.71,540.341 1729.71,544.674 1734.5,549C 1733.83,549.667 1733.17,550.333 1732.5,551C 1737.45,556.775 1741.78,562.941 1745.5,569.5C 1746.73,571.321 1748.39,572.321 1750.5,572.5C 1749.34,578.178 1751.34,582.178 1756.5,584.5C 1757.17,583.833 1757.83,583.167 1758.5,582.5C 1759.21,585.366 1759.87,588.2 1760.5,591C 1760.17,591.333 1759.83,591.667 1759.5,592C 1760.45,592.483 1761.45,592.649 1762.5,592.5C 1762.44,596.548 1764.11,599.715 1767.5,602C 1766.83,602.333 1766.17,602.667 1765.5,603C 1767.09,603.862 1768.75,604.529 1770.5,605C 1771.25,606.742 1771.25,608.742 1770.5,611C 1772.58,612.244 1773.58,614.077 1773.5,616.5C 1775.86,617.178 1778.02,617.512 1780,617.5C 1780.33,619.047 1779.83,620.38 1778.5,621.5C 1779.73,622.281 1781.06,622.781 1782.5,623C 1781.5,623.333 1780.5,623.667 1779.5,624C 1782.74,627.572 1785.4,631.906 1787.5,637C 1786.98,637.561 1786.64,638.228 1786.5,639C 1787.83,641.333 1789.17,643.667 1790.5,646C 1788.97,648.788 1789.81,650.621 1793,651.5C 1794.9,653.451 1796.73,656.117 1798.5,659.5 Z"/></g>
<g><path style="opacity:0.059" fill="#eefeff" d="M 1035.5,197.5 C 1036.16,200.482 1036.5,203.648 1036.5,207C 1035.78,228.16 1035.28,249.327 1035,270.5C 1033.12,246.19 1033.28,221.856 1035.5,197.5 Z"/></g>
<g><path style="opacity:0.014" fill="#eefcfe" d="M 1051.5,345.5 C 1052.31,348.478 1052.64,351.478 1052.5,354.5C 1049.44,359.645 1050.11,364.145 1054.5,368C 1053.5,369 1052.5,370 1051.5,371C 1052.52,372.049 1052.68,373.216 1052,374.5C 1047.6,375.467 1043.1,375.8 1038.5,375.5C 1040.78,369.83 1041.94,363.83 1042,357.5C 1042.33,347.167 1042.67,336.833 1043,326.5C 1043.33,334.167 1043.67,341.833 1044,349.5C 1044.51,351.878 1045.18,354.212 1046,356.5C 1047,357.833 1048,357.833 1049,356.5C 1050.15,352.896 1050.99,349.229 1051.5,345.5 Z"/></g>
<g><path style="opacity:1" fill="#9cd9e3" d="M 1091.5,68.5 C 1085.13,68.1703 1078.8,68.5037 1072.5,69.5C 1070.02,72.7117 1070.02,75.8783 1072.5,79C 1070,82.4251 1070,85.7584 1072.5,89C 1068.39,90.9947 1067.89,93.4947 1071,96.5C 1071.53,101.891 1071.03,106.891 1069.5,111.5C 1070.17,112.167 1070.83,112.833 1071.5,113.5C 1069.92,116.42 1070.25,119.086 1072.5,121.5C 1070.27,125.292 1069.93,128.959 1071.5,132.5C 1070.83,132.833 1070.17,133.167 1069.5,133.5C 1070.17,134.833 1070.83,136.167 1071.5,137.5C 1070.59,138.328 1069.92,139.328 1069.5,140.5C 1072.08,143.097 1072.08,145.597 1069.5,148C 1070.17,148.333 1070.83,148.667 1071.5,149C 1070.25,150.458 1070.25,151.958 1071.5,153.5C 1068.83,155.5 1068.83,157.5 1071.5,159.5C 1069.16,165.061 1070.66,169.061 1076,171.5C 1077.47,168.675 1078.97,168.342 1080.5,170.5C 1084.29,169.691 1088.12,169.357 1092,169.5C 1095.24,169.849 1098.41,170.515 1101.5,171.5C 1102.09,171.291 1102.59,170.957 1103,170.5C 1104.08,172.394 1105.41,172.727 1107,171.5C 1107.78,172.728 1108.78,173.728 1110,174.5C 1114.69,174.459 1119.35,174.459 1124,174.5C 1124.33,173.833 1124.67,173.167 1125,172.5C 1128.59,173.327 1132.26,173.993 1136,174.5C 1139.91,172.879 1142.41,174.212 1143.5,178.5C 1148.55,176.432 1153.38,177.099 1158,180.5C 1159.37,180.757 1160.87,180.423 1162.5,179.5C 1163.65,179.818 1164.48,180.484 1165,181.5C 1168.29,180.517 1171.46,179.183 1174.5,177.5C 1176.76,179.545 1179.26,181.211 1182,182.5C 1184.95,181.596 1187.61,180.93 1190,180.5C 1191.71,181.308 1192.54,182.641 1192.5,184.5C 1197.02,184.068 1201.52,184.734 1206,186.5C 1207.44,186.441 1208.77,186.108 1210,185.5C 1212.01,188.258 1214.01,188.592 1216,186.5C 1219.49,188.676 1223.16,190.676 1227,192.5C 1229.84,189.629 1231.5,190.295 1232,194.5C 1234.63,193.337 1237.3,192.337 1240,191.5C 1241.67,192.833 1243.33,194.167 1245,195.5C 1245.41,195.043 1245.91,194.709 1246.5,194.5C 1250.18,195.888 1253.68,197.555 1257,199.5C 1257.41,199.043 1257.91,198.709 1258.5,198.5C 1260.57,200.642 1263.07,201.976 1266,202.5C 1266.33,201.5 1266.67,200.5 1267,199.5C 1270.36,200.582 1273.36,202.249 1276,204.5C 1277.75,203.826 1279.42,203.493 1281,203.5C 1282.97,205.387 1285.3,206.72 1288,207.5C 1288.33,207.167 1288.67,206.833 1289,206.5C 1289.48,207.448 1289.65,208.448 1289.5,209.5C 1291.77,210.735 1293.61,210.402 1295,208.5C 1298.52,209.995 1302.35,211.661 1306.5,213.5C 1306.91,212.738 1307.08,211.738 1307,210.5C 1308.4,213.167 1310.4,215.167 1313,216.5C 1315.6,216.101 1318.1,216.101 1320.5,216.5C 1324.77,217.803 1328.94,219.47 1333,221.5C 1334,221.167 1335,220.833 1336,220.5C 1337.9,222.53 1340.06,224.197 1342.5,225.5C 1343.86,226.198 1345.03,226.198 1346,225.5C 1347.55,229.769 1350.39,231.269 1354.5,230C 1356.29,232.846 1358.13,233.012 1360,230.5C 1361.44,232.275 1362.44,234.275 1363,236.5C 1368.54,235.014 1373.04,237.014 1376.5,242.5C 1377.09,242.291 1377.59,241.957 1378,241.5C 1380.31,241.955 1382.31,242.955 1384,244.5C 1384.33,243.833 1384.67,243.167 1385,242.5C 1387.97,244.401 1391.14,245.901 1394.5,247C 1395.9,250.953 1398.07,251.453 1401,248.5C 1401.48,249.448 1401.65,250.448 1401.5,251.5C 1403.78,251.608 1405.78,252.441 1407.5,254C 1410.03,257.301 1413.2,259.801 1417,261.5C 1418.89,258.61 1419.73,258.944 1419.5,262.5C 1423.61,264.099 1427.77,265.766 1432,267.5C 1433.05,266.483 1434.22,266.316 1435.5,267C 1439.73,269.211 1443.73,271.711 1447.5,274.5C 1448.17,274.167 1448.83,273.833 1449.5,273.5C 1451.39,276.131 1453.39,278.631 1455.5,281C 1457.1,281.273 1458.6,281.773 1460,282.5C 1461.02,281.366 1461.68,281.699 1462,283.5C 1463.05,282.483 1464.22,282.316 1465.5,283C 1464.66,284.666 1465.16,284.833 1467,283.5C 1468.45,285.403 1470.11,287.07 1472,288.5C 1472.33,288.167 1472.67,287.833 1473,287.5C 1474.88,289.043 1476.38,290.876 1477.5,293C 1478.5,293.333 1479.5,293.667 1480.5,294C 1480.17,294.333 1479.83,294.667 1479.5,295C 1480.5,295.5 1481.5,296 1482.5,296.5C 1483.31,294.724 1484.48,294.057 1486,294.5C 1487.29,295.854 1487.46,297.188 1486.5,298.5C 1489.25,300.432 1491.75,300.765 1494,299.5C 1496.14,303.395 1499.14,306.395 1503,308.5C 1503.41,308.043 1503.91,307.709 1504.5,307.5C 1507.36,308.667 1509.36,310.667 1510.5,313.5C 1513.98,314.207 1517.31,315.373 1520.5,317C 1523.31,321.634 1527.31,325.134 1532.5,327.5C 1533.44,327.392 1534.28,327.059 1535,326.5C 1537.11,331.722 1540.11,334.389 1544,334.5C 1545.5,336.833 1547,339.167 1548.5,341.5C 1550.06,342.347 1551.56,342.014 1553,340.5C 1556.95,345.325 1560.78,349.659 1564.5,353.5C 1567.06,354.751 1569.72,355.584 1572.5,356C 1573.94,362.141 1577.61,365.141 1583.5,365C 1585.22,366.87 1586.22,369.037 1586.5,371.5C 1589.71,372.44 1592.71,373.94 1595.5,376C 1596.83,377 1596.83,378 1595.5,379C 1596.55,379.492 1597.55,379.326 1598.5,378.5C 1599.47,380.636 1601.14,381.803 1603.5,382C 1605.91,384.688 1607.91,387.521 1609.5,390.5C 1610.83,390.5 1612.17,390.5 1613.5,390.5C 1613.34,391.873 1613.51,393.207 1614,394.5C 1617.82,397.743 1621.82,400.743 1626,403.5C 1626.62,404.449 1626.45,405.282 1625.5,406C 1627.43,406.251 1629.27,406.751 1631,407.5C 1632.37,410.876 1634.53,413.71 1637.5,416C 1637.17,416.333 1636.83,416.667 1636.5,417C 1638.18,417.034 1639.68,417.201 1641,417.5C 1642,419.5 1643,421.5 1644,423.5C 1644.33,423.167 1644.67,422.833 1645,422.5C 1646.84,426.183 1649.17,429.516 1652,432.5C 1654.56,431.354 1655.89,432.354 1656,435.5C 1657.4,434.949 1658.73,434.616 1660,434.5C 1661.56,437.253 1663.39,439.92 1665.5,442.5C 1666.75,444.323 1667.41,446.323 1667.5,448.5C 1671.58,450.266 1674.58,453.266 1676.5,457.5C 1677.67,458.584 1679,459.417 1680.5,460C 1679.83,460.333 1679.17,460.667 1678.5,461C 1680.33,461.928 1680.67,463.094 1679.5,464.5C 1683.91,467.056 1688.41,470.39 1693,474.5C 1694.61,476.597 1695.78,478.93 1696.5,481.5C 1697.84,482.902 1698.68,482.569 1699,480.5C 1699.64,481.646 1700.48,482.646 1701.5,483.5C 1700.67,484.451 1700.51,485.451 1701,486.5C 1701.33,486.167 1701.67,485.833 1702,485.5C 1703.69,488.584 1706.19,490.584 1709.5,491.5C 1710.26,496.269 1712.59,500.102 1716.5,503C 1716.17,503.333 1715.83,503.667 1715.5,504C 1716.5,504.333 1717.5,504.667 1718.5,505C 1718.17,505.333 1717.83,505.667 1717.5,506C 1718.67,506.5 1719.5,507.333 1720,508.5C 1720.33,508.167 1720.67,507.833 1721,507.5C 1721.87,510.113 1722.37,512.78 1722.5,515.5C 1723.87,515.343 1725.21,515.51 1726.5,516C 1727.83,517 1727.83,518 1726.5,519C 1728.3,519.317 1728.63,519.984 1727.5,521C 1728.45,521.483 1729.45,521.649 1730.5,521.5C 1730.19,524.888 1731.52,527.388 1734.5,529C 1734.04,529.414 1733.71,529.914 1733.5,530.5C 1735.3,531.695 1736.3,533.362 1736.5,535.5C 1741.54,536.638 1743.87,539.638 1743.5,544.5C 1744.43,543.359 1745.26,543.359 1746,544.5C 1746.68,545.784 1746.52,546.951 1745.5,548C 1747.51,550.533 1750.01,552.366 1753,553.5C 1752.8,555.126 1752.8,556.793 1753,558.5C 1755.51,559.96 1758.01,562.126 1760.5,565C 1760.17,565.333 1759.83,565.667 1759.5,566C 1760.1,567.825 1760.77,569.659 1761.5,571.5C 1761.83,570.833 1762.17,570.167 1762.5,569.5C 1764.12,572.28 1765.28,575.28 1766,578.5C 1768.6,582.159 1771.1,585.826 1773.5,589.5C 1774.32,590.386 1775.32,590.719 1776.5,590.5C 1775.68,594.158 1777.01,596.491 1780.5,597.5C 1781.12,600.439 1782.12,603.439 1783.5,606.5C 1786.57,608.709 1787.23,611.543 1785.5,615C 1787.48,617.233 1789.64,618.4 1792,618.5C 1792.47,623.606 1794.64,627.772 1798.5,631C 1797.73,633.949 1798.9,636.116 1802,637.5C 1803.28,643.554 1805.78,648.888 1809.5,653.5C 1806.03,655.738 1802.36,657.738 1798.5,659.5C 1796.73,656.117 1794.9,653.451 1793,651.5C 1789.81,650.621 1788.97,648.788 1790.5,646C 1789.17,643.667 1787.83,641.333 1786.5,639C 1786.64,638.228 1786.98,637.561 1787.5,637C 1785.4,631.906 1782.74,627.572 1779.5,624C 1780.5,623.667 1781.5,623.333 1782.5,623C 1781.06,622.781 1779.73,622.281 1778.5,621.5C 1779.83,620.38 1780.33,619.047 1780,617.5C 1778.02,617.512 1775.86,617.178 1773.5,616.5C 1773.58,614.077 1772.58,612.244 1770.5,611C 1771.25,608.742 1771.25,606.742 1770.5,605C 1768.75,604.529 1767.09,603.862 1765.5,603C 1766.17,602.667 1766.83,602.333 1767.5,602C 1764.11,599.715 1762.44,596.548 1762.5,592.5C 1761.45,592.649 1760.45,592.483 1759.5,592C 1759.83,591.667 1760.17,591.333 1760.5,591C 1759.87,588.2 1759.21,585.366 1758.5,582.5C 1757.83,583.167 1757.17,583.833 1756.5,584.5C 1751.34,582.178 1749.34,578.178 1750.5,572.5C 1748.39,572.321 1746.73,571.321 1745.5,569.5C 1741.78,562.941 1737.45,556.775 1732.5,551C 1733.17,550.333 1733.83,549.667 1734.5,549C 1729.71,544.674 1725.71,540.341 1722.5,536C 1722.83,535.667 1723.17,535.333 1723.5,535C 1721.05,534.606 1719.05,533.44 1717.5,531.5C 1717.46,529.678 1717.8,527.678 1718.5,525.5C 1717.02,525.762 1715.69,525.429 1714.5,524.5C 1715.03,523.808 1715.69,523.308 1716.5,523C 1714,521.92 1711.67,520.586 1709.5,519C 1709.83,518.667 1710.17,518.333 1710.5,518C 1709.81,516.933 1709.31,515.766 1709,514.5C 1707.33,513.498 1706.16,512.332 1705.5,511C 1706.34,509.334 1705.84,509.167 1704,510.5C 1702.62,507.494 1700.78,504.827 1698.5,502.5C 1698.71,501.914 1699.04,501.414 1699.5,501C 1698,500.167 1696.83,499 1696,497.5C 1694.64,498.38 1693.14,498.714 1691.5,498.5C 1691.28,497.325 1691.61,496.325 1692.5,495.5C 1692.83,496.167 1693.17,496.833 1693.5,497.5C 1694.58,496.635 1694.75,495.635 1694,494.5C 1691.87,493.745 1690.2,492.412 1689,490.5C 1688.26,491.641 1687.43,491.641 1686.5,490.5C 1685.72,489.271 1685.22,487.938 1685,486.5C 1682.01,485.724 1681.18,484.057 1682.5,481.5C 1678.81,478.309 1674.98,475.309 1671,472.5C 1671.99,470.08 1671.65,467.747 1670,465.5C 1669.59,465.957 1669.09,466.291 1668.5,466.5C 1666.73,465.965 1666.4,465.131 1667.5,464C 1664.6,459.44 1661.1,455.606 1657,452.5C 1655.44,453.345 1654.44,452.679 1654,450.5C 1653.26,451.641 1652.43,451.641 1651.5,450.5C 1650.9,449.284 1650.74,447.951 1651,446.5C 1649.93,447.28 1648.76,447.113 1647.5,446C 1647.83,445.667 1648.17,445.333 1648.5,445C 1647.23,441.851 1644.9,439.851 1641.5,439C 1642.73,437.817 1642.73,436.651 1641.5,435.5C 1638.01,433.289 1634.68,430.955 1631.5,428.5C 1631.71,427.914 1632.04,427.414 1632.5,427C 1629.96,426.072 1628.96,424.238 1629.5,421.5C 1626.48,419.57 1623.15,418.237 1619.5,417.5C 1619.67,416.178 1619.34,415.011 1618.5,414C 1615.82,413.751 1613.49,412.751 1611.5,411C 1611.83,410.667 1612.17,410.333 1612.5,410C 1611.11,408.829 1610.27,407.329 1610,405.5C 1609.67,405.833 1609.33,406.167 1609,406.5C 1607.64,403.23 1605.14,401.563 1601.5,401.5C 1601.65,400.448 1601.48,399.448 1601,398.5C 1600.67,398.833 1600.33,399.167 1600,399.5C 1598.08,397.881 1597.58,396.048 1598.5,394C 1596.74,392.436 1594.74,391.269 1592.5,390.5C 1591.72,389.271 1591.22,387.938 1591,386.5C 1590.67,387.167 1590.33,387.833 1590,388.5C 1589.78,387.062 1589.28,385.729 1588.5,384.5C 1587.19,385.46 1585.85,385.294 1584.5,384C 1583.36,380.463 1581.19,379.296 1578,380.5C 1575.6,378.051 1573.1,375.717 1570.5,373.5C 1568.83,372.667 1567.17,371.833 1565.5,371C 1564.41,368.278 1562.07,366.278 1558.5,365C 1558.83,364.667 1559.17,364.333 1559.5,364C 1558.96,361.891 1557.96,361.391 1556.5,362.5C 1554.78,361.045 1552.78,360.212 1550.5,360C 1551.61,358.187 1550.94,357.354 1548.5,357.5C 1548.5,356.5 1548.5,355.5 1548.5,354.5C 1544.19,354.697 1542.19,352.697 1542.5,348.5C 1539.21,347.626 1535.88,346.959 1532.5,346.5C 1532.67,345.178 1532.34,344.011 1531.5,343C 1529.67,341.833 1527.83,340.667 1526,339.5C 1525.67,339.833 1525.33,340.167 1525,340.5C 1524.27,337.712 1522.44,336.212 1519.5,336C 1519.96,335.586 1520.29,335.086 1520.5,334.5C 1516.72,332.532 1513.22,330.198 1510,327.5C 1509.23,327.645 1508.56,327.978 1508,328.5C 1504.4,324.896 1500.4,320.896 1496,316.5C 1494.6,317.051 1493.27,317.384 1492,317.5C 1491.5,316.333 1490.67,315.5 1489.5,315C 1489.83,314.667 1490.17,314.333 1490.5,314C 1486.22,313.714 1483.38,311.547 1482,307.5C 1481.67,307.833 1481.33,308.167 1481,308.5C 1480.67,307.5 1480.33,306.5 1480,305.5C 1474.08,305.623 1468.91,302.956 1464.5,297.5C 1463.28,296.289 1462.11,296.289 1461,297.5C 1460.52,296.552 1460.35,295.552 1460.5,294.5C 1457.93,294.656 1455.43,294.322 1453,293.5C 1448.99,289.993 1445.16,286.327 1441.5,282.5C 1438.84,283.095 1436.67,282.095 1435,279.5C 1432.67,280.833 1430.33,280.833 1428,279.5C 1425.44,276.795 1422.27,275.128 1418.5,274.5C 1416.5,270.63 1413.5,269.63 1409.5,271.5C 1406.9,269.283 1404.4,266.949 1402,264.5C 1401.59,264.957 1401.09,265.291 1400.5,265.5C 1397.87,263.454 1394.87,262.287 1391.5,262C 1389.68,261.021 1388.51,259.521 1388,257.5C 1386.02,258.816 1384.52,258.316 1383.5,256C 1380.67,255.299 1378.01,254.299 1375.5,253C 1371.18,253.433 1367.85,251.933 1365.5,248.5C 1362.9,249.239 1360.56,249.239 1358.5,248.5C 1357.7,246.922 1357.2,245.256 1357,243.5C 1355.76,243.461 1354.42,243.795 1353,244.5C 1348.05,243.596 1343.38,241.929 1339,239.5C 1338.23,239.645 1337.56,239.978 1337,240.5C 1334.46,239.124 1334.29,237.957 1336.5,237C 1334.95,235.786 1333.78,234.286 1333,232.5C 1330.22,236.056 1327.06,236.223 1323.5,233C 1323.83,232.667 1324.17,232.333 1324.5,232C 1320.14,231.147 1315.81,230.313 1311.5,229.5C 1311.58,226.513 1310.41,225.847 1308,227.5C 1304.92,225.128 1301.58,224.462 1298,225.5C 1292.34,223.509 1287.34,220.509 1283,216.5C 1277.59,217.231 1272.26,217.231 1267,216.5C 1265.67,214.5 1264,212.833 1262,211.5C 1261.44,212.022 1260.77,212.355 1260,212.5C 1256.58,209.605 1253.08,209.272 1249.5,211.5C 1246.11,210.132 1242.78,208.799 1239.5,207.5C 1238.25,202.574 1235.59,201.574 1231.5,204.5C 1226.81,204.055 1222.31,203.055 1218,201.5C 1215.72,201.55 1213.39,201.883 1211,202.5C 1209.62,201.449 1208.62,200.116 1208,198.5C 1202.82,197.436 1197.49,197.436 1192,198.5C 1191.63,197.584 1191.13,196.75 1190.5,196C 1185.47,194.775 1180.64,193.275 1176,191.5C 1175.33,192.578 1174.33,193.245 1173,193.5C 1170.48,191.729 1167.65,190.395 1164.5,189.5C 1160.67,189.279 1156.84,189.946 1153,191.5C 1150.75,189.413 1148.09,188.079 1145,187.5C 1144.05,188.022 1143.22,188.689 1142.5,189.5C 1139.65,189.167 1137.15,188.167 1135,186.5C 1133.64,187.38 1132.14,187.714 1130.5,187.5C 1130.65,186.448 1130.48,185.448 1130,184.5C 1125.94,187.626 1121.61,187.626 1117,184.5C 1116.33,185.167 1115.67,185.833 1115,186.5C 1112.59,185.644 1111.42,184.31 1111.5,182.5C 1110.17,183.167 1108.83,183.833 1107.5,184.5C 1105.63,183.233 1103.8,183.233 1102,184.5C 1101.69,183.692 1101.19,183.025 1100.5,182.5C 1097.35,183.212 1094.19,183.879 1091,184.5C 1089.74,184.241 1088.74,183.574 1088,182.5C 1085.16,183.326 1082.16,183.66 1079,183.5C 1076.33,181.291 1073.5,181.291 1070.5,183.5C 1069.95,186.378 1069.62,189.211 1069.5,192C 1070.36,192.689 1071.02,193.522 1071.5,194.5C 1069.97,198.437 1068.63,202.437 1067.5,206.5C 1068.03,207.192 1068.69,207.692 1069.5,208C 1069.5,209.333 1069.5,210.667 1069.5,212C 1067.11,212.691 1067.11,213.691 1069.5,215C 1069.02,219.81 1069.02,224.31 1069.5,228.5C 1069.06,229.739 1068.39,230.739 1067.5,231.5C 1065.02,230.036 1065.02,228.369 1067.5,226.5C 1067.04,224.709 1065.87,223.709 1064,223.5C 1061.85,224.299 1059.68,225.133 1057.5,226C 1058.26,227.512 1059.26,228.846 1060.5,230C 1059.17,230.667 1057.83,231.333 1056.5,232C 1056.96,232.414 1057.29,232.914 1057.5,233.5C 1056.1,234.852 1055.44,236.519 1055.5,238.5C 1055.94,242.279 1055.94,245.946 1055.5,249.5C 1057.22,251.449 1058.89,253.449 1060.5,255.5C 1060.06,256.506 1059.4,256.506 1058.5,255.5C 1057.7,257.078 1057.2,258.744 1057,260.5C 1055.33,259.66 1055.17,260.16 1056.5,262C 1055.83,262.333 1055.17,262.667 1054.5,263C 1055.83,265 1057.17,267 1058.5,269C 1058.33,270.833 1058.17,272.667 1058,274.5C 1058.98,271.345 1060.31,271.012 1062,273.5C 1062.95,271.545 1064.29,269.878 1066,268.5C 1066.24,266.236 1066.74,264.069 1067.5,262C 1066.14,259.966 1065.14,257.799 1064.5,255.5C 1065.68,255.719 1066.68,255.386 1067.5,254.5C 1067.94,253.261 1068.61,252.261 1069.5,251.5C 1069.53,253.582 1068.86,255.416 1067.5,257C 1068.21,260.131 1068.87,263.298 1069.5,266.5C 1069.14,268.733 1068.14,270.566 1066.5,272C 1067.67,273.993 1068.67,275.993 1069.5,278C 1068.83,278.667 1068.17,279.333 1067.5,280C 1068.71,281.113 1068.71,282.28 1067.5,283.5C 1068.17,284.167 1068.83,284.833 1069.5,285.5C 1067.49,288.013 1066.16,290.846 1065.5,294C 1066.33,298.709 1067.66,302.876 1069.5,306.5C 1068.25,308.001 1067.25,309.668 1066.5,311.5C 1067.17,312.167 1067.83,312.833 1068.5,313.5C 1068.08,316.603 1067.08,319.436 1065.5,322C 1066.17,322.667 1066.83,323.333 1067.5,324C 1066.02,326.247 1065.35,328.747 1065.5,331.5C 1066.43,335.417 1066.76,339.251 1066.5,343C 1065.67,343.915 1064.67,344.581 1063.5,345C 1064.87,346.242 1065.87,347.742 1066.5,349.5C 1063.99,352.532 1063.99,355.532 1066.5,358.5C 1066.2,360.815 1065.37,360.815 1064,358.5C 1063.33,361.167 1063.33,363.833 1064,366.5C 1064.91,365.346 1065.75,365.513 1066.5,367C 1064.8,369.587 1063.8,372.421 1063.5,375.5C 1070.17,375.334 1076.84,375.5 1083.5,376C 1085.38,376.198 1087.05,376.698 1088.5,377.5C 1071.67,376.959 1055.01,376.292 1038.5,375.5C 1043.1,375.8 1047.6,375.467 1052,374.5C 1052.68,373.216 1052.52,372.049 1051.5,371C 1052.5,370 1053.5,369 1054.5,368C 1050.11,364.145 1049.44,359.645 1052.5,354.5C 1052.64,351.478 1052.31,348.478 1051.5,345.5C 1054.08,252.848 1056.08,160.181 1057.5,67.5C 1069.01,67.1719 1080.35,67.5052 1091.5,68.5 Z"/></g>
<g><path style="opacity:1" fill="#96d6e1" d="M 1067.5,231.5 C 1068.01,233.366 1068.68,235.2 1069.5,237C 1068.31,238.895 1067.31,240.895 1066.5,243C 1067.31,245.088 1068.31,247.088 1069.5,249C 1068.38,249.249 1067.38,249.749 1066.5,250.5C 1067.47,250.593 1068.47,250.926 1069.5,251.5C 1068.61,252.261 1067.94,253.261 1067.5,254.5C 1066.68,255.386 1065.68,255.719 1064.5,255.5C 1065.14,257.799 1066.14,259.966 1067.5,262C 1066.74,264.069 1066.24,266.236 1066,268.5C 1064.29,269.878 1062.95,271.545 1062,273.5C 1060.31,271.012 1058.98,271.345 1058,274.5C 1058.17,272.667 1058.33,270.833 1058.5,269C 1057.17,267 1055.83,265 1054.5,263C 1055.17,262.667 1055.83,262.333 1056.5,262C 1055.17,260.16 1055.33,259.66 1057,260.5C 1057.2,258.744 1057.7,257.078 1058.5,255.5C 1059.4,256.506 1060.06,256.506 1060.5,255.5C 1058.89,253.449 1057.22,251.449 1055.5,249.5C 1055.94,245.946 1055.94,242.279 1055.5,238.5C 1055.44,236.519 1056.1,234.852 1057.5,233.5C 1057.29,232.914 1056.96,232.414 1056.5,232C 1057.83,231.333 1059.17,230.667 1060.5,230C 1059.26,228.846 1058.26,227.512 1057.5,226C 1059.68,225.133 1061.85,224.299 1064,223.5C 1065.87,223.709 1067.04,224.709 1067.5,226.5C 1065.02,228.369 1065.02,230.036 1067.5,231.5 Z"/></g>
<g><path style="opacity:0.004" fill="#ccfffe" d="M 267.5,644.5 C 269.97,645.36 270.137,646.694 268,648.5C 267.51,647.207 267.343,645.873 267.5,644.5 Z"/></g>
<g><path style="opacity:0.004" fill="#e0f0f0" d="M 455.5,739.5 C 458.774,739.628 458.941,740.961 456,743.5C 455.51,742.207 455.343,740.873 455.5,739.5 Z"/></g>
<g><path style="opacity:0.004" fill="#fefffe" d="M 1680.5,754.5 C 1681.83,755.167 1681.83,755.167 1680.5,754.5 Z"/></g>
<g><path style="opacity:0.004" fill="#fefffe" d="M 1680.5,755.5 C 1679.83,756.167 1679.83,756.167 1680.5,755.5 Z"/></g>
<g><path style="opacity:0.053" fill="#e9faff" d="M 106.5,792.5 C 110.441,794.14 114.108,796.306 117.5,799C 114.076,798.639 110.742,797.639 107.5,796C 106.663,794.989 106.33,793.822 106.5,792.5 Z"/></g>
<g><path style="opacity:0.004" fill="#fefffe" d="M 237.5,945.5 C 236.761,945.631 236.094,945.464 235.5,945C 236.437,944.308 237.103,944.475 237.5,945.5 Z"/></g>
<g><path style="opacity:0.004" fill="#fefffe" d="M 237.5,945.5 C 238.492,945.328 239.158,945.662 239.5,946.5C 238.508,946.672 237.842,946.338 237.5,945.5 Z"/></g>
<g><path style="opacity:0.004" fill="#fefffe" d="M 239.5,946.5 C 240.492,946.328 241.158,946.662 241.5,947.5C 240.508,947.672 239.842,947.338 239.5,946.5 Z"/></g>
<g><path style="opacity:0.004" fill="#fefffe" d="M 241.5,947.5 C 242.492,947.328 243.158,947.662 243.5,948.5C 242.508,948.672 241.842,948.338 241.5,947.5 Z"/></g>
<g><path style="opacity:0.004" fill="#fefffe" d="M 168.5,977.5 C 169.833,978.167 169.833,978.167 168.5,977.5 Z"/></g>
<g><path style="opacity:0.031" fill="#f0fefe" d="M 243.5,948.5 C 270.046,960.772 296.379,973.605 322.5,987C 325.009,988.421 327.343,990.088 329.5,992C 300.171,978.836 271.505,964.336 243.5,948.5 Z"/></g>
<g><path style="opacity:0.004" fill="#00fffe" d="M 172.5,979.5 C 173.833,980.167 173.833,980.167 172.5,979.5 Z"/></g>
<g><path style="opacity:0.004" fill="#00fffe" d="M 174.5,980.5 C 175.833,981.167 175.833,981.167 174.5,980.5 Z"/></g>
<g><path style="opacity:0.004" fill="#fefffe" d="M 210.5,997.5 C 211.833,998.167 211.833,998.167 210.5,997.5 Z"/></g>
<g><path style="opacity:0.004" fill="#fefffe" d="M 214.5,999.5 C 213.761,999.631 213.094,999.464 212.5,999C 213.437,998.308 214.103,998.475 214.5,999.5 Z"/></g>
<g><path style="opacity:0.004" fill="#fefffe" d="M 214.5,999.5 C 215.492,999.328 216.158,999.662 216.5,1000.5C 215.508,1000.67 214.842,1000.34 214.5,999.5 Z"/></g>
<g><path style="opacity:0.004" fill="#fefffe" d="M 216.5,1000.5 C 217.492,1000.33 218.158,1000.66 218.5,1001.5C 217.508,1001.67 216.842,1001.34 216.5,1000.5 Z"/></g>
<g><path style="opacity:0.004" fill="#fefffe" d="M 218.5,1001.5 C 219.492,1001.33 220.158,1001.66 220.5,1002.5C 219.508,1002.67 218.842,1002.34 218.5,1001.5 Z"/></g>
<g><path style="opacity:0.013" fill="#f2feff" d="M 220.5,1002.5 C 255.951,1017.89 290.951,1034.39 325.5,1052C 327.061,1052.94 328.395,1054.11 329.5,1055.5C 292.75,1039.22 256.416,1021.55 220.5,1002.5 Z"/></g>
<g><path style="opacity:0.004" fill="#e7eaea" d="M 1880.5,1503.5 C 1878.95,1506.94 1877.11,1510.27 1875,1513.5C 1874.21,1510.17 1873.04,1507 1871.5,1504C 1874.61,1503.13 1877.61,1502.96 1880.5,1503.5 Z"/></g>
<g><path style="opacity:0.004" fill="#000000" d="M 1880.5,1502.5 C 1881.83,1503.17 1881.83,1503.17 1880.5,1502.5 Z"/></g>
</svg>
