<?xml version="1.0" encoding="UTF-8"?>
<!DOCTYPE svg PUBLIC "-//W3C//DTD SVG 1.1//EN" "http://www.w3.org/Graphics/SVG/1.1/DTD/svg11.dtd">
<svg xmlns="http://www.w3.org/2000/svg" version="1.1" width="2048px" height="2048px" style="shape-rendering:geometricPrecision; text-rendering:geometricPrecision; image-rendering:optimizeQuality; fill-rule:evenodd; clip-rule:evenodd" xmlns:xlink="http://www.w3.org/1999/xlink">
<g><path style="opacity:1" fill="#bb4225" d="M 1063.5,398.5 C 1251.98,407.164 1407.48,482.497 1530,624.5C 1542.82,639.814 1554.66,655.814 1565.5,672.5C 1564.77,672.942 1563.77,673.109 1562.5,673C 1561.76,676.936 1559.59,678.436 1556,677.5C 1555.33,678.833 1554.33,679.833 1553,680.5C 1553.15,681.825 1552.98,682.992 1552.5,684C 1547.24,685.269 1542.41,687.435 1538,690.5C 1537.67,690.167 1537.33,689.833 1537,689.5C 1535.75,691.001 1534.75,692.668 1534,694.5C 1533,694.167 1532,693.833 1531,693.5C 1529.29,696.418 1527.46,699.252 1525.5,702C 1521.6,703.565 1517.93,705.565 1514.5,708C 1513.22,708.684 1512.05,708.517 1511,707.5C 1507.58,709.908 1504.42,712.741 1501.5,716C 1502.73,717.183 1502.73,718.349 1501.5,719.5C 1500.83,718.833 1500.17,718.167 1499.5,717.5C 1497.47,717.894 1495.14,718.227 1492.5,718.5C 1492.65,719.552 1492.48,720.552 1492,721.5C 1490.2,724.051 1488.2,726.385 1486,728.5C 1485.03,726.122 1484.36,726.456 1484,729.5C 1482.23,728.724 1480.4,728.89 1478.5,730C 1479.36,730.689 1480.02,731.522 1480.5,732.5C 1478.78,733.934 1476.78,734.767 1474.5,735C 1473.81,736.067 1473.31,737.234 1473,738.5C 1472.67,737.833 1472.33,737.167 1472,736.5C 1470.01,738.177 1467.84,739.677 1465.5,741C 1461.78,739.863 1459.78,741.363 1459.5,745.5C 1458.13,745.343 1456.79,745.51 1455.5,746C 1449.28,749.923 1443.78,753.757 1439,757.5C 1438.23,757.355 1437.56,757.022 1437,756.5C 1435.17,760.143 1432.84,763.477 1430,766.5C 1428.33,766.167 1426.67,765.833 1425,765.5C 1422.33,768.167 1419.67,770.833 1417,773.5C 1416.67,772.833 1416.33,772.167 1416,771.5C 1412.7,774.345 1409.87,777.678 1407.5,781.5C 1406.81,780.975 1406.31,780.308 1406,779.5C 1405.39,781.481 1404.39,781.815 1403,780.5C 1400.04,783.425 1396.87,786.091 1393.5,788.5C 1391.56,789.189 1389.56,789.689 1387.5,790C 1388.26,791.364 1387.76,792.531 1386,793.5C 1385.59,793.043 1385.09,792.709 1384.5,792.5C 1383.64,794.197 1382.3,795.363 1380.5,796C 1381.17,796.667 1381.83,797.333 1382.5,798C 1377.99,799.844 1373.82,802.344 1370,805.5C 1368.49,804.465 1366.99,804.632 1365.5,806C 1362.49,809.114 1359.16,811.781 1355.5,814C 1354.85,815.609 1354.02,817.109 1353,818.5C 1352.33,817.167 1351.67,817.167 1351,818.5C 1350.4,816.314 1349.23,816.148 1347.5,818C 1345.98,820.204 1344.65,822.538 1343.5,825C 1340.89,825.224 1338.39,824.724 1336,823.5C 1334.38,826.784 1332.05,829.451 1329,831.5C 1328.52,832.448 1328.35,833.448 1328.5,834.5C 1326.8,834.966 1325.3,834.966 1324,834.5C 1323.68,836.301 1323.02,836.634 1322,835.5C 1321.64,838.544 1320.97,838.878 1320,836.5C 1319.25,837.126 1318.42,837.626 1317.5,838C 1318.46,839.147 1318.12,840.147 1316.5,841C 1318.93,841.451 1319.1,842.285 1317,843.5C 1314.55,843.059 1312.05,843.559 1309.5,845C 1306.18,846.823 1303.51,849.323 1301.5,852.5C 1299.88,853.154 1298.22,853.654 1296.5,854C 1297.71,855.113 1297.71,856.28 1296.5,857.5C 1294.54,858.292 1292.54,858.959 1290.5,859.5C 1288.88,858.509 1287.88,859.176 1287.5,861.5C 1287.83,862.167 1288.17,862.833 1288.5,863.5C 1285.81,864.507 1283.14,865.507 1280.5,866.5C 1225.77,790.95 1151.44,749.95 1057.5,743.5C 1057.59,742.504 1057.25,741.671 1056.5,741C 1057.45,737.969 1058.45,734.969 1059.5,732C 1058.27,729.973 1058.6,728.64 1060.5,728C 1059.83,726.667 1059.17,725.333 1058.5,724C 1059.27,721.595 1059.77,719.095 1060,716.5C 1060.33,717.5 1060.67,718.5 1061,719.5C 1061.17,718.833 1061.33,718.167 1061.5,717.5C 1060.64,715.913 1059.97,714.246 1059.5,712.5C 1060.44,708.356 1061.44,704.189 1062.5,700C 1062.11,698.989 1061.44,698.489 1060.5,698.5C 1060.28,696.058 1060.28,693.558 1060.5,691C 1060.24,689.739 1059.57,688.739 1058.5,688C 1059.47,685.782 1060.14,683.449 1060.5,681C 1060.66,678.395 1060.33,676.061 1059.5,674C 1061.79,671.468 1061.46,669.135 1058.5,667C 1060.3,666.683 1060.63,666.016 1059.5,665C 1060.04,661.509 1061.04,658.175 1062.5,655C 1061.35,653.27 1061.35,651.604 1062.5,650C 1061.83,649.667 1061.17,649.333 1060.5,649C 1062.8,646.193 1062.47,643.526 1059.5,641C 1059.25,637.279 1059.58,633.446 1060.5,629.5C 1061.69,629.03 1062.36,628.03 1062.5,626.5C 1061.34,623.989 1060.68,621.322 1060.5,618.5C 1060.94,616.874 1061.27,615.207 1061.5,613.5C 1060.77,610.683 1060.1,608.183 1059.5,606C 1062.02,602.629 1062.02,599.295 1059.5,596C 1061.08,592.815 1062.41,589.481 1063.5,586C 1062.82,583.658 1063.16,581.324 1064.5,579C 1061.25,577.768 1060.91,575.768 1063.5,573C 1062.9,568.681 1061.57,564.681 1059.5,561C 1061.29,558.542 1062.29,555.709 1062.5,552.5C 1062.18,551.353 1061.52,550.519 1060.5,550C 1061.83,548.333 1061.83,546.667 1060.5,545C 1062.78,543.518 1062.78,541.851 1060.5,540C 1064.43,538.848 1065.09,536.848 1062.5,534C 1062.83,533.667 1063.17,533.333 1063.5,533C 1062.33,532.581 1061.33,531.915 1060.5,531C 1061.83,529.333 1061.83,527.667 1060.5,526C 1061.5,525.167 1062.5,524.333 1063.5,523.5C 1063.44,521.138 1063.44,518.805 1063.5,516.5C 1061.12,512.589 1061.12,508.755 1063.5,505C 1062.83,503.333 1062.17,501.667 1061.5,500C 1062.62,497.335 1063.29,494.835 1063.5,492.5C 1063.06,491.494 1062.4,491.494 1061.5,492.5C 1060.76,491.009 1060.09,489.509 1059.5,488C 1063.27,485.921 1064.27,482.921 1062.5,479C 1063.07,476.102 1064.07,473.102 1065.5,470C 1064.17,469.333 1063.17,468.333 1062.5,467C 1062.15,464.945 1062.82,462.945 1064.5,461C 1061.6,458.295 1061.26,455.462 1063.5,452.5C 1062.96,451.259 1062.3,450.092 1061.5,449C 1062.24,444.463 1063.57,440.129 1065.5,436C 1064.43,433.343 1062.76,431.177 1060.5,429.5C 1062.26,426.066 1063.93,422.566 1065.5,419C 1064.67,418.085 1063.67,417.419 1062.5,417C 1063.19,412.427 1064.19,407.593 1065.5,402.5C 1064.82,401.14 1064.15,399.807 1063.5,398.5 Z"/></g>
<g><path style="opacity:0.004" fill="#e13413" d="M 969.5,402.5 C 970.713,403.497 970.546,404.497 969,405.5C 968.53,404.423 968.697,403.423 969.5,402.5 Z"/></g>
<g><path style="opacity:0.622" fill="#b54024" d="M 1050.5,398.5 C 1049.52,401.863 1049.85,405.53 1051.5,409.5C 1050.43,412.894 1050.43,416.561 1051.5,420.5C 1050.7,421.941 1050.03,423.441 1049.5,425C 1050.85,426.555 1051.51,428.389 1051.5,430.5C 1049.8,436.039 1049.14,441.372 1049.5,446.5C 1049.76,448.187 1050.43,449.687 1051.5,451C 1050.43,454.245 1049.43,457.411 1048.5,460.5C 1047.84,439.473 1048.51,418.806 1050.5,398.5 Z"/></g>
<g><path style="opacity:0.082" fill="#c93d1b" d="M 764.5,464.5 C 765.877,472.388 765.71,480.388 764,488.5C 763.47,482.836 762.97,477.169 762.5,471.5C 762.643,468.887 763.31,466.553 764.5,464.5 Z"/></g>
<g><path style="opacity:0.012" fill="#bd4f28" d="M 733.5,480.5 C 734.641,483.64 734.808,486.973 734,490.5C 733.782,487.574 733.282,484.74 732.5,482C 733.056,481.617 733.389,481.117 733.5,480.5 Z"/></g>
<g><path style="opacity:0.737" fill="#ad3c22" d="M 1048.5,461.5 C 1049.45,462.452 1050.45,463.452 1051.5,464.5C 1050.41,469.621 1050.41,474.788 1051.5,480C 1050.69,480.308 1050.03,480.808 1049.5,481.5C 1054.43,485.079 1054.1,488.413 1048.5,491.5C 1048.5,481.5 1048.5,471.5 1048.5,461.5 Z"/></g>
<g><path style="opacity:0.055" fill="#b93f22" d="M 703.5,498.5 C 704.651,503.65 704.817,508.984 704,514.5C 703.348,509.923 702.515,505.423 701.5,501C 702.381,500.292 703.047,499.458 703.5,498.5 Z"/></g>
<g><path style="opacity:0.81" fill="#99341c" d="M 1048.5,494.5 C 1049.45,495.919 1049.78,497.585 1049.5,499.5C 1051.1,499.312 1052.44,499.812 1053.5,501C 1051.64,504.743 1050.31,508.743 1049.5,513C 1050.17,513.667 1050.83,514.333 1051.5,515C 1050.17,516.333 1050.17,517.667 1051.5,519C 1050.69,519.308 1050.03,519.808 1049.5,520.5C 1051,524.569 1051.67,528.236 1051.5,531.5C 1050.62,532.548 1049.95,533.715 1049.5,535C 1053.29,537.736 1054.29,541.236 1052.5,545.5C 1049.07,545.35 1048.74,546.516 1051.5,549C 1050.82,551.342 1051.16,553.676 1052.5,556C 1051.01,558.793 1049.68,561.626 1048.5,564.5C 1048.5,541.167 1048.5,517.833 1048.5,494.5 Z"/></g>
<g><path style="opacity:1" fill="#6e210f" d="M 1050.5,398.5 C 1054.83,398.5 1059.17,398.5 1063.5,398.5C 1064.15,399.807 1064.82,401.14 1065.5,402.5C 1064.19,407.593 1063.19,412.427 1062.5,417C 1063.67,417.419 1064.67,418.085 1065.5,419C 1063.93,422.566 1062.26,426.066 1060.5,429.5C 1062.76,431.177 1064.43,433.343 1065.5,436C 1063.57,440.129 1062.24,444.463 1061.5,449C 1062.3,450.092 1062.96,451.259 1063.5,452.5C 1061.26,455.462 1061.6,458.295 1064.5,461C 1062.82,462.945 1062.15,464.945 1062.5,467C 1063.17,468.333 1064.17,469.333 1065.5,470C 1064.07,473.102 1063.07,476.102 1062.5,479C 1064.27,482.921 1063.27,485.921 1059.5,488C 1060.09,489.509 1060.76,491.009 1061.5,492.5C 1062.4,491.494 1063.06,491.494 1063.5,492.5C 1063.29,494.835 1062.62,497.335 1061.5,500C 1062.17,501.667 1062.83,503.333 1063.5,505C 1061.12,508.755 1061.12,512.589 1063.5,516.5C 1063.44,518.805 1063.44,521.138 1063.5,523.5C 1062.5,524.333 1061.5,525.167 1060.5,526C 1061.83,527.667 1061.83,529.333 1060.5,531C 1061.33,531.915 1062.33,532.581 1063.5,533C 1063.17,533.333 1062.83,533.667 1062.5,534C 1065.09,536.848 1064.43,538.848 1060.5,540C 1062.78,541.851 1062.78,543.518 1060.5,545C 1061.83,546.667 1061.83,548.333 1060.5,550C 1061.52,550.519 1062.18,551.353 1062.5,552.5C 1062.29,555.709 1061.29,558.542 1059.5,561C 1061.57,564.681 1062.9,568.681 1063.5,573C 1060.91,575.768 1061.25,577.768 1064.5,579C 1063.16,581.324 1062.82,583.658 1063.5,586C 1062.41,589.481 1061.08,592.815 1059.5,596C 1062.02,599.295 1062.02,602.629 1059.5,606C 1060.1,608.183 1060.77,610.683 1061.5,613.5C 1061.27,615.207 1060.94,616.874 1060.5,618.5C 1057.86,620.838 1058.19,623.005 1061.5,625C 1060.5,625.333 1059.5,625.667 1058.5,626C 1059.65,626.914 1059.49,627.747 1058,628.5C 1057.67,626.167 1057.33,623.833 1057,621.5C 1056.5,622 1056,622.5 1055.5,623C 1056.83,624.333 1056.83,625.667 1055.5,627C 1053.87,627.494 1052.2,627.66 1050.5,627.5C 1050.21,625.712 1050.55,624.045 1051.5,622.5C 1052.32,624.748 1053.32,624.914 1054.5,623C 1054.17,622.667 1053.83,622.333 1053.5,622C 1054.67,621.581 1055.67,620.915 1056.5,620C 1054.94,619.059 1053.61,617.892 1052.5,616.5C 1051.74,613.882 1051.74,611.049 1052.5,608C 1049.68,606.526 1049.34,605.026 1051.5,603.5C 1051.12,601.787 1050.12,600.787 1048.5,600.5C 1048.5,588.5 1048.5,576.5 1048.5,564.5C 1049.68,561.626 1051.01,558.793 1052.5,556C 1051.16,553.676 1050.82,551.342 1051.5,549C 1048.74,546.516 1049.07,545.35 1052.5,545.5C 1054.29,541.236 1053.29,537.736 1049.5,535C 1049.95,533.715 1050.62,532.548 1051.5,531.5C 1051.67,528.236 1051,524.569 1049.5,520.5C 1050.03,519.808 1050.69,519.308 1051.5,519C 1050.17,517.667 1050.17,516.333 1051.5,515C 1050.83,514.333 1050.17,513.667 1049.5,513C 1050.31,508.743 1051.64,504.743 1053.5,501C 1052.44,499.812 1051.1,499.312 1049.5,499.5C 1049.78,497.585 1049.45,495.919 1048.5,494.5C 1048.5,493.5 1048.5,492.5 1048.5,491.5C 1054.1,488.413 1054.43,485.079 1049.5,481.5C 1050.03,480.808 1050.69,480.308 1051.5,480C 1050.41,474.788 1050.41,469.621 1051.5,464.5C 1050.45,463.452 1049.45,462.452 1048.5,461.5C 1048.5,461.167 1048.5,460.833 1048.5,460.5C 1049.43,457.411 1050.43,454.245 1051.5,451C 1050.43,449.687 1049.76,448.187 1049.5,446.5C 1049.14,441.372 1049.8,436.039 1051.5,430.5C 1051.51,428.389 1050.85,426.555 1049.5,425C 1050.03,423.441 1050.7,421.941 1051.5,420.5C 1050.43,416.561 1050.43,412.894 1051.5,409.5C 1049.85,405.53 1049.52,401.863 1050.5,398.5 Z"/></g>
<g><path style="opacity:1" fill="#6e210f" d="M 1060.5,629.5 C 1059.58,633.446 1059.25,637.279 1059.5,641C 1062.47,643.526 1062.8,646.193 1060.5,649C 1061.17,649.333 1061.83,649.667 1062.5,650C 1061.35,651.604 1061.35,653.27 1062.5,655C 1061.04,658.175 1060.04,661.509 1059.5,665C 1060.63,666.016 1060.3,666.683 1058.5,667C 1061.46,669.135 1061.79,671.468 1059.5,674C 1060.33,676.061 1060.66,678.395 1060.5,681C 1060.14,683.449 1059.47,685.782 1058.5,688C 1059.57,688.739 1060.24,689.739 1060.5,691C 1060.28,693.558 1060.28,696.058 1060.5,698.5C 1061.44,698.489 1062.11,698.989 1062.5,700C 1061.44,704.189 1060.44,708.356 1059.5,712.5C 1059.97,714.246 1060.64,715.913 1061.5,717.5C 1061.33,718.167 1061.17,718.833 1061,719.5C 1060.67,718.5 1060.33,717.5 1060,716.5C 1059.77,719.095 1059.27,721.595 1058.5,724C 1059.17,725.333 1059.83,726.667 1060.5,728C 1058.6,728.64 1058.27,729.973 1059.5,732C 1058.45,734.969 1057.45,737.969 1056.5,741C 1057.25,741.671 1057.59,742.504 1057.5,743.5C 1055.17,743.5 1052.83,743.5 1050.5,743.5C 1051.95,742.175 1051.62,741.342 1049.5,741C 1050.71,739.887 1050.71,738.72 1049.5,737.5C 1049.84,735.575 1051.17,734.075 1053.5,733C 1051.91,733.617 1050.57,733.284 1049.5,732C 1050.17,731.333 1050.83,730.667 1051.5,730C 1050.22,726.717 1048.89,723.55 1047.5,720.5C 1048.44,712.221 1048.77,703.888 1048.5,695.5C 1050.65,695.611 1050.98,694.944 1049.5,693.5C 1050.97,690.851 1051.97,688.018 1052.5,685C 1051.89,682.942 1050.89,682.109 1049.5,682.5C 1049.9,676.627 1049.9,670.961 1049.5,665.5C 1050.85,662.838 1051.52,660.005 1051.5,657C 1051.49,652.337 1051.16,647.837 1050.5,643.5C 1051.5,642.667 1052.5,641.833 1053.5,641C 1051.97,640.3 1050.97,639.134 1050.5,637.5C 1051.62,636.402 1051.62,635.235 1050.5,634C 1051.2,632.107 1052.03,630.274 1053,628.5C 1054.01,628.982 1055.18,629.148 1056.5,629C 1057.13,629.75 1057.63,630.584 1058,631.5C 1058.42,630.244 1059.25,629.577 1060.5,629.5 Z"/></g>
<g><path style="opacity:0.937" fill="#862c16" d="M 1048.5,600.5 C 1050.12,600.787 1051.12,601.787 1051.5,603.5C 1049.34,605.026 1049.68,606.526 1052.5,608C 1051.74,611.049 1051.74,613.882 1052.5,616.5C 1053.61,617.892 1054.94,619.059 1056.5,620C 1055.67,620.915 1054.67,621.581 1053.5,622C 1053.83,622.333 1054.17,622.667 1054.5,623C 1053.32,624.914 1052.32,624.748 1051.5,622.5C 1050.55,624.045 1050.21,625.712 1050.5,627.5C 1052.2,627.66 1053.87,627.494 1055.5,627C 1056.83,625.667 1056.83,624.333 1055.5,623C 1056,622.5 1056.5,622 1057,621.5C 1057.33,623.833 1057.67,626.167 1058,628.5C 1059.49,627.747 1059.65,626.914 1058.5,626C 1059.5,625.667 1060.5,625.333 1061.5,625C 1058.19,623.005 1057.86,620.838 1060.5,618.5C 1060.68,621.322 1061.34,623.989 1062.5,626.5C 1062.36,628.03 1061.69,629.03 1060.5,629.5C 1059.25,629.577 1058.42,630.244 1058,631.5C 1057.63,630.584 1057.13,629.75 1056.5,629C 1055.18,629.148 1054.01,628.982 1053,628.5C 1052.03,630.274 1051.2,632.107 1050.5,634C 1051.62,635.235 1051.62,636.402 1050.5,637.5C 1050.97,639.134 1051.97,640.3 1053.5,641C 1052.5,641.833 1051.5,642.667 1050.5,643.5C 1051.16,647.837 1051.49,652.337 1051.5,657C 1051.52,660.005 1050.85,662.838 1049.5,665.5C 1049.9,670.961 1049.9,676.627 1049.5,682.5C 1050.89,682.109 1051.89,682.942 1052.5,685C 1051.97,688.018 1050.97,690.851 1049.5,693.5C 1050.98,694.944 1050.65,695.611 1048.5,695.5C 1048.5,663.833 1048.5,632.167 1048.5,600.5 Z"/></g>
<g><path style="opacity:0.999" fill="#bb4225" d="M 1572.5,682.5 C 1667.22,831.953 1696.72,993.62 1661,1167.5C 1643.86,1244.09 1613.86,1315.09 1571,1380.5C 1506.36,1331.69 1442.2,1282.35 1378.5,1232.5C 1379.8,1230.54 1379.3,1228.88 1377,1227.5C 1376.67,1227.83 1376.33,1228.17 1376,1228.5C 1374.01,1224.51 1370.84,1222.01 1366.5,1221C 1365.55,1219.04 1364.21,1217.38 1362.5,1216C 1361.36,1215.25 1360.36,1215.42 1359.5,1216.5C 1360.55,1217.43 1360.55,1218.1 1359.5,1218.5C 1356.19,1216.52 1353.19,1214.18 1350.5,1211.5C 1350.72,1210.27 1351.39,1209.27 1352.5,1208.5C 1347.95,1205.3 1343.62,1201.63 1339.5,1197.5C 1337.19,1196.73 1334.85,1196.06 1332.5,1195.5C 1331.77,1194.07 1330.77,1192.9 1329.5,1192C 1329.96,1191.59 1330.29,1191.09 1330.5,1190.5C 1326.38,1190.51 1323.88,1188.51 1323,1184.5C 1321.39,1185.15 1319.89,1184.65 1318.5,1183C 1318.83,1182.67 1319.17,1182.33 1319.5,1182C 1314.17,1180.94 1310.34,1178.11 1308,1173.5C 1307.67,1173.83 1307.33,1174.17 1307,1174.5C 1304.96,1172.93 1302.63,1171.93 1300,1171.5C 1299.28,1172.04 1298.78,1172.71 1298.5,1173.5C 1296.41,1172.96 1294.41,1172.12 1292.5,1171C 1333.82,1096.63 1341.65,1018.8 1316,937.5C 1307.68,915.202 1297.52,893.869 1285.5,873.5C 1291.4,870.965 1297.24,868.298 1303,865.5C 1305.34,863.446 1307.68,861.446 1310,859.5C 1310.33,859.833 1310.67,860.167 1311,860.5C 1312.58,859.139 1314.42,858.472 1316.5,858.5C 1316.35,857.448 1316.52,856.448 1317,855.5C 1319.38,853.689 1321.05,851.355 1322,848.5C 1322.72,849.059 1323.56,849.392 1324.5,849.5C 1327.09,848.246 1329.75,847.079 1332.5,846C 1331.35,845.086 1331.51,844.253 1333,843.5C 1333.91,844.654 1334.75,844.487 1335.5,843C 1335.17,842.667 1334.83,842.333 1334.5,842C 1336.86,841.803 1338.53,840.636 1339.5,838.5C 1341.37,837.233 1343.2,837.233 1345,838.5C 1345.63,833.182 1348.46,831.016 1353.5,832C 1356.29,830.375 1358.46,828.208 1360,825.5C 1360.31,826.308 1360.81,826.975 1361.5,827.5C 1362.94,826.135 1364.27,824.635 1365.5,823C 1366.79,822.51 1368.13,822.343 1369.5,822.5C 1370.67,820.187 1372,817.854 1373.5,815.5C 1374.92,814.453 1376.42,814.453 1378,815.5C 1380.02,815.2 1380.52,814.367 1379.5,813C 1380.45,812.517 1381.45,812.351 1382.5,812.5C 1382.35,811.448 1382.52,810.448 1383,809.5C 1383.33,809.833 1383.67,810.167 1384,810.5C 1389.1,806.195 1394.6,802.528 1400.5,799.5C 1401.39,798.675 1401.72,797.675 1401.5,796.5C 1402.98,796.762 1404.31,796.429 1405.5,795.5C 1406.5,793.167 1408.17,791.5 1410.5,790.5C 1411.17,790.833 1411.83,791.167 1412.5,791.5C 1413.36,789.803 1414.7,788.637 1416.5,788C 1416.17,787.667 1415.83,787.333 1415.5,787C 1416.8,786.79 1418.14,786.957 1419.5,787.5C 1423.5,784.496 1427.84,781.996 1432.5,780C 1431.83,779.667 1431.17,779.333 1430.5,779C 1432.83,778 1435.17,777 1437.5,776C 1439.31,773.181 1441.48,770.681 1444,768.5C 1444.41,768.957 1444.91,769.291 1445.5,769.5C 1450.45,767.041 1453.95,763.708 1456,759.5C 1459.27,762.395 1461.1,762.061 1461.5,758.5C 1466.51,756.647 1470.84,753.813 1474.5,750C 1475.83,749.667 1477.17,749.333 1478.5,749C 1478.04,748.586 1477.71,748.086 1477.5,747.5C 1478.69,746.571 1480.02,746.238 1481.5,746.5C 1481.14,744.089 1482.14,742.589 1484.5,742C 1484.17,741.667 1483.83,741.333 1483.5,741C 1485.85,740.89 1487.35,739.723 1488,737.5C 1489.02,738.634 1489.68,738.301 1490,736.5C 1490.31,737.308 1490.81,737.975 1491.5,738.5C 1493.5,736.995 1495.34,735.328 1497,733.5C 1499.5,732.667 1502,731.833 1504.5,731C 1507.57,727.642 1511.07,724.809 1515,722.5C 1515.91,723.654 1516.75,723.487 1517.5,722C 1517.17,721.667 1516.83,721.333 1516.5,721C 1518.75,720.389 1520.42,719.056 1521.5,717C 1522.45,716.383 1523.28,716.549 1524,717.5C 1524.48,716.552 1524.65,715.552 1524.5,714.5C 1526.45,714.773 1527.95,714.107 1529,712.5C 1529.33,712.833 1529.67,713.167 1530,713.5C 1530.48,712.552 1530.65,711.552 1530.5,710.5C 1532.91,710.756 1534.58,709.756 1535.5,707.5C 1536.45,708.326 1537.45,708.492 1538.5,708C 1540.6,703.965 1543.93,701.965 1548.5,702C 1549.83,701.333 1549.83,700.667 1548.5,700C 1550.67,698.5 1552.5,696.667 1554,694.5C 1555.88,695.354 1557.71,695.021 1559.5,693.5C 1560.43,692.311 1560.76,690.978 1560.5,689.5C 1562.99,689.702 1565.32,689.202 1567.5,688C 1569.03,685.971 1570.7,684.138 1572.5,682.5 Z"/></g>
<g><path style="opacity:0.004" fill="#bf1407" d="M 1018.5,734.5 C 1017.88,734.389 1017.38,734.056 1017,733.5C 1015.26,735.768 1013.09,737.435 1010.5,738.5C 1009.76,732.366 1012.43,729.366 1018.5,729.5C 1018.5,731.167 1018.5,732.833 1018.5,734.5 Z"/></g>
<g><path style="opacity:0.342" fill="#b74022" d="M 1047.5,720.5 C 1048.89,723.55 1050.22,726.717 1051.5,730C 1050.83,730.667 1050.17,731.333 1049.5,732C 1050.57,733.284 1051.91,733.617 1053.5,733C 1051.17,734.075 1049.84,735.575 1049.5,737.5C 1050.71,738.72 1050.71,739.887 1049.5,741C 1051.62,741.342 1051.95,742.175 1050.5,743.5C 1048.83,743.5 1047.17,743.5 1045.5,743.5C 1046.74,735.889 1047.41,728.223 1047.5,720.5 Z"/></g>
<g><path style="opacity:0.047" fill="#bb4421" d="M 1018.5,734.5 C 1019.37,737.418 1020.37,740.418 1021.5,743.5C 1017.68,745.145 1013.68,745.811 1009.5,745.5C 1009.67,743.139 1010.01,740.806 1010.5,738.5C 1013.09,737.435 1015.26,735.768 1017,733.5C 1017.38,734.056 1017.88,734.389 1018.5,734.5 Z"/></g>
<g><path style="opacity:1" fill="#722310" d="M 1565.5,672.5 C 1567.82,675.796 1570.15,679.129 1572.5,682.5C 1570.7,684.138 1569.03,685.971 1567.5,688C 1565.32,689.202 1562.99,689.702 1560.5,689.5C 1560.76,690.978 1560.43,692.311 1559.5,693.5C 1557.71,695.021 1555.88,695.354 1554,694.5C 1552.5,696.667 1550.67,698.5 1548.5,700C 1549.83,700.667 1549.83,701.333 1548.5,702C 1543.93,701.965 1540.6,703.965 1538.5,708C 1537.45,708.492 1536.45,708.326 1535.5,707.5C 1534.58,709.756 1532.91,710.756 1530.5,710.5C 1530.65,711.552 1530.48,712.552 1530,713.5C 1529.67,713.167 1529.33,712.833 1529,712.5C 1527.95,714.107 1526.45,714.773 1524.5,714.5C 1524.65,715.552 1524.48,716.552 1524,717.5C 1523.28,716.549 1522.45,716.383 1521.5,717C 1520.42,719.056 1518.75,720.389 1516.5,721C 1516.83,721.333 1517.17,721.667 1517.5,722C 1516.75,723.487 1515.91,723.654 1515,722.5C 1511.07,724.809 1507.57,727.642 1504.5,731C 1502,731.833 1499.5,732.667 1497,733.5C 1495.34,735.328 1493.5,736.995 1491.5,738.5C 1490.81,737.975 1490.31,737.308 1490,736.5C 1489.68,738.301 1489.02,738.634 1488,737.5C 1487.35,739.723 1485.85,740.89 1483.5,741C 1483.83,741.333 1484.17,741.667 1484.5,742C 1482.14,742.589 1481.14,744.089 1481.5,746.5C 1480.02,746.238 1478.69,746.571 1477.5,747.5C 1477.71,748.086 1478.04,748.586 1478.5,749C 1477.17,749.333 1475.83,749.667 1474.5,750C 1470.84,753.813 1466.51,756.647 1461.5,758.5C 1461.1,762.061 1459.27,762.395 1456,759.5C 1453.95,763.708 1450.45,767.041 1445.5,769.5C 1444.91,769.291 1444.41,768.957 1444,768.5C 1441.48,770.681 1439.31,773.181 1437.5,776C 1435.17,777 1432.83,778 1430.5,779C 1431.17,779.333 1431.83,779.667 1432.5,780C 1427.84,781.996 1423.5,784.496 1419.5,787.5C 1418.14,786.957 1416.8,786.79 1415.5,787C 1415.83,787.333 1416.17,787.667 1416.5,788C 1414.7,788.637 1413.36,789.803 1412.5,791.5C 1411.83,791.167 1411.17,790.833 1410.5,790.5C 1408.17,791.5 1406.5,793.167 1405.5,795.5C 1404.31,796.429 1402.98,796.762 1401.5,796.5C 1401.72,797.675 1401.39,798.675 1400.5,799.5C 1394.6,802.528 1389.1,806.195 1384,810.5C 1383.67,810.167 1383.33,809.833 1383,809.5C 1382.52,810.448 1382.35,811.448 1382.5,812.5C 1381.45,812.351 1380.45,812.517 1379.5,813C 1380.52,814.367 1380.02,815.2 1378,815.5C 1376.42,814.453 1374.92,814.453 1373.5,815.5C 1372,817.854 1370.67,820.187 1369.5,822.5C 1368.13,822.343 1366.79,822.51 1365.5,823C 1364.27,824.635 1362.94,826.135 1361.5,827.5C 1360.81,826.975 1360.31,826.308 1360,825.5C 1358.46,828.208 1356.29,830.375 1353.5,832C 1348.46,831.016 1345.63,833.182 1345,838.5C 1343.2,837.233 1341.37,837.233 1339.5,838.5C 1338.53,840.636 1336.86,841.803 1334.5,842C 1334.83,842.333 1335.17,842.667 1335.5,843C 1334.75,844.487 1333.91,844.654 1333,843.5C 1331.51,844.253 1331.35,845.086 1332.5,846C 1329.75,847.079 1327.09,848.246 1324.5,849.5C 1323.56,849.392 1322.72,849.059 1322,848.5C 1321.05,851.355 1319.38,853.689 1317,855.5C 1316.52,856.448 1316.35,857.448 1316.5,858.5C 1314.42,858.472 1312.58,859.139 1311,860.5C 1310.67,860.167 1310.33,859.833 1310,859.5C 1307.68,861.446 1305.34,863.446 1303,865.5C 1297.24,868.298 1291.4,870.965 1285.5,873.5C 1283.48,871.469 1281.81,869.135 1280.5,866.5C 1283.14,865.507 1285.81,864.507 1288.5,863.5C 1288.17,862.833 1287.83,862.167 1287.5,861.5C 1287.88,859.176 1288.88,858.509 1290.5,859.5C 1292.54,858.959 1294.54,858.292 1296.5,857.5C 1297.71,856.28 1297.71,855.113 1296.5,854C 1298.22,853.654 1299.88,853.154 1301.5,852.5C 1303.51,849.323 1306.18,846.823 1309.5,845C 1312.05,843.559 1314.55,843.059 1317,843.5C 1319.1,842.285 1318.93,841.451 1316.5,841C 1318.12,840.147 1318.46,839.147 1317.5,838C 1318.42,837.626 1319.25,837.126 1320,836.5C 1320.97,838.878 1321.64,838.544 1322,835.5C 1323.02,836.634 1323.68,836.301 1324,834.5C 1325.3,834.966 1326.8,834.966 1328.5,834.5C 1328.35,833.448 1328.52,832.448 1329,831.5C 1332.05,829.451 1334.38,826.784 1336,823.5C 1338.39,824.724 1340.89,825.224 1343.5,825C 1344.65,822.538 1345.98,820.204 1347.5,818C 1349.23,816.148 1350.4,816.314 1351,818.5C 1351.67,817.167 1352.33,817.167 1353,818.5C 1354.02,817.109 1354.85,815.609 1355.5,814C 1359.16,811.781 1362.49,809.114 1365.5,806C 1366.99,804.632 1368.49,804.465 1370,805.5C 1373.82,802.344 1377.99,799.844 1382.5,798C 1381.83,797.333 1381.17,796.667 1380.5,796C 1382.3,795.363 1383.64,794.197 1384.5,792.5C 1385.09,792.709 1385.59,793.043 1386,793.5C 1387.76,792.531 1388.26,791.364 1387.5,790C 1389.56,789.689 1391.56,789.189 1393.5,788.5C 1396.87,786.091 1400.04,783.425 1403,780.5C 1404.39,781.815 1405.39,781.481 1406,779.5C 1406.31,780.308 1406.81,780.975 1407.5,781.5C 1409.87,777.678 1412.7,774.345 1416,771.5C 1416.33,772.167 1416.67,772.833 1417,773.5C 1419.67,770.833 1422.33,768.167 1425,765.5C 1426.67,765.833 1428.33,766.167 1430,766.5C 1432.84,763.477 1435.17,760.143 1437,756.5C 1437.56,757.022 1438.23,757.355 1439,757.5C 1443.78,753.757 1449.28,749.923 1455.5,746C 1456.79,745.51 1458.13,745.343 1459.5,745.5C 1459.78,741.363 1461.78,739.863 1465.5,741C 1467.84,739.677 1470.01,738.177 1472,736.5C 1472.33,737.167 1472.67,737.833 1473,738.5C 1473.31,737.234 1473.81,736.067 1474.5,735C 1476.78,734.767 1478.78,733.934 1480.5,732.5C 1480.02,731.522 1479.36,730.689 1478.5,730C 1480.4,728.89 1482.23,728.724 1484,729.5C 1484.36,726.456 1485.03,726.122 1486,728.5C 1488.2,726.385 1490.2,724.051 1492,721.5C 1492.48,720.552 1492.65,719.552 1492.5,718.5C 1495.14,718.227 1497.47,717.894 1499.5,717.5C 1500.17,718.167 1500.83,718.833 1501.5,719.5C 1502.73,718.349 1502.73,717.183 1501.5,716C 1504.42,712.741 1507.58,709.908 1511,707.5C 1512.05,708.517 1513.22,708.684 1514.5,708C 1517.93,705.565 1521.6,703.565 1525.5,702C 1527.46,699.252 1529.29,696.418 1531,693.5C 1532,693.833 1533,694.167 1534,694.5C 1534.75,692.668 1535.75,691.001 1537,689.5C 1537.33,689.833 1537.67,690.167 1538,690.5C 1542.41,687.435 1547.24,685.269 1552.5,684C 1552.98,682.992 1553.15,681.825 1553,680.5C 1554.33,679.833 1555.33,678.833 1556,677.5C 1559.59,678.436 1561.76,676.936 1562.5,673C 1563.77,673.109 1564.77,672.942 1565.5,672.5 Z"/></g>
<g><path style="opacity:0.706" fill="#7c2712" d="M 1350.5,1211.5 C 1333.42,1198.42 1316.09,1185.75 1298.5,1173.5C 1298.78,1172.71 1299.28,1172.04 1300,1171.5C 1302.63,1171.93 1304.96,1172.93 1307,1174.5C 1307.33,1174.17 1307.67,1173.83 1308,1173.5C 1310.34,1178.11 1314.17,1180.94 1319.5,1182C 1319.17,1182.33 1318.83,1182.67 1318.5,1183C 1319.89,1184.65 1321.39,1185.15 1323,1184.5C 1323.88,1188.51 1326.38,1190.51 1330.5,1190.5C 1330.29,1191.09 1329.96,1191.59 1329.5,1192C 1330.77,1192.9 1331.77,1194.07 1332.5,1195.5C 1334.85,1196.06 1337.19,1196.73 1339.5,1197.5C 1343.62,1201.63 1347.95,1205.3 1352.5,1208.5C 1351.39,1209.27 1350.72,1210.27 1350.5,1211.5 Z"/></g>
<g><path style="opacity:0.58" fill="#852c16" d="M 1378.5,1232.5 C 1371.62,1228.56 1365.29,1223.9 1359.5,1218.5C 1360.55,1218.1 1360.55,1217.43 1359.5,1216.5C 1360.36,1215.42 1361.36,1215.25 1362.5,1216C 1364.21,1217.38 1365.55,1219.04 1366.5,1221C 1370.84,1222.01 1374.01,1224.51 1376,1228.5C 1376.33,1228.17 1376.67,1227.83 1377,1227.5C 1379.3,1228.88 1379.8,1230.54 1378.5,1232.5 Z"/></g>
<g><path style="opacity:0.004" fill="#9b1408" d="M 1225.5,1249.5 C 1226.29,1249.78 1226.96,1250.28 1227.5,1251C 1226.18,1251.53 1225.52,1251.03 1225.5,1249.5 Z"/></g>
<g><path style="opacity:0.004" fill="#d01406" d="M 1003.5,1664.5 C 1006.2,1667.27 1005.87,1667.77 1002.5,1666C 1003.06,1665.62 1003.39,1665.12 1003.5,1664.5 Z"/></g>
</svg>
