<?xml version="1.0" encoding="UTF-8"?>
<!DOCTYPE svg PUBLIC "-//W3C//DTD SVG 1.1//EN" "http://www.w3.org/Graphics/SVG/1.1/DTD/svg11.dtd">
<svg xmlns="http://www.w3.org/2000/svg" version="1.1" width="2048px" height="2048px" style="shape-rendering:geometricPrecision; text-rendering:geometricPrecision; image-rendering:optimizeQuality; fill-rule:evenodd; clip-rule:evenodd" xmlns:xlink="http://www.w3.org/1999/xlink">
<g><path style="opacity:1" fill="#bb4225" d="M 1063.5,398.5 C 1251.98,407.164 1407.48,482.497 1530,624.5C 1542.82,639.814 1554.66,655.814 1565.5,672.5C 1564.77,672.942 1563.77,673.109 1562.5,673C 1561.76,676.936 1559.59,678.436 1556,677.5C 1555.33,678.833 1554.33,679.833 1553,680.5C 1553.15,681.825 1552.98,682.992 1552.5,684C 1547.24,685.269 1542.41,687.435 1538,690.5C 1537.67,690.167 1537.33,689.833 1537,689.5C 1535.75,691.001 1534.75,692.668 1534,694.5C 1533,694.167 1532,693.833 1531,693.5C 1529.29,696.418 1527.46,699.252 1525.5,702C 1521.6,703.565 1517.93,705.565 1514.5,708C 1513.22,708.684 1512.05,708.517 1511,707.5C 1507.58,709.908 1504.42,712.741 1501.5,716C 1502.73,717.183 1502.73,718.349 1501.5,719.5C 1500.83,718.833 1500.17,718.167 1499.5,717.5C 1497.47,717.894 1495.14,718.227 1492.5,718.5C 1492.65,719.552 1492.48,720.552 1492,721.5C 1490.2,724.051 1488.2,726.385 1486,728.5C 1485.03,726.122 1484.36,726.456 1484,729.5C 1482.23,728.724 1480.4,728.89 1478.5,730C 1479.36,730.689 1480.02,731.522 1480.5,732.5C 1478.78,733.934 1476.78,734.767 1474.5,735C 1473.81,736.067 1473.31,737.234 1473,738.5C 1472.67,737.833 1472.33,737.167 1472,736.5C 1470.01,738.177 1467.84,739.677 1465.5,741C 1461.78,739.863 1459.78,741.363 1459.5,745.5C 1458.13,745.343 1456.79,745.51 1455.5,746C 1449.28,749.923 1443.78,753.757 1439,757.5C 1438.23,757.355 1437.56,757.022 1437,756.5C 1435.17,760.143 1432.84,763.477 1430,766.5C 1428.33,766.167 1426.67,765.833 1425,765.5C 1422.33,768.167 1419.67,770.833 1417,773.5C 1416.67,772.833 1416.33,772.167 1416,771.5C 1412.7,774.345 1409.87,777.678 1407.5,781.5C 1406.81,780.975 1406.31,780.308 1406,779.5C 1405.39,781.481 1404.39,781.815 1403,780.5C 1400.04,783.425 1396.87,786.091 1393.5,788.5C 1391.56,789.189 1389.56,789.689 1387.5,790C 1388.26,791.364 1387.76,792.531 1386,793.5C 1385.59,793.043 1385.09,792.709 1384.5,792.5C 1383.64,794.197 1382.3,795.363 1380.5,796C 1381.17,796.667 1381.83,797.333 1382.5,798C 1377.99,799.844 1373.82,802.344 1370,805.5C 1368.49,804.465 1366.99,804.632 1365.5,806C 1362.49,809.114 1359.16,811.781 1355.5,814C 1354.85,815.609 1354.02,817.109 1353,818.5C 1352.33,817.167 1351.67,817.167 1351,818.5C 1350.4,816.314 1349.23,816.148 1347.5,818C 1345.98,820.204 1344.65,822.538 1343.5,825C 1340.89,825.224 1338.39,824.724 1336,823.5C 1334.38,826.784 1332.05,829.451 1329,831.5C 1328.52,832.448 1328.35,833.448 1328.5,834.5C 1326.8,834.966 1325.3,834.966 1324,834.5C 1323.68,836.301 1323.02,836.634 1322,835.5C 1321.64,838.544 1320.97,838.878 1320,836.5C 1319.25,837.126 1318.42,837.626 1317.5,838C 1318.46,839.147 1318.12,840.147 1316.5,841C 1318.93,841.451 1319.1,842.285 1317,843.5C 1314.55,843.059 1312.05,843.559 1309.5,845C 1306.18,846.823 1303.51,849.323 1301.5,852.5C 1299.88,853.154 1298.22,853.654 1296.5,854C 1297.71,855.113 1297.71,856.28 1296.5,857.5C 1294.54,858.292 1292.54,858.959 1290.5,859.5C 1288.88,858.509 1287.88,859.176 1287.5,861.5C 1287.83,862.167 1288.17,862.833 1288.5,863.5C 1285.81,864.507 1283.14,865.507 1280.5,866.5C 1225.77,790.95 1151.44,749.95 1057.5,743.5C 1057.59,742.504 1057.25,741.671 1056.5,741C 1057.45,737.969 1058.45,734.969 1059.5,732C 1058.27,729.973 1058.6,728.64 1060.5,728C 1059.83,726.667 1059.17,725.333 1058.5,724C 1059.27,721.595 1059.77,719.095 1060,716.5C 1060.33,717.5 1060.67,718.5 1061,719.5C 1061.17,718.833 1061.33,718.167 1061.5,717.5C 1060.64,715.913 1059.97,714.246 1059.5,712.5C 1060.44,708.356 1061.44,704.189 1062.5,700C 1062.11,698.989 1061.44,698.489 1060.5,698.5C 1060.28,696.058 1060.28,693.558 1060.5,691C 1060.24,689.739 1059.57,688.739 1058.5,688C 1059.47,685.782 1060.14,683.449 1060.5,681C 1060.66,678.395 1060.33,676.061 1059.5,674C 1061.79,671.468 1061.46,669.135 1058.5,667C 1060.3,666.683 1060.63,666.016 1059.5,665C 1060.04,661.509 1061.04,658.175 1062.5,655C 1061.35,653.27 1061.35,651.604 1062.5,650C 1061.83,649.667 1061.17,649.333 1060.5,649C 1062.8,646.193 1062.47,643.526 1059.5,641C 1059.25,637.279 1059.58,633.446 1060.5,629.5C 1061.69,629.03 1062.36,628.03 1062.5,626.5C 1061.34,623.989 1060.68,621.322 1060.5,618.5C 1060.94,616.874 1061.27,615.207 1061.5,613.5C 1060.77,610.683 1060.1,608.183 1059.5,606C 1062.02,602.629 1062.02,599.295 1059.5,596C 1061.08,592.815 1062.41,589.481 1063.5,586C 1062.82,583.658 1063.16,581.324 1064.5,579C 1061.25,577.768 1060.91,575.768 1063.5,573C 1062.9,568.681 1061.57,564.681 1059.5,561C 1061.29,558.542 1062.29,555.709 1062.5,552.5C 1062.18,551.353 1061.52,550.519 1060.5,550C 1061.83,548.333 1061.83,546.667 1060.5,545C 1062.78,543.518 1062.78,541.851 1060.5,540C 1064.43,538.848 1065.09,536.848 1062.5,534C 1062.83,533.667 1063.17,533.333 1063.5,533C 1062.33,532.581 1061.33,531.915 1060.5,531C 1061.83,529.333 1061.83,527.667 1060.5,526C 1061.5,525.167 1062.5,524.333 1063.5,523.5C 1063.44,521.138 1063.44,518.805 1063.5,516.5C 1061.12,512.589 1061.12,508.755 1063.5,505C 1062.83,503.333 1062.17,501.667 1061.5,500C 1062.62,497.335 1063.29,494.835 1063.5,492.5C 1063.06,491.494 1062.4,491.494 1061.5,492.5C 1060.76,491.009 1060.09,489.509 1059.5,488C 1063.27,485.921 1064.27,482.921 1062.5,479C 1063.07,476.102 1064.07,473.102 1065.5,470C 1064.17,469.333 1063.17,468.333 1062.5,467C 1062.15,464.945 1062.82,462.945 1064.5,461C 1061.6,458.295 1061.26,455.462 1063.5,452.5C 1062.96,451.259 1062.3,450.092 1061.5,449C 1062.24,444.463 1063.57,440.129 1065.5,436C 1064.43,433.343 1062.76,431.177 1060.5,429.5C 1062.26,426.066 1063.93,422.566 1065.5,419C 1064.67,418.085 1063.67,417.419 1062.5,417C 1063.19,412.427 1064.19,407.593 1065.5,402.5C 1064.82,401.14 1064.15,399.807 1063.5,398.5 Z"/></g>
<g><path style="opacity:0.004" fill="#e13413" d="M 969.5,402.5 C 970.713,403.497 970.546,404.497 969,405.5C 968.53,404.423 968.697,403.423 969.5,402.5 Z"/></g>
<g><path style="opacity:0.622" fill="#b54024" d="M 1050.5,398.5 C 1049.52,401.863 1049.85,405.53 1051.5,409.5C 1050.43,412.894 1050.43,416.561 1051.5,420.5C 1050.7,421.941 1050.03,423.441 1049.5,425C 1050.85,426.555 1051.51,428.389 1051.5,430.5C 1049.8,436.039 1049.14,441.372 1049.5,446.5C 1049.76,448.187 1050.43,449.687 1051.5,451C 1050.43,454.245 1049.43,457.411 1048.5,460.5C 1047.84,439.473 1048.51,418.806 1050.5,398.5 Z"/></g>
<g><path style="opacity:0.082" fill="#c93d1b" d="M 764.5,464.5 C 765.877,472.388 765.71,480.388 764,488.5C 763.47,482.836 762.97,477.169 762.5,471.5C 762.643,468.887 763.31,466.553 764.5,464.5 Z"/></g>
<g><path style="opacity:0.012" fill="#bd4f28" d="M 733.5,480.5 C 734.641,483.64 734.808,486.973 734,490.5C 733.782,487.574 733.282,484.74 732.5,482C 733.056,481.617 733.389,481.117 733.5,480.5 Z"/></g>
<g><path style="opacity:0.737" fill="#ad3c22" d="M 1048.5,461.5 C 1049.45,462.452 1050.45,463.452 1051.5,464.5C 1050.41,469.621 1050.41,474.788 1051.5,480C 1050.69,480.308 1050.03,480.808 1049.5,481.5C 1054.43,485.079 1054.1,488.413 1048.5,491.5C 1048.5,481.5 1048.5,471.5 1048.5,461.5 Z"/></g>
<g><path style="opacity:0.055" fill="#b93f22" d="M 703.5,498.5 C 704.651,503.65 704.817,508.984 704,514.5C 703.348,509.923 702.515,505.423 701.5,501C 702.381,500.292 703.047,499.458 703.5,498.5 Z"/></g>
<g><path style="opacity:0.81" fill="#99341c" d="M 1048.5,494.5 C 1049.45,495.919 1049.78,497.585 1049.5,499.5C 1051.1,499.312 1052.44,499.812 1053.5,501C 1051.64,504.743 1050.31,508.743 1049.5,513C 1050.17,513.667 1050.83,514.333 1051.5,515C 1050.17,516.333 1050.17,517.667 1051.5,519C 1050.69,519.308 1050.03,519.808 1049.5,520.5C 1051,524.569 1051.67,528.236 1051.5,531.5C 1050.62,532.548 1049.95,533.715 1049.5,535C 1053.29,537.736 1054.29,541.236 1052.5,545.5C 1049.07,545.35 1048.74,546.516 1051.5,549C 1050.82,551.342 1051.16,553.676 1052.5,556C 1051.01,558.793 1049.68,561.626 1048.5,564.5C 1048.5,541.167 1048.5,517.833 1048.5,494.5 Z"/></g>
<g><path style="opacity:1" fill="#6e210f" d="M 1050.5,398.5 C 1054.83,398.5 1059.17,398.5 1063.5,398.5C 1064.15,399.807 1064.82,401.14 1065.5,402.5C 1064.19,407.593 1063.19,412.427 1062.5,417C 1063.67,417.419 1064.67,418.085 1065.5,419C 1063.93,422.566 1062.26,426.066 1060.5,429.5C 1062.76,431.177 1064.43,433.343 1065.5,436C 1063.57,440.129 1062.24,444.463 1061.5,449C 1062.3,450.092 1062.96,451.259 1063.5,452.5C 1061.26,455.462 1061.6,458.295 1064.5,461C 1062.82,462.945 1062.15,464.945 1062.5,467C 1063.17,468.333 1064.17,469.333 1065.5,470C 1064.07,473.102 1063.07,476.102 1062.5,479C 1064.27,482.921 1063.27,485.921 1059.5,488C 1060.09,489.509 1060.76,491.009 1061.5,492.5C 1062.4,491.494 1063.06,491.494 1063.5,492.5C 1063.29,494.835 1062.62,497.335 1061.5,500C 1062.17,501.667 1062.83,503.333 1063.5,505C 1061.12,508.755 1061.12,512.589 1063.5,516.5C 1063.44,518.805 1063.44,521.138 1063.5,523.5C 1062.5,524.333 1061.5,525.167 1060.5,526C 1061.83,527.667 1061.83,529.333 1060.5,531C 1061.33,531.915 1062.33,532.581 1063.5,533C 1063.17,533.333 1062.83,533.667 1062.5,534C 1065.09,536.848 1064.43,538.848 1060.5,540C 1062.78,541.851 1062.78,543.518 1060.5,545C 1061.83,546.667 1061.83,548.333 1060.5,550C 1061.52,550.519 1062.18,551.353 1062.5,552.5C 1062.29,555.709 1061.29,558.542 1059.5,561C 1061.57,564.681 1062.9,568.681 1063.5,573C 1060.91,575.768 1061.25,577.768 1064.5,579C 1063.16,581.324 1062.82,583.658 1063.5,586C 1062.41,589.481 1061.08,592.815 1059.5,596C 1062.02,599.295 1062.02,602.629 1059.5,606C 1060.1,608.183 1060.77,610.683 1061.5,613.5C 1061.27,615.207 1060.94,616.874 1060.5,618.5C 1057.86,620.838 1058.19,623.005 1061.5,625C 1060.5,625.333 1059.5,625.667 1058.5,626C 1059.65,626.914 1059.49,627.747 1058,628.5C 1057.67,626.167 1057.33,623.833 1057,621.5C 1056.5,622 1056,622.5 1055.5,623C 1056.83,624.333 1056.83,625.667 1055.5,627C 1053.87,627.494 1052.2,627.66 1050.5,627.5C 1050.21,625.712 1050.55,624.045 1051.5,622.5C 1052.32,624.748 1053.32,624.914 1054.5,623C 1054.17,622.667 1053.83,622.333 1053.5,622C 1054.67,621.581 1055.67,620.915 1056.5,620C 1054.94,619.059 1053.61,617.892 1052.5,616.5C 1051.74,613.882 1051.74,611.049 1052.5,608C 1049.68,606.526 1049.34,605.026 1051.5,603.5C 1051.12,601.787 1050.12,600.787 1048.5,600.5C 1048.5,588.5 1048.5,576.5 1048.5,564.5C 1049.68,561.626 1051.01,558.793 1052.5,556C 1051.16,553.676 1050.82,551.342 1051.5,549C 1048.74,546.516 1049.07,545.35 1052.5,545.5C 1054.29,541.236 1053.29,537.736 1049.5,535C 1049.95,533.715 1050.62,532.548 1051.5,531.5C 1051.67,528.236 1051,524.569 1049.5,520.5C 1050.03,519.808 1050.69,519.308 1051.5,519C 1050.17,517.667 1050.17,516.333 1051.5,515C 1050.83,514.333 1050.17,513.667 1049.5,513C 1050.31,508.743 1051.64,504.743 1053.5,501C 1052.44,499.812 1051.1,499.312 1049.5,499.5C 1049.78,497.585 1049.45,495.919 1048.5,494.5C 1048.5,493.5 1048.5,492.5 1048.5,491.5C 1054.1,488.413 1054.43,485.079 1049.5,481.5C 1050.03,480.808 1050.69,480.308 1051.5,480C 1050.41,474.788 1050.41,469.621 1051.5,464.5C 1050.45,463.452 1049.45,462.452 1048.5,461.5C 1048.5,461.167 1048.5,460.833 1048.5,460.5C 1049.43,457.411 1050.43,454.245 1051.5,451C 1050.43,449.687 1049.76,448.187 1049.5,446.5C 1049.14,441.372 1049.8,436.039 1051.5,430.5C 1051.51,428.389 1050.85,426.555 1049.5,425C 1050.03,423.441 1050.7,421.941 1051.5,420.5C 1050.43,416.561 1050.43,412.894 1051.5,409.5C 1049.85,405.53 1049.52,401.863 1050.5,398.5 Z"/></g>
<g><path style="opacity:0.004" fill="#000000" d="M 532.5,622.5 C 533.833,623.167 533.833,623.167 532.5,622.5 Z"/></g>
<g><path style="opacity:0.004" fill="#000000" d="M 528.5,627.5 C 529.833,628.167 529.833,628.167 528.5,627.5 Z"/></g>
<g><path style="opacity:0.004" fill="#fe0000" d="M 528.5,628.5 C 527.833,629.167 527.833,629.167 528.5,628.5 Z"/></g>
<g><path style="opacity:0.004" fill="#000000" d="M 525.5,630.5 C 526.833,631.167 526.833,631.167 525.5,630.5 Z"/></g>
<g><path style="opacity:0.004" fill="#000000" d="M 524.5,632.5 C 525.833,633.167 525.833,633.167 524.5,632.5 Z"/></g>
<g><path style="opacity:0.004" fill="#fe0000" d="M 522.5,634.5 C 523.833,635.167 523.833,635.167 522.5,634.5 Z"/></g>
<g><path style="opacity:0.008" fill="#fe8000" d="M 521.5,636.5 C 522.833,637.167 522.833,637.167 521.5,636.5 Z"/></g>
<g><path style="opacity:0.004" fill="#fe0000" d="M 521.5,637.5 C 520.833,638.167 520.833,638.167 521.5,637.5 Z"/></g>
<g><path style="opacity:0.004" fill="#fe0000" d="M 520.5,638.5 C 519.833,639.167 519.833,639.167 520.5,638.5 Z"/></g>
<g><path style="opacity:0.012" fill="#744b32" d="M 517.5,642.5 C 517.517,640.972 518.184,640.472 519.5,641C 518.956,641.717 518.289,642.217 517.5,642.5 Z"/></g>
<g><path style="opacity:0.008" fill="#7f0000" d="M 517.5,642.5 C 516.833,643.167 516.833,643.167 517.5,642.5 Z"/></g>
<g><path style="opacity:0.016" fill="#ca4039" d="M 514.5,646.5 C 514.517,644.972 515.184,644.472 516.5,645C 515.956,645.717 515.289,646.217 514.5,646.5 Z"/></g>
<g><path style="opacity:0.008" fill="#7f0000" d="M 514.5,646.5 C 513.833,647.167 513.833,647.167 514.5,646.5 Z"/></g>
<g><path style="opacity:0.008" fill="#641206" d="M 513.5,647.5 C 513.539,648.756 513.039,649.756 512,650.5C 511.415,649.002 511.915,648.002 513.5,647.5 Z"/></g>
<g><path style="opacity:1" fill="#6e210f" d="M 1060.5,629.5 C 1059.58,633.446 1059.25,637.279 1059.5,641C 1062.47,643.526 1062.8,646.193 1060.5,649C 1061.17,649.333 1061.83,649.667 1062.5,650C 1061.35,651.604 1061.35,653.27 1062.5,655C 1061.04,658.175 1060.04,661.509 1059.5,665C 1060.63,666.016 1060.3,666.683 1058.5,667C 1061.46,669.135 1061.79,671.468 1059.5,674C 1060.33,676.061 1060.66,678.395 1060.5,681C 1060.14,683.449 1059.47,685.782 1058.5,688C 1059.57,688.739 1060.24,689.739 1060.5,691C 1060.28,693.558 1060.28,696.058 1060.5,698.5C 1061.44,698.489 1062.11,698.989 1062.5,700C 1061.44,704.189 1060.44,708.356 1059.5,712.5C 1059.97,714.246 1060.64,715.913 1061.5,717.5C 1061.33,718.167 1061.17,718.833 1061,719.5C 1060.67,718.5 1060.33,717.5 1060,716.5C 1059.77,719.095 1059.27,721.595 1058.5,724C 1059.17,725.333 1059.83,726.667 1060.5,728C 1058.6,728.64 1058.27,729.973 1059.5,732C 1058.45,734.969 1057.45,737.969 1056.5,741C 1057.25,741.671 1057.59,742.504 1057.5,743.5C 1055.17,743.5 1052.83,743.5 1050.5,743.5C 1051.95,742.175 1051.62,741.342 1049.5,741C 1050.71,739.887 1050.71,738.72 1049.5,737.5C 1049.84,735.575 1051.17,734.075 1053.5,733C 1051.91,733.617 1050.57,733.284 1049.5,732C 1050.17,731.333 1050.83,730.667 1051.5,730C 1050.22,726.717 1048.89,723.55 1047.5,720.5C 1048.44,712.221 1048.77,703.888 1048.5,695.5C 1050.65,695.611 1050.98,694.944 1049.5,693.5C 1050.97,690.851 1051.97,688.018 1052.5,685C 1051.89,682.942 1050.89,682.109 1049.5,682.5C 1049.9,676.627 1049.9,670.961 1049.5,665.5C 1050.85,662.838 1051.52,660.005 1051.5,657C 1051.49,652.337 1051.16,647.837 1050.5,643.5C 1051.5,642.667 1052.5,641.833 1053.5,641C 1051.97,640.3 1050.97,639.134 1050.5,637.5C 1051.62,636.402 1051.62,635.235 1050.5,634C 1051.2,632.107 1052.03,630.274 1053,628.5C 1054.01,628.982 1055.18,629.148 1056.5,629C 1057.13,629.75 1057.63,630.584 1058,631.5C 1058.42,630.244 1059.25,629.577 1060.5,629.5 Z"/></g>
<g><path style="opacity:0.937" fill="#862c16" d="M 1048.5,600.5 C 1050.12,600.787 1051.12,601.787 1051.5,603.5C 1049.34,605.026 1049.68,606.526 1052.5,608C 1051.74,611.049 1051.74,613.882 1052.5,616.5C 1053.61,617.892 1054.94,619.059 1056.5,620C 1055.67,620.915 1054.67,621.581 1053.5,622C 1053.83,622.333 1054.17,622.667 1054.5,623C 1053.32,624.914 1052.32,624.748 1051.5,622.5C 1050.55,624.045 1050.21,625.712 1050.5,627.5C 1052.2,627.66 1053.87,627.494 1055.5,627C 1056.83,625.667 1056.83,624.333 1055.5,623C 1056,622.5 1056.5,622 1057,621.5C 1057.33,623.833 1057.67,626.167 1058,628.5C 1059.49,627.747 1059.65,626.914 1058.5,626C 1059.5,625.667 1060.5,625.333 1061.5,625C 1058.19,623.005 1057.86,620.838 1060.5,618.5C 1060.68,621.322 1061.34,623.989 1062.5,626.5C 1062.36,628.03 1061.69,629.03 1060.5,629.5C 1059.25,629.577 1058.42,630.244 1058,631.5C 1057.63,630.584 1057.13,629.75 1056.5,629C 1055.18,629.148 1054.01,628.982 1053,628.5C 1052.03,630.274 1051.2,632.107 1050.5,634C 1051.62,635.235 1051.62,636.402 1050.5,637.5C 1050.97,639.134 1051.97,640.3 1053.5,641C 1052.5,641.833 1051.5,642.667 1050.5,643.5C 1051.16,647.837 1051.49,652.337 1051.5,657C 1051.52,660.005 1050.85,662.838 1049.5,665.5C 1049.9,670.961 1049.9,676.627 1049.5,682.5C 1050.89,682.109 1051.89,682.942 1052.5,685C 1051.97,688.018 1050.97,690.851 1049.5,693.5C 1050.98,694.944 1050.65,695.611 1048.5,695.5C 1048.5,663.833 1048.5,632.167 1048.5,600.5 Z"/></g>
<g><path style="opacity:1" fill="#bb4225" d="M 1572.5,682.5 C 1659.97,819.669 1691.8,969.003 1668,1130.5C 1653.13,1222.33 1619.96,1306.66 1568.5,1383.5C 1566.07,1382.26 1566.07,1381.09 1568.5,1380C 1567.31,1378.91 1565.97,1378.07 1564.5,1377.5C 1563.83,1377.17 1563.17,1376.83 1562.5,1376.5C 1561.32,1374.93 1559.65,1374.1 1557.5,1374C 1557.96,1373.59 1558.29,1373.09 1558.5,1372.5C 1556.65,1371.41 1554.98,1370.07 1553.5,1368.5C 1551.52,1368.7 1549.52,1368.03 1547.5,1366.5C 1545.8,1365.11 1545.13,1363.61 1545.5,1362C 1543.75,1361.53 1542.09,1360.86 1540.5,1360C 1540.5,1359 1540.5,1358 1540.5,1357C 1539.21,1356.51 1537.87,1356.34 1536.5,1356.5C 1536.5,1355.5 1536.5,1354.5 1536.5,1353.5C 1535.5,1353.5 1534.5,1353.5 1533.5,1353.5C 1533.5,1352.5 1533.5,1351.5 1533.5,1350.5C 1524.69,1346.96 1516.69,1341.96 1509.5,1335.5C 1508.61,1334.68 1508.28,1333.68 1508.5,1332.5C 1506.69,1332.51 1505.02,1332.01 1503.5,1331C 1503.83,1330.67 1504.17,1330.33 1504.5,1330C 1503.11,1328.35 1501.61,1327.85 1500,1328.5C 1498.92,1326.63 1497.58,1324.96 1496,1323.5C 1495.67,1323.83 1495.33,1324.17 1495,1324.5C 1494.41,1322.14 1492.91,1321.14 1490.5,1321.5C 1490.64,1319.88 1489.97,1318.71 1488.5,1318C 1489.17,1317.67 1489.83,1317.33 1490.5,1317C 1487.8,1316.31 1485.64,1314.81 1484,1312.5C 1482.93,1313.28 1481.76,1313.11 1480.5,1312C 1481.83,1311.33 1481.83,1310.67 1480.5,1310C 1479.17,1309.67 1477.83,1309.33 1476.5,1309C 1476.12,1307.16 1474.96,1305.33 1473,1303.5C 1472.15,1304.42 1471.15,1304.42 1470,1303.5C 1468.16,1302.33 1466.66,1300.83 1465.5,1299C 1463.79,1298.8 1462.13,1298.8 1460.5,1299C 1459.21,1295.64 1457.05,1294.14 1454,1294.5C 1453.67,1293.83 1453.33,1293.17 1453,1292.5C 1451.16,1293.83 1450.66,1293.67 1451.5,1292C 1450.83,1291.33 1450.17,1290.67 1449.5,1290C 1452.86,1290.8 1453.36,1289.63 1451,1286.5C 1449.2,1284.68 1447.03,1283.52 1444.5,1283C 1444.83,1282.67 1445.17,1282.33 1445.5,1282C 1444.5,1281.67 1443.5,1281.33 1442.5,1281C 1441.17,1280.33 1441.17,1279.67 1442.5,1279C 1441.07,1278.53 1439.9,1277.7 1439,1276.5C 1438.67,1276.83 1438.33,1277.17 1438,1277.5C 1437.52,1276.55 1437.35,1275.55 1437.5,1274.5C 1433.5,1275.33 1430.84,1273.83 1429.5,1270C 1423.92,1267.71 1419.25,1264.21 1415.5,1259.5C 1412.24,1259.87 1409.57,1258.54 1407.5,1255.5C 1407.71,1254.91 1408.04,1254.41 1408.5,1254C 1404.63,1253.06 1401.96,1250.73 1400.5,1247C 1398.73,1245.56 1396.73,1244.56 1394.5,1244C 1395.45,1243.28 1395.62,1242.45 1395,1241.5C 1393,1239.4 1390.83,1238.4 1388.5,1238.5C 1387.61,1237.68 1387.28,1236.68 1387.5,1235.5C 1385.1,1234.95 1382.77,1234.12 1380.5,1233C 1379.88,1230.82 1378.72,1228.99 1377,1227.5C 1376.67,1227.83 1376.33,1228.17 1376,1228.5C 1373.12,1223.61 1369.12,1220.94 1364,1220.5C 1363.5,1219.33 1362.67,1218.5 1361.5,1218C 1363.3,1217.68 1363.63,1217.02 1362.5,1216C 1361.22,1215.32 1360.05,1215.48 1359,1216.5C 1356.92,1213.45 1354.09,1211.29 1350.5,1210C 1352.48,1209.39 1352.81,1208.39 1351.5,1207C 1350.06,1206.78 1348.73,1206.28 1347.5,1205.5C 1346.48,1203.81 1345.15,1202.48 1343.5,1201.5C 1342.05,1200.7 1340.38,1200.2 1338.5,1200C 1338.04,1199.59 1337.71,1199.09 1337.5,1198.5C 1338.17,1198.17 1338.83,1197.83 1339.5,1197.5C 1337.19,1196.73 1334.85,1196.06 1332.5,1195.5C 1331.77,1194.07 1330.77,1192.9 1329.5,1192C 1329.96,1191.59 1330.29,1191.09 1330.5,1190.5C 1328.5,1189.71 1326.5,1189.04 1324.5,1188.5C 1324.29,1187.08 1323.79,1185.74 1323,1184.5C 1321.39,1185.15 1319.89,1184.65 1318.5,1183C 1318.83,1182.67 1319.17,1182.33 1319.5,1182C 1314.17,1180.94 1310.34,1178.11 1308,1173.5C 1307.67,1173.83 1307.33,1174.17 1307,1174.5C 1304.96,1172.93 1302.63,1171.93 1300,1171.5C 1298.98,1172.63 1298.32,1172.3 1298,1170.5C 1297.67,1170.83 1297.33,1171.17 1297,1171.5C 1296.21,1170.26 1295.71,1168.92 1295.5,1167.5C 1337.55,1085.74 1341.72,1002.08 1308,916.5C 1300.98,901.798 1293.48,887.464 1285.5,873.5C 1291.4,870.965 1297.24,868.298 1303,865.5C 1305.34,863.446 1307.68,861.446 1310,859.5C 1310.33,859.833 1310.67,860.167 1311,860.5C 1312.58,859.139 1314.42,858.472 1316.5,858.5C 1316.35,857.448 1316.52,856.448 1317,855.5C 1319.38,853.689 1321.05,851.355 1322,848.5C 1322.72,849.059 1323.56,849.392 1324.5,849.5C 1327.09,848.246 1329.75,847.079 1332.5,846C 1331.35,845.086 1331.51,844.253 1333,843.5C 1333.91,844.654 1334.75,844.487 1335.5,843C 1335.17,842.667 1334.83,842.333 1334.5,842C 1336.86,841.803 1338.53,840.636 1339.5,838.5C 1341.37,837.233 1343.2,837.233 1345,838.5C 1345.63,833.182 1348.46,831.016 1353.5,832C 1356.29,830.375 1358.46,828.208 1360,825.5C 1360.31,826.308 1360.81,826.975 1361.5,827.5C 1362.94,826.135 1364.27,824.635 1365.5,823C 1366.79,822.51 1368.13,822.343 1369.5,822.5C 1370.67,820.187 1372,817.854 1373.5,815.5C 1374.92,814.453 1376.42,814.453 1378,815.5C 1380.02,815.2 1380.52,814.367 1379.5,813C 1380.45,812.517 1381.45,812.351 1382.5,812.5C 1382.35,811.448 1382.52,810.448 1383,809.5C 1383.33,809.833 1383.67,810.167 1384,810.5C 1389.1,806.195 1394.6,802.528 1400.5,799.5C 1401.39,798.675 1401.72,797.675 1401.5,796.5C 1402.98,796.762 1404.31,796.429 1405.5,795.5C 1406.5,793.167 1408.17,791.5 1410.5,790.5C 1411.17,790.833 1411.83,791.167 1412.5,791.5C 1413.36,789.803 1414.7,788.637 1416.5,788C 1416.17,787.667 1415.83,787.333 1415.5,787C 1416.8,786.79 1418.14,786.957 1419.5,787.5C 1423.5,784.496 1427.84,781.996 1432.5,780C 1431.83,779.667 1431.17,779.333 1430.5,779C 1432.83,778 1435.17,777 1437.5,776C 1439.31,773.181 1441.48,770.681 1444,768.5C 1444.41,768.957 1444.91,769.291 1445.5,769.5C 1450.45,767.041 1453.95,763.708 1456,759.5C 1459.27,762.395 1461.1,762.061 1461.5,758.5C 1466.51,756.647 1470.84,753.813 1474.5,750C 1475.83,749.667 1477.17,749.333 1478.5,749C 1478.04,748.586 1477.71,748.086 1477.5,747.5C 1478.69,746.571 1480.02,746.238 1481.5,746.5C 1481.14,744.089 1482.14,742.589 1484.5,742C 1484.17,741.667 1483.83,741.333 1483.5,741C 1485.85,740.89 1487.35,739.723 1488,737.5C 1489.02,738.634 1489.68,738.301 1490,736.5C 1490.31,737.308 1490.81,737.975 1491.5,738.5C 1493.5,736.995 1495.34,735.328 1497,733.5C 1499.5,732.667 1502,731.833 1504.5,731C 1507.57,727.642 1511.07,724.809 1515,722.5C 1515.91,723.654 1516.75,723.487 1517.5,722C 1517.17,721.667 1516.83,721.333 1516.5,721C 1518.75,720.389 1520.42,719.056 1521.5,717C 1522.45,716.383 1523.28,716.549 1524,717.5C 1524.48,716.552 1524.65,715.552 1524.5,714.5C 1526.45,714.773 1527.95,714.107 1529,712.5C 1529.33,712.833 1529.67,713.167 1530,713.5C 1530.48,712.552 1530.65,711.552 1530.5,710.5C 1532.91,710.756 1534.58,709.756 1535.5,707.5C 1536.45,708.326 1537.45,708.492 1538.5,708C 1540.6,703.965 1543.93,701.965 1548.5,702C 1549.83,701.333 1549.83,700.667 1548.5,700C 1550.67,698.5 1552.5,696.667 1554,694.5C 1555.88,695.354 1557.71,695.021 1559.5,693.5C 1560.43,692.311 1560.76,690.978 1560.5,689.5C 1562.99,689.702 1565.32,689.202 1567.5,688C 1569.03,685.971 1570.7,684.138 1572.5,682.5 Z"/></g>
<g><path style="opacity:1" fill="#bb4225" d="M 768.5,858.5 C 767.897,861.138 769.231,862.471 772.5,862.5C 772.351,863.552 772.517,864.552 773,865.5C 775.72,867.881 778.72,869.881 782,871.5C 782.232,870.263 782.732,869.263 783.5,868.5C 784.167,868.5 784.5,868.833 784.5,869.5C 783.957,869.56 783.624,869.893 783.5,870.5C 785.023,872.618 786.69,874.618 788.5,876.5C 790.893,877.095 792.727,878.428 794,880.5C 794.561,879.978 795.228,879.645 796,879.5C 797.577,880.551 799.077,881.551 800.5,882.5C 751.991,969.977 747.657,1059.64 787.5,1151.5C 783.256,1152.29 779.756,1154.29 777,1157.5C 776.667,1157.17 776.333,1156.83 776,1156.5C 775.71,1158.04 775.044,1159.38 774,1160.5C 773.667,1159.83 773.333,1159.17 773,1158.5C 770.61,1159.89 768.943,1161.89 768,1164.5C 765.455,1163.2 762.955,1163.37 760.5,1165C 758.075,1166.7 756.742,1168.7 756.5,1171C 752.374,1172.97 748.374,1175.13 744.5,1177.5C 742.219,1180.23 739.219,1181.23 735.5,1180.5C 735.471,1183.66 733.804,1185.32 730.5,1185.5C 729.757,1186.91 728.923,1188.24 728,1189.5C 727.692,1188.69 727.192,1188.03 726.5,1187.5C 725.264,1188.25 723.93,1188.58 722.5,1188.5C 720.941,1191.1 719.274,1193.76 717.5,1196.5C 715.885,1197.15 714.218,1197.65 712.5,1198C 710.5,1200 708.5,1202 706.5,1204C 703.829,1205.9 700.829,1206.74 697.5,1206.5C 697.649,1207.55 697.483,1208.55 697,1209.5C 695.334,1208.66 695.167,1209.16 696.5,1211C 695.101,1211.59 693.768,1211.43 692.5,1210.5C 689.706,1212.95 686.04,1215.11 681.5,1217C 682.167,1217.33 682.833,1217.67 683.5,1218C 677.994,1221.35 672.327,1224.52 666.5,1227.5C 666.709,1228.09 667.043,1228.59 667.5,1229C 662.423,1230.54 658.423,1233.54 655.5,1238C 653.598,1238.2 652.098,1239.03 651,1240.5C 650.667,1240.17 650.333,1239.83 650,1239.5C 647.61,1240.89 645.943,1242.89 645,1245.5C 644.692,1244.69 644.192,1244.03 643.5,1243.5C 642.205,1244.1 640.872,1244.6 639.5,1245C 639.957,1245.41 640.291,1245.91 640.5,1246.5C 638.364,1247.47 637.197,1249.14 637,1251.5C 636.333,1250.83 635.667,1250.17 635,1249.5C 632.047,1251.45 628.881,1252.95 625.5,1254C 623.559,1255.82 622.892,1257.82 623.5,1260C 620.596,1258.25 618.263,1259.25 616.5,1263C 611.376,1264.81 607.543,1267.97 605,1272.5C 603.456,1269.74 602.289,1269.9 601.5,1273C 597.348,1273.38 595.015,1275.55 594.5,1279.5C 592.488,1278.99 590.488,1278.82 588.5,1279C 587.33,1280.75 585.663,1281.75 583.5,1282C 584.641,1282.74 584.641,1283.57 583.5,1284.5C 579.487,1285.04 576.82,1287.21 575.5,1291C 570.45,1293.33 565.45,1295.49 560.5,1297.5C 561.077,1300.55 559.91,1302.55 557,1303.5C 555.867,1301.79 554.367,1301.29 552.5,1302C 552.957,1302.41 553.291,1302.91 553.5,1303.5C 552.273,1304.59 551.44,1305.92 551,1307.5C 549.493,1306.47 547.993,1306.63 546.5,1308C 547.833,1309.33 547.833,1310.67 546.5,1312C 540.97,1313.91 535.303,1316.24 529.5,1319C 528.788,1320.43 528.621,1321.93 529,1323.5C 528.586,1323.04 528.086,1322.71 527.5,1322.5C 525.018,1323.9 522.352,1324.73 519.5,1325C 518.663,1326.01 518.33,1327.18 518.5,1328.5C 512.487,1329.59 507.653,1332.59 504,1337.5C 503.667,1337.17 503.333,1336.83 503,1336.5C 500.183,1338.93 497.017,1340.93 493.5,1342.5C 492.295,1343.58 491.628,1344.91 491.5,1346.5C 424.415,1225.57 398.915,1096.24 415,958.5C 427.435,859.007 461.268,767.674 516.5,684.5C 557.148,713.644 598.482,741.811 640.5,769C 683.058,799.102 725.725,828.935 768.5,858.5 Z"/></g>
<g><path style="opacity:0.004" fill="#bf1407" d="M 1018.5,734.5 C 1017.88,734.389 1017.38,734.056 1017,733.5C 1015.26,735.768 1013.09,737.435 1010.5,738.5C 1009.76,732.366 1012.43,729.366 1018.5,729.5C 1018.5,731.167 1018.5,732.833 1018.5,734.5 Z"/></g>
<g><path style="opacity:0.342" fill="#b74022" d="M 1047.5,720.5 C 1048.89,723.55 1050.22,726.717 1051.5,730C 1050.83,730.667 1050.17,731.333 1049.5,732C 1050.57,733.284 1051.91,733.617 1053.5,733C 1051.17,734.075 1049.84,735.575 1049.5,737.5C 1050.71,738.72 1050.71,739.887 1049.5,741C 1051.62,741.342 1051.95,742.175 1050.5,743.5C 1048.83,743.5 1047.17,743.5 1045.5,743.5C 1046.74,735.889 1047.41,728.223 1047.5,720.5 Z"/></g>
<g><path style="opacity:0.047" fill="#bb4421" d="M 1018.5,734.5 C 1019.37,737.418 1020.37,740.418 1021.5,743.5C 1017.68,745.145 1013.68,745.811 1009.5,745.5C 1009.67,743.139 1010.01,740.806 1010.5,738.5C 1013.09,737.435 1015.26,735.768 1017,733.5C 1017.38,734.056 1017.88,734.389 1018.5,734.5 Z"/></g>
<g><path style="opacity:1" fill="#722310" d="M 1565.5,672.5 C 1567.82,675.796 1570.15,679.129 1572.5,682.5C 1570.7,684.138 1569.03,685.971 1567.5,688C 1565.32,689.202 1562.99,689.702 1560.5,689.5C 1560.76,690.978 1560.43,692.311 1559.5,693.5C 1557.71,695.021 1555.88,695.354 1554,694.5C 1552.5,696.667 1550.67,698.5 1548.5,700C 1549.83,700.667 1549.83,701.333 1548.5,702C 1543.93,701.965 1540.6,703.965 1538.5,708C 1537.45,708.492 1536.45,708.326 1535.5,707.5C 1534.58,709.756 1532.91,710.756 1530.5,710.5C 1530.65,711.552 1530.48,712.552 1530,713.5C 1529.67,713.167 1529.33,712.833 1529,712.5C 1527.95,714.107 1526.45,714.773 1524.5,714.5C 1524.65,715.552 1524.48,716.552 1524,717.5C 1523.28,716.549 1522.45,716.383 1521.5,717C 1520.42,719.056 1518.75,720.389 1516.5,721C 1516.83,721.333 1517.17,721.667 1517.5,722C 1516.75,723.487 1515.91,723.654 1515,722.5C 1511.07,724.809 1507.57,727.642 1504.5,731C 1502,731.833 1499.5,732.667 1497,733.5C 1495.34,735.328 1493.5,736.995 1491.5,738.5C 1490.81,737.975 1490.31,737.308 1490,736.5C 1489.68,738.301 1489.02,738.634 1488,737.5C 1487.35,739.723 1485.85,740.89 1483.5,741C 1483.83,741.333 1484.17,741.667 1484.5,742C 1482.14,742.589 1481.14,744.089 1481.5,746.5C 1480.02,746.238 1478.69,746.571 1477.5,747.5C 1477.71,748.086 1478.04,748.586 1478.5,749C 1477.17,749.333 1475.83,749.667 1474.5,750C 1470.84,753.813 1466.51,756.647 1461.5,758.5C 1461.1,762.061 1459.27,762.395 1456,759.5C 1453.95,763.708 1450.45,767.041 1445.5,769.5C 1444.91,769.291 1444.41,768.957 1444,768.5C 1441.48,770.681 1439.31,773.181 1437.5,776C 1435.17,777 1432.83,778 1430.5,779C 1431.17,779.333 1431.83,779.667 1432.5,780C 1427.84,781.996 1423.5,784.496 1419.5,787.5C 1418.14,786.957 1416.8,786.79 1415.5,787C 1415.83,787.333 1416.17,787.667 1416.5,788C 1414.7,788.637 1413.36,789.803 1412.5,791.5C 1411.83,791.167 1411.17,790.833 1410.5,790.5C 1408.17,791.5 1406.5,793.167 1405.5,795.5C 1404.31,796.429 1402.98,796.762 1401.5,796.5C 1401.72,797.675 1401.39,798.675 1400.5,799.5C 1394.6,802.528 1389.1,806.195 1384,810.5C 1383.67,810.167 1383.33,809.833 1383,809.5C 1382.52,810.448 1382.35,811.448 1382.5,812.5C 1381.45,812.351 1380.45,812.517 1379.5,813C 1380.52,814.367 1380.02,815.2 1378,815.5C 1376.42,814.453 1374.92,814.453 1373.5,815.5C 1372,817.854 1370.67,820.187 1369.5,822.5C 1368.13,822.343 1366.79,822.51 1365.5,823C 1364.27,824.635 1362.94,826.135 1361.5,827.5C 1360.81,826.975 1360.31,826.308 1360,825.5C 1358.46,828.208 1356.29,830.375 1353.5,832C 1348.46,831.016 1345.63,833.182 1345,838.5C 1343.2,837.233 1341.37,837.233 1339.5,838.5C 1338.53,840.636 1336.86,841.803 1334.5,842C 1334.83,842.333 1335.17,842.667 1335.5,843C 1334.75,844.487 1333.91,844.654 1333,843.5C 1331.51,844.253 1331.35,845.086 1332.5,846C 1329.75,847.079 1327.09,848.246 1324.5,849.5C 1323.56,849.392 1322.72,849.059 1322,848.5C 1321.05,851.355 1319.38,853.689 1317,855.5C 1316.52,856.448 1316.35,857.448 1316.5,858.5C 1314.42,858.472 1312.58,859.139 1311,860.5C 1310.67,860.167 1310.33,859.833 1310,859.5C 1307.68,861.446 1305.34,863.446 1303,865.5C 1297.24,868.298 1291.4,870.965 1285.5,873.5C 1283.48,871.469 1281.81,869.135 1280.5,866.5C 1283.14,865.507 1285.81,864.507 1288.5,863.5C 1288.17,862.833 1287.83,862.167 1287.5,861.5C 1287.88,859.176 1288.88,858.509 1290.5,859.5C 1292.54,858.959 1294.54,858.292 1296.5,857.5C 1297.71,856.28 1297.71,855.113 1296.5,854C 1298.22,853.654 1299.88,853.154 1301.5,852.5C 1303.51,849.323 1306.18,846.823 1309.5,845C 1312.05,843.559 1314.55,843.059 1317,843.5C 1319.1,842.285 1318.93,841.451 1316.5,841C 1318.12,840.147 1318.46,839.147 1317.5,838C 1318.42,837.626 1319.25,837.126 1320,836.5C 1320.97,838.878 1321.64,838.544 1322,835.5C 1323.02,836.634 1323.68,836.301 1324,834.5C 1325.3,834.966 1326.8,834.966 1328.5,834.5C 1328.35,833.448 1328.52,832.448 1329,831.5C 1332.05,829.451 1334.38,826.784 1336,823.5C 1338.39,824.724 1340.89,825.224 1343.5,825C 1344.65,822.538 1345.98,820.204 1347.5,818C 1349.23,816.148 1350.4,816.314 1351,818.5C 1351.67,817.167 1352.33,817.167 1353,818.5C 1354.02,817.109 1354.85,815.609 1355.5,814C 1359.16,811.781 1362.49,809.114 1365.5,806C 1366.99,804.632 1368.49,804.465 1370,805.5C 1373.82,802.344 1377.99,799.844 1382.5,798C 1381.83,797.333 1381.17,796.667 1380.5,796C 1382.3,795.363 1383.64,794.197 1384.5,792.5C 1385.09,792.709 1385.59,793.043 1386,793.5C 1387.76,792.531 1388.26,791.364 1387.5,790C 1389.56,789.689 1391.56,789.189 1393.5,788.5C 1396.87,786.091 1400.04,783.425 1403,780.5C 1404.39,781.815 1405.39,781.481 1406,779.5C 1406.31,780.308 1406.81,780.975 1407.5,781.5C 1409.87,777.678 1412.7,774.345 1416,771.5C 1416.33,772.167 1416.67,772.833 1417,773.5C 1419.67,770.833 1422.33,768.167 1425,765.5C 1426.67,765.833 1428.33,766.167 1430,766.5C 1432.84,763.477 1435.17,760.143 1437,756.5C 1437.56,757.022 1438.23,757.355 1439,757.5C 1443.78,753.757 1449.28,749.923 1455.5,746C 1456.79,745.51 1458.13,745.343 1459.5,745.5C 1459.78,741.363 1461.78,739.863 1465.5,741C 1467.84,739.677 1470.01,738.177 1472,736.5C 1472.33,737.167 1472.67,737.833 1473,738.5C 1473.31,737.234 1473.81,736.067 1474.5,735C 1476.78,734.767 1478.78,733.934 1480.5,732.5C 1480.02,731.522 1479.36,730.689 1478.5,730C 1480.4,728.89 1482.23,728.724 1484,729.5C 1484.36,726.456 1485.03,726.122 1486,728.5C 1488.2,726.385 1490.2,724.051 1492,721.5C 1492.48,720.552 1492.65,719.552 1492.5,718.5C 1495.14,718.227 1497.47,717.894 1499.5,717.5C 1500.17,718.167 1500.83,718.833 1501.5,719.5C 1502.73,718.349 1502.73,717.183 1501.5,716C 1504.42,712.741 1507.58,709.908 1511,707.5C 1512.05,708.517 1513.22,708.684 1514.5,708C 1517.93,705.565 1521.6,703.565 1525.5,702C 1527.46,699.252 1529.29,696.418 1531,693.5C 1532,693.833 1533,694.167 1534,694.5C 1534.75,692.668 1535.75,691.001 1537,689.5C 1537.33,689.833 1537.67,690.167 1538,690.5C 1542.41,687.435 1547.24,685.269 1552.5,684C 1552.98,682.992 1553.15,681.825 1553,680.5C 1554.33,679.833 1555.33,678.833 1556,677.5C 1559.59,678.436 1561.76,676.936 1562.5,673C 1563.77,673.109 1564.77,672.942 1565.5,672.5 Z"/></g>
<g><path style="opacity:0.941" fill="#822a15" d="M 768.5,858.5 C 773.523,861.867 778.523,865.2 783.5,868.5C 782.732,869.263 782.232,870.263 782,871.5C 778.72,869.881 775.72,867.881 773,865.5C 772.517,864.552 772.351,863.552 772.5,862.5C 769.231,862.471 767.897,861.138 768.5,858.5 Z"/></g>
<g><path style="opacity:0.004" fill="#000000" d="M 794.5,873.5 C 796.819,873.992 798.819,874.992 800.5,876.5C 797.911,876.539 795.911,875.539 794.5,873.5 Z"/></g>
<g><path style="opacity:0.118" fill="#862d16" d="M 784.5,869.5 C 787.833,870.833 791.167,872.167 794.5,873.5C 795.911,875.539 797.911,876.539 800.5,876.5C 801.675,876.281 802.675,876.614 803.5,877.5C 802.725,879.396 801.725,881.063 800.5,882.5C 799.077,881.551 797.577,880.551 796,879.5C 795.228,879.645 794.561,879.978 794,880.5C 792.727,878.428 790.893,877.095 788.5,876.5C 786.69,874.618 785.023,872.618 783.5,870.5C 783.624,869.893 783.957,869.56 784.5,869.5 Z"/></g>
<g><path style="opacity:1" fill="#bb4225" d="M 791.5,1158.5 C 836.062,1241.33 904.729,1291.83 997.5,1310C 1008.44,1311.83 1019.44,1312.99 1030.5,1313.5C 1027.85,1316.13 1027.85,1318.8 1030.5,1321.5C 1029.39,1325.64 1027.72,1329.47 1025.5,1333C 1025.91,1333.95 1026.57,1334.61 1027.5,1335C 1027.24,1339.08 1027.24,1342.75 1027.5,1346C 1026.43,1346.74 1025.76,1347.74 1025.5,1349C 1026.83,1350.66 1027.83,1352.49 1028.5,1354.5C 1027.79,1357.98 1027.13,1361.48 1026.5,1365C 1027.02,1365.95 1027.69,1366.78 1028.5,1367.5C 1027.09,1372.02 1026.75,1376.18 1027.5,1380C 1026.97,1381.56 1026.3,1383.06 1025.5,1384.5C 1026.09,1385.8 1027.09,1386.63 1028.5,1387C 1027.94,1388.68 1026.94,1390.01 1025.5,1391C 1028.91,1393.06 1029.07,1395.56 1026,1398.5C 1025.79,1401.76 1025.29,1404.92 1024.5,1408C 1026.82,1410.51 1027.16,1413.34 1025.5,1416.5C 1026.85,1419.17 1027.52,1422 1027.5,1425C 1027.38,1435.68 1027.05,1446.01 1026.5,1456C 1027.17,1456.67 1027.83,1457.33 1028.5,1458C 1026.37,1458.76 1025.03,1460.26 1024.5,1462.5C 1025.17,1462.83 1025.83,1463.17 1026.5,1463.5C 1025.78,1466.31 1025.11,1469.15 1024.5,1472C 1024.99,1473.98 1025.99,1475.65 1027.5,1477C 1026.95,1480.2 1025.95,1483.53 1024.5,1487C 1024.98,1491.42 1025.14,1495.92 1025,1500.5C 1027.74,1503.16 1027.91,1506.33 1025.5,1510C 1027.81,1511.83 1027.47,1513.49 1024.5,1515C 1025.71,1518.4 1026.71,1521.73 1027.5,1525C 1026.83,1526.33 1025.83,1527.33 1024.5,1528C 1025.62,1528.25 1026.62,1528.75 1027.5,1529.5C 1024.8,1532.99 1024.46,1536.49 1026.5,1540C 1025.73,1541.22 1024.73,1542.22 1023.5,1543C 1026.17,1543.67 1026.17,1544.33 1023.5,1545C 1024.36,1546.57 1025.02,1548.24 1025.5,1550C 1025.09,1552.46 1025.09,1554.79 1025.5,1557C 1024.64,1557.69 1023.98,1558.52 1023.5,1559.5C 1024.53,1559.3 1025.53,1559.8 1026.5,1561C 1024.56,1563.15 1024.06,1565.65 1025,1568.5C 1025.33,1567.83 1025.67,1567.17 1026,1566.5C 1026.5,1568.81 1026.66,1571.14 1026.5,1573.5C 1025.5,1573.5 1024.5,1573.5 1023.5,1573.5C 1023.97,1575.73 1024.97,1577.06 1026.5,1577.5C 1026.1,1579.7 1025.93,1582.03 1026,1584.5C 1024.98,1585.35 1024.14,1586.35 1023.5,1587.5C 1024.02,1590.79 1025.35,1593.63 1027.5,1596C 1026.57,1597.19 1025.9,1598.53 1025.5,1600C 1025.91,1601.8 1025.91,1603.46 1025.5,1605C 1026.04,1605.72 1026.71,1606.22 1027.5,1606.5C 1025.77,1607.64 1024.77,1609.31 1024.5,1611.5C 1025.09,1615.65 1025.09,1619.65 1024.5,1623.5C 1024.86,1624.52 1025.52,1625.19 1026.5,1625.5C 1026.49,1627.02 1025.82,1628.18 1024.5,1629C 1026.96,1630.51 1026.96,1631.85 1024.5,1633C 1024.83,1633.33 1025.17,1633.67 1025.5,1634C 1024.74,1635.44 1024.07,1636.94 1023.5,1638.5C 1026.09,1641.4 1026.09,1644.23 1023.5,1647C 1023.83,1653 1023.83,1659 1023.5,1665C 1024.38,1665.71 1025.05,1666.54 1025.5,1667.5C 848.695,1660.83 699.528,1593.83 578,1466.5C 546.993,1432.79 520.16,1396.12 497.5,1356.5C 499.429,1355.99 501.095,1354.99 502.5,1353.5C 503.086,1353.71 503.586,1354.04 504,1354.5C 505.073,1352.45 506.239,1350.45 507.5,1348.5C 511.99,1345.71 516.657,1343.21 521.5,1341C 522.337,1339.99 522.67,1338.82 522.5,1337.5C 525.703,1335.98 528.87,1334.31 532,1332.5C 533.049,1333.52 534.216,1333.68 535.5,1333C 533.203,1331.84 533.536,1330.84 536.5,1330C 537.784,1329.32 538.951,1329.48 540,1330.5C 543.168,1326.71 547.002,1323.71 551.5,1321.5C 551.167,1320.83 550.833,1320.17 550.5,1319.5C 552.135,1318.32 553.802,1318.32 555.5,1319.5C 556.478,1319.02 557.311,1318.36 558,1317.5C 558.333,1317.83 558.667,1318.17 559,1318.5C 559.465,1317.07 560.299,1315.9 561.5,1315C 564.948,1313.53 568.114,1311.7 571,1309.5C 571.49,1308.21 571.657,1306.87 571.5,1305.5C 572.833,1305.5 574.167,1305.5 575.5,1305.5C 575.5,1304.5 575.5,1303.5 575.5,1302.5C 580.798,1303.78 583.632,1301.78 584,1296.5C 585.399,1295.77 586.899,1295.27 588.5,1295C 588.167,1294.67 587.833,1294.33 587.5,1294C 588.416,1293.63 589.25,1293.13 590,1292.5C 590.718,1293.45 591.551,1293.62 592.5,1293C 593.542,1291.08 594.708,1289.25 596,1287.5C 598.737,1288.61 601.571,1288.78 604.5,1288C 604.043,1287.59 603.709,1287.09 603.5,1286.5C 607.011,1286.09 609.345,1284.25 610.5,1281C 614.484,1279.85 617.484,1277.52 619.5,1274C 621.792,1275.1 623.292,1274.27 624,1271.5C 624.915,1272.33 625.581,1273.33 626,1274.5C 627.852,1272.77 627.686,1271.6 625.5,1271C 628.821,1268.95 632.155,1266.79 635.5,1264.5C 636.192,1265.03 636.692,1265.69 637,1266.5C 639.694,1265.05 640.527,1263.05 639.5,1260.5C 640.948,1259.65 642.281,1258.65 643.5,1257.5C 644.192,1258.03 644.692,1258.69 645,1259.5C 648.558,1256.74 652.391,1254.41 656.5,1252.5C 657.429,1251.31 657.762,1249.98 657.5,1248.5C 660.075,1249.28 662.408,1249.11 664.5,1248C 663.443,1246.12 663.443,1244.46 664.5,1243C 666.686,1241.69 668.853,1241.52 671,1242.5C 673.366,1239.8 676.032,1237.47 679,1235.5C 680.416,1234.43 681.75,1234.43 683,1235.5C 684.57,1234.39 685.903,1233.05 687,1231.5C 688.073,1232.28 689.24,1232.11 690.5,1231C 691.998,1228.52 693.498,1226.02 695,1223.5C 696.268,1223.62 697.602,1223.95 699,1224.5C 699.333,1223.5 699.667,1222.5 700,1221.5C 700.333,1221.83 700.667,1222.17 701,1222.5C 703.479,1219.93 706.146,1217.6 709,1215.5C 709.333,1216.17 709.667,1216.83 710,1217.5C 710.219,1216.06 710.719,1214.73 711.5,1213.5C 713.5,1212.83 714.833,1211.5 715.5,1209.5C 716.651,1208.27 717.817,1208.27 719,1209.5C 719.605,1207.52 720.605,1207.19 722,1208.5C 722.5,1207.33 723.333,1206.5 724.5,1206C 723.833,1205.67 723.167,1205.33 722.5,1205C 724.718,1203.91 726.884,1202.74 729,1201.5C 729.308,1202.31 729.808,1202.97 730.5,1203.5C 731.833,1202.5 733.167,1201.5 734.5,1200.5C 735.086,1200.71 735.586,1201.04 736,1201.5C 738.342,1196.49 742.175,1193.32 747.5,1192C 748.833,1191.33 748.833,1190.67 747.5,1190C 751.963,1189.29 755.963,1187.63 759.5,1185C 760.112,1183.7 760.446,1182.53 760.5,1181.5C 761.192,1182.03 761.692,1182.69 762,1183.5C 764.69,1180.47 767.023,1177.13 769,1173.5C 770.699,1174.41 772.533,1174.74 774.5,1174.5C 774.5,1173.5 774.5,1172.5 774.5,1171.5C 776.857,1171.66 779.19,1171.5 781.5,1171C 781.67,1169.43 782.003,1167.6 782.5,1165.5C 783.552,1165.65 784.552,1165.48 785.5,1165C 787.366,1162.64 789.366,1160.47 791.5,1158.5 Z"/></g>
<g><path style="opacity:1" fill="#852b16" d="M 1295.5,1167.5 C 1295.71,1168.92 1296.21,1170.26 1297,1171.5C 1297.33,1171.17 1297.67,1170.83 1298,1170.5C 1298.32,1172.3 1298.98,1172.63 1300,1171.5C 1302.63,1171.93 1304.96,1172.93 1307,1174.5C 1307.33,1174.17 1307.67,1173.83 1308,1173.5C 1310.34,1178.11 1314.17,1180.94 1319.5,1182C 1319.17,1182.33 1318.83,1182.67 1318.5,1183C 1319.89,1184.65 1321.39,1185.15 1323,1184.5C 1323.79,1185.74 1324.29,1187.08 1324.5,1188.5C 1323.45,1188.65 1322.45,1188.48 1321.5,1188C 1322.7,1187.35 1322.7,1186.85 1321.5,1186.5C 1319.51,1188.78 1318.35,1188.12 1318,1184.5C 1314.79,1187.15 1314.29,1186.98 1316.5,1184C 1314.21,1182.3 1311.87,1181.64 1309.5,1182C 1310.6,1180.87 1310.27,1180.04 1308.5,1179.5C 1305.92,1180.94 1303.58,1180.6 1301.5,1178.5C 1300.5,1179 1299.5,1179.5 1298.5,1180C 1300.07,1180.34 1301.41,1181.17 1302.5,1182.5C 1303.96,1181.39 1304.96,1181.89 1305.5,1184C 1305.17,1184.33 1304.83,1184.67 1304.5,1185C 1307.17,1187.29 1309.67,1189.79 1312,1192.5C 1312.33,1192.17 1312.67,1191.83 1313,1191.5C 1313.79,1192.74 1314.29,1194.08 1314.5,1195.5C 1314.57,1195.94 1314.4,1196.27 1314,1196.5C 1312.9,1194.61 1311.57,1193.94 1310,1194.5C 1307.23,1189.54 1303.23,1186.21 1298,1184.5C 1297.38,1183.55 1297.55,1182.72 1298.5,1182C 1297.55,1181.52 1296.55,1181.35 1295.5,1181.5C 1294.32,1178.62 1293.32,1175.62 1292.5,1172.5C 1292.75,1170.33 1293.75,1168.66 1295.5,1167.5 Z"/></g>
<g><path style="opacity:1" fill="#bb4225" d="M 1292.5,1172.5 C 1293.32,1175.62 1294.32,1178.62 1295.5,1181.5C 1296.55,1181.35 1297.55,1181.52 1298.5,1182C 1297.55,1182.72 1297.38,1183.55 1298,1184.5C 1303.23,1186.21 1307.23,1189.54 1310,1194.5C 1311.57,1193.94 1312.9,1194.61 1314,1196.5C 1314.4,1196.27 1314.57,1195.94 1314.5,1195.5C 1316.05,1196.91 1317.39,1198.58 1318.5,1200.5C 1322.17,1198.95 1322.84,1199.45 1320.5,1202C 1332.61,1209.12 1344.28,1218.29 1355.5,1229.5C 1356.52,1230.95 1357.69,1231.29 1359,1230.5C 1360.72,1231.99 1361.88,1233.82 1362.5,1236C 1365.41,1237.29 1368.41,1238.29 1371.5,1239C 1373.85,1240.83 1375.19,1243 1375.5,1245.5C 1378.64,1247.31 1381.98,1248.65 1385.5,1249.5C 1385.28,1250.68 1385.61,1251.68 1386.5,1252.5C 1391.55,1254.05 1394.72,1257.38 1396,1262.5C 1396.33,1261.83 1396.67,1261.17 1397,1260.5C 1398.04,1261.62 1398.71,1262.96 1399,1264.5C 1403.63,1265.11 1407.63,1267.44 1411,1271.5C 1412.05,1270.48 1413.22,1270.32 1414.5,1271C 1413.17,1272.84 1413.33,1273.34 1415,1272.5C 1415.71,1274.08 1416.54,1275.58 1417.5,1277C 1416.74,1278.36 1417.24,1279.53 1419,1280.5C 1419.33,1279.83 1419.67,1279.17 1420,1278.5C 1422.36,1280.19 1424.36,1282.19 1426,1284.5C 1426.33,1284.17 1426.67,1283.83 1427,1283.5C 1428.87,1284.82 1429.71,1286.32 1429.5,1288C 1432.34,1289.06 1435.01,1290.4 1437.5,1292C 1439.12,1292.85 1439.46,1293.85 1438.5,1295C 1442.19,1297.16 1445.35,1299.99 1448,1303.5C 1449.3,1303.03 1450.8,1303.03 1452.5,1303.5C 1452.23,1305.43 1452.73,1307.1 1454,1308.5C 1454.41,1308.04 1454.91,1307.71 1455.5,1307.5C 1459.94,1310.72 1464.61,1313.38 1469.5,1315.5C 1469.35,1316.55 1469.52,1317.55 1470,1318.5C 1471.83,1319.66 1473.49,1320.99 1475,1322.5C 1475.41,1322.04 1475.91,1321.71 1476.5,1321.5C 1478.19,1323.36 1479.69,1325.36 1481,1327.5C 1481.33,1326.83 1481.67,1326.17 1482,1325.5C 1483.58,1327.04 1485.41,1328.21 1487.5,1329C 1486.2,1332.34 1487.03,1335.18 1490,1337.5C 1490.56,1336.98 1491.23,1336.64 1492,1336.5C 1494.22,1338.84 1496.72,1340.67 1499.5,1342C 1498.61,1345.44 1499.44,1345.94 1502,1343.5C 1503.78,1346.95 1506.62,1348.78 1510.5,1349C 1510.17,1349.33 1509.83,1349.67 1509.5,1350C 1511.26,1351.01 1512.43,1352.51 1513,1354.5C 1517.22,1357.6 1522.05,1360.77 1527.5,1364C 1528.38,1365.58 1529.71,1366.58 1531.5,1367C 1530.35,1367.91 1530.51,1368.75 1532,1369.5C 1532.97,1367.12 1533.64,1367.46 1534,1370.5C 1535.8,1372.97 1538.13,1374.64 1541,1375.5C 1541.48,1376.45 1541.65,1377.45 1541.5,1378.5C 1543.93,1378.52 1546.26,1379.02 1548.5,1380C 1550.91,1383.92 1553.91,1387.42 1557.5,1390.5C 1558.09,1390.29 1558.59,1389.96 1559,1389.5C 1560.4,1390.73 1561.57,1392.06 1562.5,1393.5C 1455.35,1543.64 1310.02,1633.14 1126.5,1662C 1096.64,1666.2 1066.64,1668.03 1036.5,1667.5C 1037.21,1665.07 1038.21,1662.74 1039.5,1660.5C 1037.37,1658.61 1037.03,1656.44 1038.5,1654C 1038.04,1648.52 1037.04,1643.19 1035.5,1638C 1037.15,1635.75 1037.49,1633.42 1036.5,1631C 1039.92,1628.62 1040.26,1625.78 1037.5,1622.5C 1037.49,1618.83 1037.83,1615.16 1038.5,1611.5C 1036.08,1608.25 1036.08,1604.58 1038.5,1600.5C 1037.96,1599.25 1037.29,1598.09 1036.5,1597C 1037.36,1595.86 1038.36,1594.53 1039.5,1593C 1039.06,1590.78 1038.39,1588.28 1037.5,1585.5C 1038.02,1583.62 1038.69,1581.78 1039.5,1580C 1037.86,1578.35 1038.19,1577.35 1040.5,1577C 1038.19,1576.65 1037.86,1575.65 1039.5,1574C 1039.14,1571.7 1038.14,1569.87 1036.5,1568.5C 1037.29,1567.21 1038.29,1566.04 1039.5,1565C 1038.12,1563.68 1037.79,1562.34 1038.5,1561C 1035.54,1560.16 1035.2,1559.16 1037.5,1558C 1036.55,1557.28 1036.38,1556.45 1037,1555.5C 1037.65,1556.7 1038.15,1556.7 1038.5,1555.5C 1037.21,1552.97 1037.21,1550.47 1038.5,1548C 1036.15,1546.62 1036.15,1545.12 1038.5,1543.5C 1036.95,1541.18 1037.61,1539.68 1040.5,1539C 1039.99,1536.43 1038.99,1534.1 1037.5,1532C 1038.35,1530.44 1037.68,1529.44 1035.5,1529C 1036.55,1527.62 1037.88,1526.62 1039.5,1526C 1039.5,1524.67 1039.5,1523.33 1039.5,1522C 1038.5,1521.17 1037.5,1520.33 1036.5,1519.5C 1037.17,1519.17 1037.83,1518.83 1038.5,1518.5C 1037.69,1517.19 1036.69,1516.02 1035.5,1515C 1037.14,1511.69 1038.47,1508.19 1039.5,1504.5C 1038.17,1503.17 1038.17,1501.83 1039.5,1500.5C 1038.87,1498.74 1037.87,1497.24 1036.5,1496C 1037.67,1495.58 1038.67,1494.91 1039.5,1494C 1038.9,1492.11 1038.57,1490.28 1038.5,1488.5C 1039.44,1488.51 1040.11,1488.01 1040.5,1487C 1039.96,1484.9 1038.96,1484.06 1037.5,1484.5C 1040.39,1482.1 1040.72,1479.6 1038.5,1477C 1039.93,1475.29 1039.59,1473.95 1037.5,1473C 1040.25,1469.36 1040.58,1465.69 1038.5,1462C 1038.83,1458.33 1039.17,1454.67 1039.5,1451C 1039.56,1449.29 1038.89,1447.96 1037.5,1447C 1038.17,1446 1038.83,1445 1039.5,1444C 1039.64,1441.96 1039.31,1439.79 1038.5,1437.5C 1039.33,1435.42 1040.33,1433.42 1041.5,1431.5C 1040.27,1428.58 1038.61,1426.75 1036.5,1426C 1037.67,1421.55 1039,1417.22 1040.5,1413C 1038.01,1412.37 1038.01,1411.54 1040.5,1410.5C 1040.02,1409.52 1039.36,1408.69 1038.5,1408C 1039.52,1407.48 1040.18,1406.65 1040.5,1405.5C 1040.22,1403.11 1040.22,1400.78 1040.5,1398.5C 1039.83,1397.83 1039.17,1397.17 1038.5,1396.5C 1039.17,1393.17 1039.83,1389.83 1040.5,1386.5C 1039.59,1383.4 1038.92,1380.56 1038.5,1378C 1039.85,1371.38 1040.85,1364.71 1041.5,1358C 1040.17,1357.33 1040.17,1356.67 1041.5,1356C 1040.01,1354.63 1038.51,1354.47 1037,1355.5C 1036.83,1355 1036.67,1354.5 1036.5,1354C 1037.83,1351.61 1039.17,1349.28 1040.5,1347C 1039.5,1346.67 1038.5,1346.33 1037.5,1346C 1038.36,1344.86 1039.36,1343.53 1040.5,1342C 1038.61,1340.9 1037.94,1339.57 1038.5,1338C 1039.27,1335.43 1040.27,1332.93 1041.5,1330.5C 1040.6,1330.33 1039.6,1330 1038.5,1329.5C 1038.22,1324.19 1038.22,1318.86 1038.5,1313.5C 1149.32,1312.77 1233.99,1265.77 1292.5,1172.5 Z"/></g>
<g><path style="opacity:1" fill="#6d210f" d="M 787.5,1151.5 C 789.071,1153.64 790.404,1155.97 791.5,1158.5C 789.366,1160.47 787.366,1162.64 785.5,1165C 784.552,1165.48 783.552,1165.65 782.5,1165.5C 782.003,1167.6 781.67,1169.43 781.5,1171C 779.19,1171.5 776.857,1171.66 774.5,1171.5C 774.5,1172.5 774.5,1173.5 774.5,1174.5C 772.533,1174.74 770.699,1174.41 769,1173.5C 767.023,1177.13 764.69,1180.47 762,1183.5C 761.692,1182.69 761.192,1182.03 760.5,1181.5C 760.446,1182.53 760.112,1183.7 759.5,1185C 755.963,1187.63 751.963,1189.29 747.5,1190C 748.833,1190.67 748.833,1191.33 747.5,1192C 742.175,1193.32 738.342,1196.49 736,1201.5C 735.586,1201.04 735.086,1200.71 734.5,1200.5C 733.167,1201.5 731.833,1202.5 730.5,1203.5C 729.808,1202.97 729.308,1202.31 729,1201.5C 726.884,1202.74 724.718,1203.91 722.5,1205C 723.167,1205.33 723.833,1205.67 724.5,1206C 723.333,1206.5 722.5,1207.33 722,1208.5C 720.605,1207.19 719.605,1207.52 719,1209.5C 717.817,1208.27 716.651,1208.27 715.5,1209.5C 714.833,1211.5 713.5,1212.83 711.5,1213.5C 710.719,1214.73 710.219,1216.06 710,1217.5C 709.667,1216.83 709.333,1216.17 709,1215.5C 706.146,1217.6 703.479,1219.93 701,1222.5C 700.667,1222.17 700.333,1221.83 700,1221.5C 699.667,1222.5 699.333,1223.5 699,1224.5C 697.602,1223.95 696.268,1223.62 695,1223.5C 693.498,1226.02 691.998,1228.52 690.5,1231C 689.24,1232.11 688.073,1232.28 687,1231.5C 685.903,1233.05 684.57,1234.39 683,1235.5C 681.75,1234.43 680.416,1234.43 679,1235.5C 676.032,1237.47 673.366,1239.8 671,1242.5C 668.853,1241.52 666.686,1241.69 664.5,1243C 663.443,1244.46 663.443,1246.12 664.5,1248C 662.408,1249.11 660.075,1249.28 657.5,1248.5C 657.762,1249.98 657.429,1251.31 656.5,1252.5C 652.391,1254.41 648.558,1256.74 645,1259.5C 644.692,1258.69 644.192,1258.03 643.5,1257.5C 642.281,1258.65 640.948,1259.65 639.5,1260.5C 640.527,1263.05 639.694,1265.05 637,1266.5C 636.692,1265.69 636.192,1265.03 635.5,1264.5C 632.155,1266.79 628.821,1268.95 625.5,1271C 627.686,1271.6 627.852,1272.77 626,1274.5C 625.581,1273.33 624.915,1272.33 624,1271.5C 623.292,1274.27 621.792,1275.1 619.5,1274C 617.484,1277.52 614.484,1279.85 610.5,1281C 609.345,1284.25 607.011,1286.09 603.5,1286.5C 603.709,1287.09 604.043,1287.59 604.5,1288C 601.571,1288.78 598.737,1288.61 596,1287.5C 594.708,1289.25 593.542,1291.08 592.5,1293C 591.551,1293.62 590.718,1293.45 590,1292.5C 589.25,1293.13 588.416,1293.63 587.5,1294C 587.833,1294.33 588.167,1294.67 588.5,1295C 586.899,1295.27 585.399,1295.77 584,1296.5C 583.632,1301.78 580.798,1303.78 575.5,1302.5C 575.5,1303.5 575.5,1304.5 575.5,1305.5C 574.167,1305.5 572.833,1305.5 571.5,1305.5C 571.657,1306.87 571.49,1308.21 571,1309.5C 568.114,1311.7 564.948,1313.53 561.5,1315C 560.299,1315.9 559.465,1317.07 559,1318.5C 558.667,1318.17 558.333,1317.83 558,1317.5C 557.311,1318.36 556.478,1319.02 555.5,1319.5C 553.802,1318.32 552.135,1318.32 550.5,1319.5C 550.833,1320.17 551.167,1320.83 551.5,1321.5C 547.002,1323.71 543.168,1326.71 540,1330.5C 538.951,1329.48 537.784,1329.32 536.5,1330C 533.536,1330.84 533.203,1331.84 535.5,1333C 534.216,1333.68 533.049,1333.52 532,1332.5C 528.87,1334.31 525.703,1335.98 522.5,1337.5C 522.67,1338.82 522.337,1339.99 521.5,1341C 516.657,1343.21 511.99,1345.71 507.5,1348.5C 506.239,1350.45 505.073,1352.45 504,1354.5C 503.586,1354.04 503.086,1353.71 502.5,1353.5C 501.095,1354.99 499.429,1355.99 497.5,1356.5C 495,1353.51 493,1350.17 491.5,1346.5C 491.628,1344.91 492.295,1343.58 493.5,1342.5C 497.017,1340.93 500.183,1338.93 503,1336.5C 503.333,1336.83 503.667,1337.17 504,1337.5C 507.653,1332.59 512.487,1329.59 518.5,1328.5C 518.33,1327.18 518.663,1326.01 519.5,1325C 522.352,1324.73 525.018,1323.9 527.5,1322.5C 528.086,1322.71 528.586,1323.04 529,1323.5C 528.621,1321.93 528.788,1320.43 529.5,1319C 535.303,1316.24 540.97,1313.91 546.5,1312C 547.833,1310.67 547.833,1309.33 546.5,1308C 547.993,1306.63 549.493,1306.47 551,1307.5C 551.44,1305.92 552.273,1304.59 553.5,1303.5C 553.291,1302.91 552.957,1302.41 552.5,1302C 554.367,1301.29 555.867,1301.79 557,1303.5C 559.91,1302.55 561.077,1300.55 560.5,1297.5C 565.45,1295.49 570.45,1293.33 575.5,1291C 576.82,1287.21 579.487,1285.04 583.5,1284.5C 584.641,1283.57 584.641,1282.74 583.5,1282C 585.663,1281.75 587.33,1280.75 588.5,1279C 590.488,1278.82 592.488,1278.99 594.5,1279.5C 595.015,1275.55 597.348,1273.38 601.5,1273C 602.289,1269.9 603.456,1269.74 605,1272.5C 607.543,1267.97 611.376,1264.81 616.5,1263C 618.263,1259.25 620.596,1258.25 623.5,1260C 622.892,1257.82 623.559,1255.82 625.5,1254C 628.881,1252.95 632.047,1251.45 635,1249.5C 635.667,1250.17 636.333,1250.83 637,1251.5C 637.197,1249.14 638.364,1247.47 640.5,1246.5C 640.291,1245.91 639.957,1245.41 639.5,1245C 640.872,1244.6 642.205,1244.1 643.5,1243.5C 644.192,1244.03 644.692,1244.69 645,1245.5C 645.943,1242.89 647.61,1240.89 650,1239.5C 650.333,1239.83 650.667,1240.17 651,1240.5C 652.098,1239.03 653.598,1238.2 655.5,1238C 658.423,1233.54 662.423,1230.54 667.5,1229C 667.043,1228.59 666.709,1228.09 666.5,1227.5C 672.327,1224.52 677.994,1221.35 683.5,1218C 682.833,1217.67 682.167,1217.33 681.5,1217C 686.04,1215.11 689.706,1212.95 692.5,1210.5C 693.768,1211.43 695.101,1211.59 696.5,1211C 695.167,1209.16 695.334,1208.66 697,1209.5C 697.483,1208.55 697.649,1207.55 697.5,1206.5C 700.829,1206.74 703.829,1205.9 706.5,1204C 708.5,1202 710.5,1200 712.5,1198C 714.218,1197.65 715.885,1197.15 717.5,1196.5C 719.274,1193.76 720.941,1191.1 722.5,1188.5C 723.93,1188.58 725.264,1188.25 726.5,1187.5C 727.192,1188.03 727.692,1188.69 728,1189.5C 728.923,1188.24 729.757,1186.91 730.5,1185.5C 733.804,1185.32 735.471,1183.66 735.5,1180.5C 739.219,1181.23 742.219,1180.23 744.5,1177.5C 748.374,1175.13 752.374,1172.97 756.5,1171C 756.742,1168.7 758.075,1166.7 760.5,1165C 762.955,1163.37 765.455,1163.2 768,1164.5C 768.943,1161.89 770.61,1159.89 773,1158.5C 773.333,1159.17 773.667,1159.83 774,1160.5C 775.044,1159.38 775.71,1158.04 776,1156.5C 776.333,1156.83 776.667,1157.17 777,1157.5C 779.756,1154.29 783.256,1152.29 787.5,1151.5 Z"/></g>
<g><path style="opacity:1" fill="#681f0e" d="M 1324.5,1188.5 C 1326.5,1189.04 1328.5,1189.71 1330.5,1190.5C 1330.29,1191.09 1329.96,1191.59 1329.5,1192C 1330.77,1192.9 1331.77,1194.07 1332.5,1195.5C 1334.85,1196.06 1337.19,1196.73 1339.5,1197.5C 1338.83,1197.83 1338.17,1198.17 1337.5,1198.5C 1337.71,1199.09 1338.04,1199.59 1338.5,1200C 1340.38,1200.2 1342.05,1200.7 1343.5,1201.5C 1342.76,1201.37 1342.09,1201.54 1341.5,1202C 1344.08,1204.56 1344.58,1207.06 1343,1209.5C 1344.34,1208.24 1345.84,1207.74 1347.5,1208C 1347.5,1209 1347.5,1210 1347.5,1211C 1350.27,1214.32 1353.77,1216.82 1358,1218.5C 1357.23,1224.01 1359.23,1225.01 1364,1221.5C 1363.62,1223.44 1363.78,1225.1 1364.5,1226.5C 1365.28,1225.27 1365.78,1223.94 1366,1222.5C 1366.75,1223.13 1367.58,1223.63 1368.5,1224C 1367.42,1225.73 1367.26,1227.56 1368,1229.5C 1368.67,1226.83 1369.33,1226.83 1370,1229.5C 1370.72,1228.55 1371.55,1228.38 1372.5,1229C 1373.52,1231.2 1374.86,1233.2 1376.5,1235C 1374.01,1235.63 1374.01,1236.46 1376.5,1237.5C 1374.16,1238.51 1371.83,1238.35 1369.5,1237C 1369.83,1236.67 1370.17,1236.33 1370.5,1236C 1369,1234.83 1367.5,1233.67 1366,1232.5C 1365.02,1234.79 1364.18,1234.46 1363.5,1231.5C 1363.71,1230.91 1364.04,1230.41 1364.5,1230C 1363.26,1229.54 1362.42,1230.04 1362,1231.5C 1360.74,1229.7 1359.07,1228.36 1357,1227.5C 1356.72,1228.42 1356.22,1229.08 1355.5,1229.5C 1344.28,1218.29 1332.61,1209.12 1320.5,1202C 1322.84,1199.45 1322.17,1198.95 1318.5,1200.5C 1317.39,1198.58 1316.05,1196.91 1314.5,1195.5C 1314.29,1194.08 1313.79,1192.74 1313,1191.5C 1312.67,1191.83 1312.33,1192.17 1312,1192.5C 1309.67,1189.79 1307.17,1187.29 1304.5,1185C 1304.83,1184.67 1305.17,1184.33 1305.5,1184C 1304.96,1181.89 1303.96,1181.39 1302.5,1182.5C 1301.41,1181.17 1300.07,1180.34 1298.5,1180C 1299.5,1179.5 1300.5,1179 1301.5,1178.5C 1303.58,1180.6 1305.92,1180.94 1308.5,1179.5C 1310.27,1180.04 1310.6,1180.87 1309.5,1182C 1311.87,1181.64 1314.21,1182.3 1316.5,1184C 1314.29,1186.98 1314.79,1187.15 1318,1184.5C 1318.35,1188.12 1319.51,1188.78 1321.5,1186.5C 1322.7,1186.85 1322.7,1187.35 1321.5,1188C 1322.45,1188.48 1323.45,1188.65 1324.5,1188.5 Z"/></g>
<g><path style="opacity:1" fill="#702210" d="M 1343.5,1201.5 C 1345.15,1202.48 1346.48,1203.81 1347.5,1205.5C 1348.73,1206.28 1350.06,1206.78 1351.5,1207C 1352.81,1208.39 1352.48,1209.39 1350.5,1210C 1354.09,1211.29 1356.92,1213.45 1359,1216.5C 1360.05,1215.48 1361.22,1215.32 1362.5,1216C 1363.63,1217.02 1363.3,1217.68 1361.5,1218C 1362.67,1218.5 1363.5,1219.33 1364,1220.5C 1369.12,1220.94 1373.12,1223.61 1376,1228.5C 1376.33,1228.17 1376.67,1227.83 1377,1227.5C 1378.72,1228.99 1379.88,1230.82 1380.5,1233C 1382.77,1234.12 1385.1,1234.95 1387.5,1235.5C 1387.28,1236.68 1387.61,1237.68 1388.5,1238.5C 1390.83,1238.4 1393,1239.4 1395,1241.5C 1395.62,1242.45 1395.45,1243.28 1394.5,1244C 1396.73,1244.56 1398.73,1245.56 1400.5,1247C 1401.96,1250.73 1404.63,1253.06 1408.5,1254C 1408.04,1254.41 1407.71,1254.91 1407.5,1255.5C 1409.57,1258.54 1412.24,1259.87 1415.5,1259.5C 1419.25,1264.21 1423.92,1267.71 1429.5,1270C 1430.84,1273.83 1433.5,1275.33 1437.5,1274.5C 1437.35,1275.55 1437.52,1276.55 1438,1277.5C 1438.33,1277.17 1438.67,1276.83 1439,1276.5C 1439.9,1277.7 1441.07,1278.53 1442.5,1279C 1441.17,1279.67 1441.17,1280.33 1442.5,1281C 1443.5,1281.33 1444.5,1281.67 1445.5,1282C 1445.17,1282.33 1444.83,1282.67 1444.5,1283C 1447.03,1283.52 1449.2,1284.68 1451,1286.5C 1453.36,1289.63 1452.86,1290.8 1449.5,1290C 1450.17,1290.67 1450.83,1291.33 1451.5,1292C 1450.66,1293.67 1451.16,1293.83 1453,1292.5C 1453.33,1293.17 1453.67,1293.83 1454,1294.5C 1457.05,1294.14 1459.21,1295.64 1460.5,1299C 1462.13,1298.8 1463.79,1298.8 1465.5,1299C 1466.66,1300.83 1468.16,1302.33 1470,1303.5C 1471.15,1304.42 1472.15,1304.42 1473,1303.5C 1474.96,1305.33 1476.12,1307.16 1476.5,1309C 1477.83,1309.33 1479.17,1309.67 1480.5,1310C 1481.83,1310.67 1481.83,1311.33 1480.5,1312C 1481.76,1313.11 1482.93,1313.28 1484,1312.5C 1485.64,1314.81 1487.8,1316.31 1490.5,1317C 1489.83,1317.33 1489.17,1317.67 1488.5,1318C 1489.97,1318.71 1490.64,1319.88 1490.5,1321.5C 1492.91,1321.14 1494.41,1322.14 1495,1324.5C 1495.33,1324.17 1495.67,1323.83 1496,1323.5C 1497.58,1324.96 1498.92,1326.63 1500,1328.5C 1501.61,1327.85 1503.11,1328.35 1504.5,1330C 1504.17,1330.33 1503.83,1330.67 1503.5,1331C 1505.02,1332.01 1506.69,1332.51 1508.5,1332.5C 1508.28,1333.68 1508.61,1334.68 1509.5,1335.5C 1516.69,1341.96 1524.69,1346.96 1533.5,1350.5C 1533.5,1351.5 1533.5,1352.5 1533.5,1353.5C 1534.5,1353.5 1535.5,1353.5 1536.5,1353.5C 1536.5,1354.5 1536.5,1355.5 1536.5,1356.5C 1537.87,1356.34 1539.21,1356.51 1540.5,1357C 1540.5,1358 1540.5,1359 1540.5,1360C 1542.09,1360.86 1543.75,1361.53 1545.5,1362C 1545.13,1363.61 1545.8,1365.11 1547.5,1366.5C 1549.52,1368.03 1551.52,1368.7 1553.5,1368.5C 1554.98,1370.07 1556.65,1371.41 1558.5,1372.5C 1558.29,1373.09 1557.96,1373.59 1557.5,1374C 1559.65,1374.1 1561.32,1374.93 1562.5,1376.5C 1561.18,1376.67 1560.01,1376.34 1559,1375.5C 1556.93,1377.78 1554.76,1379.95 1552.5,1382C 1553.67,1383.83 1554.83,1385.67 1556,1387.5C 1556.33,1387.17 1556.67,1386.83 1557,1386.5C 1559.21,1389.29 1561.55,1389.96 1564,1388.5C 1565.46,1385.17 1565.63,1381.5 1564.5,1377.5C 1565.97,1378.07 1567.31,1378.91 1568.5,1380C 1566.07,1381.09 1566.07,1382.26 1568.5,1383.5C 1566.92,1387.08 1564.92,1390.41 1562.5,1393.5C 1561.57,1392.06 1560.4,1390.73 1559,1389.5C 1558.59,1389.96 1558.09,1390.29 1557.5,1390.5C 1553.91,1387.42 1550.91,1383.92 1548.5,1380C 1546.26,1379.02 1543.93,1378.52 1541.5,1378.5C 1541.65,1377.45 1541.48,1376.45 1541,1375.5C 1538.13,1374.64 1535.8,1372.97 1534,1370.5C 1533.64,1367.46 1532.97,1367.12 1532,1369.5C 1530.51,1368.75 1530.35,1367.91 1531.5,1367C 1529.71,1366.58 1528.38,1365.58 1527.5,1364C 1522.05,1360.77 1517.22,1357.6 1513,1354.5C 1512.43,1352.51 1511.26,1351.01 1509.5,1350C 1509.83,1349.67 1510.17,1349.33 1510.5,1349C 1506.62,1348.78 1503.78,1346.95 1502,1343.5C 1499.44,1345.94 1498.61,1345.44 1499.5,1342C 1496.72,1340.67 1494.22,1338.84 1492,1336.5C 1491.23,1336.64 1490.56,1336.98 1490,1337.5C 1487.03,1335.18 1486.2,1332.34 1487.5,1329C 1485.41,1328.21 1483.58,1327.04 1482,1325.5C 1481.67,1326.17 1481.33,1326.83 1481,1327.5C 1479.69,1325.36 1478.19,1323.36 1476.5,1321.5C 1475.91,1321.71 1475.41,1322.04 1475,1322.5C 1473.49,1320.99 1471.83,1319.66 1470,1318.5C 1469.52,1317.55 1469.35,1316.55 1469.5,1315.5C 1464.61,1313.38 1459.94,1310.72 1455.5,1307.5C 1454.91,1307.71 1454.41,1308.04 1454,1308.5C 1452.73,1307.1 1452.23,1305.43 1452.5,1303.5C 1450.8,1303.03 1449.3,1303.03 1448,1303.5C 1445.35,1299.99 1442.19,1297.16 1438.5,1295C 1439.46,1293.85 1439.12,1292.85 1437.5,1292C 1435.01,1290.4 1432.34,1289.06 1429.5,1288C 1429.71,1286.32 1428.87,1284.82 1427,1283.5C 1426.67,1283.83 1426.33,1284.17 1426,1284.5C 1424.36,1282.19 1422.36,1280.19 1420,1278.5C 1419.67,1279.17 1419.33,1279.83 1419,1280.5C 1417.24,1279.53 1416.74,1278.36 1417.5,1277C 1416.54,1275.58 1415.71,1274.08 1415,1272.5C 1413.33,1273.34 1413.17,1272.84 1414.5,1271C 1413.22,1270.32 1412.05,1270.48 1411,1271.5C 1407.63,1267.44 1403.63,1265.11 1399,1264.5C 1398.71,1262.96 1398.04,1261.62 1397,1260.5C 1396.67,1261.17 1396.33,1261.83 1396,1262.5C 1394.72,1257.38 1391.55,1254.05 1386.5,1252.5C 1385.61,1251.68 1385.28,1250.68 1385.5,1249.5C 1381.98,1248.65 1378.64,1247.31 1375.5,1245.5C 1375.19,1243 1373.85,1240.83 1371.5,1239C 1368.41,1238.29 1365.41,1237.29 1362.5,1236C 1361.88,1233.82 1360.72,1231.99 1359,1230.5C 1357.69,1231.29 1356.52,1230.95 1355.5,1229.5C 1356.22,1229.08 1356.72,1228.42 1357,1227.5C 1359.07,1228.36 1360.74,1229.7 1362,1231.5C 1362.42,1230.04 1363.26,1229.54 1364.5,1230C 1364.04,1230.41 1363.71,1230.91 1363.5,1231.5C 1364.18,1234.46 1365.02,1234.79 1366,1232.5C 1367.5,1233.67 1369,1234.83 1370.5,1236C 1370.17,1236.33 1369.83,1236.67 1369.5,1237C 1371.83,1238.35 1374.16,1238.51 1376.5,1237.5C 1374.01,1236.46 1374.01,1235.63 1376.5,1235C 1374.86,1233.2 1373.52,1231.2 1372.5,1229C 1371.55,1228.38 1370.72,1228.55 1370,1229.5C 1369.33,1226.83 1368.67,1226.83 1368,1229.5C 1367.26,1227.56 1367.42,1225.73 1368.5,1224C 1367.58,1223.63 1366.75,1223.13 1366,1222.5C 1365.78,1223.94 1365.28,1225.27 1364.5,1226.5C 1363.78,1225.1 1363.62,1223.44 1364,1221.5C 1359.23,1225.01 1357.23,1224.01 1358,1218.5C 1353.77,1216.82 1350.27,1214.32 1347.5,1211C 1347.5,1210 1347.5,1209 1347.5,1208C 1345.84,1207.74 1344.34,1208.24 1343,1209.5C 1344.58,1207.06 1344.08,1204.56 1341.5,1202C 1342.09,1201.54 1342.76,1201.37 1343.5,1201.5 Z"/></g>
<g><path style="opacity:0.004" fill="#ff46ff" d="M 472.5,1360.5 C 471.475,1360.1 471.308,1359.44 472,1358.5C 472.464,1359.09 472.631,1359.76 472.5,1360.5 Z"/></g>
<g><path style="opacity:0.012" fill="#bd4817" d="M 472.5,1360.5 C 473.906,1360.97 474.573,1361.97 474.5,1363.5C 473.094,1363.03 472.427,1362.03 472.5,1360.5 Z"/></g>
<g><path style="opacity:0.008" fill="#8c6d10" d="M 474.5,1363.5 C 475.338,1363.84 475.672,1364.51 475.5,1365.5C 474.662,1365.16 474.328,1364.49 474.5,1363.5 Z"/></g>
<g><path style="opacity:0.004" fill="#dc2219" d="M 475.5,1365.5 C 476.338,1365.84 476.672,1366.51 476.5,1367.5C 475.662,1367.16 475.328,1366.49 475.5,1365.5 Z"/></g>
<g><path style="opacity:0.004" fill="#a33416" d="M 476.5,1367.5 C 477.906,1367.97 478.573,1368.97 478.5,1370.5C 477.094,1370.03 476.427,1369.03 476.5,1367.5 Z"/></g>
<g><path style="opacity:0.016" fill="#7f403f" d="M 478.5,1370.5 C 479.833,1371.17 479.833,1371.17 478.5,1370.5 Z"/></g>
<g><path style="opacity:0.008" fill="#fe8000" d="M 479.5,1372.5 C 480.833,1373.17 480.833,1373.17 479.5,1372.5 Z"/></g>
<g><path style="opacity:0.004" fill="#fe0000" d="M 481.5,1375.5 C 480.833,1374.17 480.833,1374.17 481.5,1375.5 Z"/></g>
<g><path style="opacity:0.004" fill="#2f0e01" d="M 481.5,1375.5 C 482.338,1375.84 482.672,1376.51 482.5,1377.5C 481.662,1377.16 481.328,1376.49 481.5,1375.5 Z"/></g>
<g><path style="opacity:0.004" fill="#000000" d="M 482.5,1377.5 C 483.167,1377.5 483.5,1377.83 483.5,1378.5C 483.167,1378.17 482.833,1377.83 482.5,1377.5 Z"/></g>
<g><path style="opacity:0.012" fill="#a95554" d="M 483.5,1378.5 C 484.833,1379.17 484.833,1379.17 483.5,1378.5 Z"/></g>
<g><path style="opacity:0.008" fill="#7f8000" d="M 484.5,1380.5 C 485.833,1381.17 485.833,1381.17 484.5,1380.5 Z"/></g>
<g><path style="opacity:1" fill="#6e210f" d="M 1030.5,1313.5 C 1033.17,1313.5 1035.83,1313.5 1038.5,1313.5C 1038.22,1318.86 1038.22,1324.19 1038.5,1329.5C 1039.6,1330 1040.6,1330.33 1041.5,1330.5C 1040.27,1332.93 1039.27,1335.43 1038.5,1338C 1037.94,1339.57 1038.61,1340.9 1040.5,1342C 1039.36,1343.53 1038.36,1344.86 1037.5,1346C 1038.5,1346.33 1039.5,1346.67 1040.5,1347C 1039.17,1349.28 1037.83,1351.61 1036.5,1354C 1036.67,1354.5 1036.83,1355 1037,1355.5C 1038.51,1354.47 1040.01,1354.63 1041.5,1356C 1040.17,1356.67 1040.17,1357.33 1041.5,1358C 1040.85,1364.71 1039.85,1371.38 1038.5,1378C 1038.92,1380.56 1039.59,1383.4 1040.5,1386.5C 1039.83,1389.83 1039.17,1393.17 1038.5,1396.5C 1039.17,1397.17 1039.83,1397.83 1040.5,1398.5C 1040.22,1400.78 1040.22,1403.11 1040.5,1405.5C 1040.18,1406.65 1039.52,1407.48 1038.5,1408C 1039.36,1408.69 1040.02,1409.52 1040.5,1410.5C 1038.01,1411.54 1038.01,1412.37 1040.5,1413C 1039,1417.22 1037.67,1421.55 1036.5,1426C 1038.61,1426.75 1040.27,1428.58 1041.5,1431.5C 1040.33,1433.42 1039.33,1435.42 1038.5,1437.5C 1039.31,1439.79 1039.64,1441.96 1039.5,1444C 1038.83,1445 1038.17,1446 1037.5,1447C 1038.89,1447.96 1039.56,1449.29 1039.5,1451C 1039.17,1454.67 1038.83,1458.33 1038.5,1462C 1040.58,1465.69 1040.25,1469.36 1037.5,1473C 1039.59,1473.95 1039.93,1475.29 1038.5,1477C 1040.72,1479.6 1040.39,1482.1 1037.5,1484.5C 1038.96,1484.06 1039.96,1484.9 1040.5,1487C 1040.11,1488.01 1039.44,1488.51 1038.5,1488.5C 1038.57,1490.28 1038.9,1492.11 1039.5,1494C 1038.67,1494.91 1037.67,1495.58 1036.5,1496C 1037.87,1497.24 1038.87,1498.74 1039.5,1500.5C 1038.17,1501.83 1038.17,1503.17 1039.5,1504.5C 1038.47,1508.19 1037.14,1511.69 1035.5,1515C 1036.69,1516.02 1037.69,1517.19 1038.5,1518.5C 1037.83,1518.83 1037.17,1519.17 1036.5,1519.5C 1037.5,1520.33 1038.5,1521.17 1039.5,1522C 1039.5,1523.33 1039.5,1524.67 1039.5,1526C 1037.88,1526.62 1036.55,1527.62 1035.5,1529C 1037.68,1529.44 1038.35,1530.44 1037.5,1532C 1038.99,1534.1 1039.99,1536.43 1040.5,1539C 1037.61,1539.68 1036.95,1541.18 1038.5,1543.5C 1036.15,1545.12 1036.15,1546.62 1038.5,1548C 1037.21,1550.47 1037.21,1552.97 1038.5,1555.5C 1038.15,1556.7 1037.65,1556.7 1037,1555.5C 1036.38,1556.45 1036.55,1557.28 1037.5,1558C 1035.2,1559.16 1035.54,1560.16 1038.5,1561C 1037.79,1562.34 1038.12,1563.68 1039.5,1565C 1038.29,1566.04 1037.29,1567.21 1036.5,1568.5C 1034.99,1570.46 1035.32,1572.63 1037.5,1575C 1035.9,1575.27 1034.4,1575.77 1033,1576.5C 1032.67,1576.17 1032.33,1575.83 1032,1575.5C 1031.33,1577.17 1031.33,1578.83 1032,1580.5C 1032.37,1579.09 1033.2,1578.09 1034.5,1577.5C 1035.7,1577.85 1035.7,1578.35 1034.5,1579C 1035.5,1579.33 1036.5,1579.67 1037.5,1580C 1036.17,1580.67 1036.17,1581.33 1037.5,1582C 1036.83,1582.33 1036.17,1582.67 1035.5,1583C 1036.16,1584.69 1036.16,1586.53 1035.5,1588.5C 1035.71,1589.99 1036.38,1591.16 1037.5,1592C 1035.46,1594.5 1035.13,1597.17 1036.5,1600C 1033.46,1600.36 1033.12,1601.03 1035.5,1602C 1033.15,1603.38 1033.15,1604.88 1035.5,1606.5C 1035.33,1607.17 1035.17,1607.83 1035,1608.5C 1034.35,1607.3 1033.85,1607.3 1033.5,1608.5C 1034.59,1609.61 1034.59,1610.61 1033.5,1611.5C 1031.87,1610.67 1030.2,1610.5 1028.5,1611C 1028.83,1610.67 1029.17,1610.33 1029.5,1610C 1028.92,1608.7 1028.25,1607.53 1027.5,1606.5C 1026.71,1606.22 1026.04,1605.72 1025.5,1605C 1025.91,1603.46 1025.91,1601.8 1025.5,1600C 1025.9,1598.53 1026.57,1597.19 1027.5,1596C 1025.35,1593.63 1024.02,1590.79 1023.5,1587.5C 1024.14,1586.35 1024.98,1585.35 1026,1584.5C 1025.93,1582.03 1026.1,1579.7 1026.5,1577.5C 1024.97,1577.06 1023.97,1575.73 1023.5,1573.5C 1024.5,1573.5 1025.5,1573.5 1026.5,1573.5C 1026.66,1571.14 1026.5,1568.81 1026,1566.5C 1025.67,1567.17 1025.33,1567.83 1025,1568.5C 1024.06,1565.65 1024.56,1563.15 1026.5,1561C 1025.53,1559.8 1024.53,1559.3 1023.5,1559.5C 1023.98,1558.52 1024.64,1557.69 1025.5,1557C 1025.09,1554.79 1025.09,1552.46 1025.5,1550C 1025.02,1548.24 1024.36,1546.57 1023.5,1545C 1026.17,1544.33 1026.17,1543.67 1023.5,1543C 1024.73,1542.22 1025.73,1541.22 1026.5,1540C 1024.46,1536.49 1024.8,1532.99 1027.5,1529.5C 1026.62,1528.75 1025.62,1528.25 1024.5,1528C 1025.83,1527.33 1026.83,1526.33 1027.5,1525C 1026.71,1521.73 1025.71,1518.4 1024.5,1515C 1027.47,1513.49 1027.81,1511.83 1025.5,1510C 1027.91,1506.33 1027.74,1503.16 1025,1500.5C 1025.14,1495.92 1024.98,1491.42 1024.5,1487C 1025.95,1483.53 1026.95,1480.2 1027.5,1477C 1025.99,1475.65 1024.99,1473.98 1024.5,1472C 1025.11,1469.15 1025.78,1466.31 1026.5,1463.5C 1025.83,1463.17 1025.17,1462.83 1024.5,1462.5C 1025.03,1460.26 1026.37,1458.76 1028.5,1458C 1027.83,1457.33 1027.17,1456.67 1026.5,1456C 1027.05,1446.01 1027.38,1435.68 1027.5,1425C 1027.52,1422 1026.85,1419.17 1025.5,1416.5C 1027.16,1413.34 1026.82,1410.51 1024.5,1408C 1025.29,1404.92 1025.79,1401.76 1026,1398.5C 1029.07,1395.56 1028.91,1393.06 1025.5,1391C 1026.94,1390.01 1027.94,1388.68 1028.5,1387C 1027.09,1386.63 1026.09,1385.8 1025.5,1384.5C 1026.3,1383.06 1026.97,1381.56 1027.5,1380C 1026.75,1376.18 1027.09,1372.02 1028.5,1367.5C 1027.69,1366.78 1027.02,1365.95 1026.5,1365C 1027.13,1361.48 1027.79,1357.98 1028.5,1354.5C 1027.83,1352.49 1026.83,1350.66 1025.5,1349C 1025.76,1347.74 1026.43,1346.74 1027.5,1346C 1027.24,1342.75 1027.24,1339.08 1027.5,1335C 1026.57,1334.61 1025.91,1333.95 1025.5,1333C 1027.72,1329.47 1029.39,1325.64 1030.5,1321.5C 1027.85,1318.8 1027.85,1316.13 1030.5,1313.5 Z"/></g>
<g><path style="opacity:0.004" fill="#fe0000" d="M 486.5,1383.5 C 485.833,1382.17 485.833,1382.17 486.5,1383.5 Z"/></g>
<g><path style="opacity:0.004" fill="#fe0000" d="M 486.5,1383.5 C 487.833,1384.17 487.833,1384.17 486.5,1383.5 Z"/></g>
<g><path style="opacity:1" fill="#5b190a" d="M 1562.5,1376.5 C 1563.17,1376.83 1563.83,1377.17 1564.5,1377.5C 1565.63,1381.5 1565.46,1385.17 1564,1388.5C 1561.55,1389.96 1559.21,1389.29 1557,1386.5C 1556.67,1386.83 1556.33,1387.17 1556,1387.5C 1554.83,1385.67 1553.67,1383.83 1552.5,1382C 1554.76,1379.95 1556.93,1377.78 1559,1375.5C 1560.01,1376.34 1561.18,1376.67 1562.5,1376.5 Z"/></g>
<g><path style="opacity:0.008" fill="#fe8000" d="M 488.5,1386.5 C 489.833,1387.17 489.833,1387.17 488.5,1386.5 Z"/></g>
<g><path style="opacity:0.004" fill="#fe0000" d="M 489.5,1388.5 C 490.833,1389.17 490.833,1389.17 489.5,1388.5 Z"/></g>
<g><path style="opacity:0.004" fill="#fe0000" d="M 493.5,1394.5 C 494.833,1395.17 494.833,1395.17 493.5,1394.5 Z"/></g>
<g><path style="opacity:0.004" fill="#000000" d="M 497.5,1400.5 C 498.833,1401.17 498.833,1401.17 497.5,1400.5 Z"/></g>
<g><path style="opacity:1" fill="#7c2713" d="M 1036.5,1568.5 C 1038.14,1569.87 1039.14,1571.7 1039.5,1574C 1037.86,1575.65 1038.19,1576.65 1040.5,1577C 1038.19,1577.35 1037.86,1578.35 1039.5,1580C 1038.69,1581.78 1038.02,1583.62 1037.5,1585.5C 1038.39,1588.28 1039.06,1590.78 1039.5,1593C 1038.36,1594.53 1037.36,1595.86 1036.5,1597C 1037.29,1598.09 1037.96,1599.25 1038.5,1600.5C 1036.08,1604.58 1036.08,1608.25 1038.5,1611.5C 1037.83,1615.16 1037.49,1618.83 1037.5,1622.5C 1037.29,1621.08 1036.79,1619.74 1036,1618.5C 1035.33,1617.17 1034.67,1617.17 1034,1618.5C 1033.52,1617.55 1033.35,1616.55 1033.5,1615.5C 1030.53,1616.31 1028.7,1618.31 1028,1621.5C 1027.67,1621.17 1027.33,1620.83 1027,1620.5C 1027.53,1622.23 1027.36,1623.89 1026.5,1625.5C 1025.52,1625.19 1024.86,1624.52 1024.5,1623.5C 1025.09,1619.65 1025.09,1615.65 1024.5,1611.5C 1024.77,1609.31 1025.77,1607.64 1027.5,1606.5C 1028.25,1607.53 1028.92,1608.7 1029.5,1610C 1029.17,1610.33 1028.83,1610.67 1028.5,1611C 1030.2,1610.5 1031.87,1610.67 1033.5,1611.5C 1034.59,1610.61 1034.59,1609.61 1033.5,1608.5C 1033.85,1607.3 1034.35,1607.3 1035,1608.5C 1035.17,1607.83 1035.33,1607.17 1035.5,1606.5C 1033.15,1604.88 1033.15,1603.38 1035.5,1602C 1033.12,1601.03 1033.46,1600.36 1036.5,1600C 1035.13,1597.17 1035.46,1594.5 1037.5,1592C 1036.38,1591.16 1035.71,1589.99 1035.5,1588.5C 1036.16,1586.53 1036.16,1584.69 1035.5,1583C 1036.17,1582.67 1036.83,1582.33 1037.5,1582C 1036.17,1581.33 1036.17,1580.67 1037.5,1580C 1036.5,1579.67 1035.5,1579.33 1034.5,1579C 1035.7,1578.35 1035.7,1577.85 1034.5,1577.5C 1033.2,1578.09 1032.37,1579.09 1032,1580.5C 1031.33,1578.83 1031.33,1577.17 1032,1575.5C 1032.33,1575.83 1032.67,1576.17 1033,1576.5C 1034.4,1575.77 1035.9,1575.27 1037.5,1575C 1035.32,1572.63 1034.99,1570.46 1036.5,1568.5 Z"/></g>
<g><path style="opacity:1" fill="#691f0e" d="M 1037.5,1622.5 C 1040.26,1625.78 1039.92,1628.62 1036.5,1631C 1037.49,1633.42 1037.15,1635.75 1035.5,1638C 1037.04,1643.19 1038.04,1648.52 1038.5,1654C 1037.03,1656.44 1037.37,1658.61 1039.5,1660.5C 1038.21,1662.74 1037.21,1665.07 1036.5,1667.5C 1032.83,1667.5 1029.17,1667.5 1025.5,1667.5C 1025.05,1666.54 1024.38,1665.71 1023.5,1665C 1023.83,1659 1023.83,1653 1023.5,1647C 1026.09,1644.23 1026.09,1641.4 1023.5,1638.5C 1024.07,1636.94 1024.74,1635.44 1025.5,1634C 1025.17,1633.67 1024.83,1633.33 1024.5,1633C 1026.96,1631.85 1026.96,1630.51 1024.5,1629C 1025.82,1628.18 1026.49,1627.02 1026.5,1625.5C 1027.36,1623.89 1027.53,1622.23 1027,1620.5C 1027.33,1620.83 1027.67,1621.17 1028,1621.5C 1028.7,1618.31 1030.53,1616.31 1033.5,1615.5C 1033.35,1616.55 1033.52,1617.55 1034,1618.5C 1034.67,1617.17 1035.33,1617.17 1036,1618.5C 1036.79,1619.74 1037.29,1621.08 1037.5,1622.5 Z"/></g>
</svg>
