<?xml version="1.0" encoding="UTF-8"?>
<!DOCTYPE svg PUBLIC "-//W3C//DTD SVG 1.1//EN" "http://www.w3.org/Graphics/SVG/1.1/DTD/svg11.dtd">
<svg xmlns="http://www.w3.org/2000/svg" version="1.1" width="2048px" height="2048px" style="shape-rendering:geometricPrecision; text-rendering:geometricPrecision; image-rendering:optimizeQuality; fill-rule:evenodd; clip-rule:evenodd" xmlns:xlink="http://www.w3.org/1999/xlink">
<g><path style="opacity:1" fill="#bb4225" d="M 1063.5,398.5 C 1221.3,404.781 1358.3,460.614 1474.5,566C 1509.47,598.449 1540.14,634.282 1566.5,673.5C 1534.48,695.192 1502.48,716.859 1470.5,738.5C 1467.5,738.253 1465,739.253 1463,741.5C 1462.67,741.167 1462.33,740.833 1462,740.5C 1460.12,741.653 1459.28,743.319 1459.5,745.5C 1438.36,760.906 1416.69,775.573 1394.5,789.5C 1392.14,789.337 1389.81,789.503 1387.5,790C 1388.26,791.364 1387.76,792.531 1386,793.5C 1385.59,793.043 1385.09,792.709 1384.5,792.5C 1383.64,794.197 1382.3,795.363 1380.5,796C 1381.04,796.717 1381.71,797.217 1382.5,797.5C 1382.5,798.167 1382.17,798.5 1381.5,798.5C 1379.46,798.854 1377.63,798.854 1376,798.5C 1374.88,799.552 1374.38,800.719 1374.5,802C 1373.23,802.309 1372.07,802.809 1371,803.5C 1370.67,803.167 1370.33,802.833 1370,802.5C 1365.91,806.691 1361.41,810.357 1356.5,813.5C 1355.23,814.257 1355.23,814.923 1356.5,815.5C 1334.07,830.747 1311.74,846.247 1289.5,862C 1287.21,864.743 1285.05,867.577 1283,870.5C 1228.39,792.537 1153.22,750.203 1057.5,743.5C 1057.59,742.504 1057.25,741.671 1056.5,741C 1057.45,737.969 1058.45,734.969 1059.5,732C 1058.27,729.973 1058.6,728.64 1060.5,728C 1059.83,726.667 1059.17,725.333 1058.5,724C 1059.27,721.595 1059.77,719.095 1060,716.5C 1060.33,717.5 1060.67,718.5 1061,719.5C 1061.17,718.833 1061.33,718.167 1061.5,717.5C 1060.64,715.913 1059.97,714.246 1059.5,712.5C 1060.44,708.356 1061.44,704.189 1062.5,700C 1062.11,698.989 1061.44,698.489 1060.5,698.5C 1060.28,696.058 1060.28,693.558 1060.5,691C 1060.24,689.739 1059.57,688.739 1058.5,688C 1059.47,685.782 1060.14,683.449 1060.5,681C 1060.66,678.395 1060.33,676.061 1059.5,674C 1061.79,671.468 1061.46,669.135 1058.5,667C 1060.3,666.683 1060.63,666.016 1059.5,665C 1060.04,661.509 1061.04,658.175 1062.5,655C 1061.35,653.27 1061.35,651.604 1062.5,650C 1061.83,649.667 1061.17,649.333 1060.5,649C 1062.8,646.193 1062.47,643.526 1059.5,641C 1059.25,637.279 1059.58,633.446 1060.5,629.5C 1061.69,629.03 1062.36,628.03 1062.5,626.5C 1061.34,623.989 1060.68,621.322 1060.5,618.5C 1060.94,616.874 1061.27,615.207 1061.5,613.5C 1060.77,610.683 1060.1,608.183 1059.5,606C 1062.02,602.629 1062.02,599.295 1059.5,596C 1061.08,592.815 1062.41,589.481 1063.5,586C 1062.82,583.658 1063.16,581.324 1064.5,579C 1061.25,577.768 1060.91,575.768 1063.5,573C 1062.9,568.681 1061.57,564.681 1059.5,561C 1061.29,558.542 1062.29,555.709 1062.5,552.5C 1062.18,551.353 1061.52,550.519 1060.5,550C 1061.83,548.333 1061.83,546.667 1060.5,545C 1062.78,543.518 1062.78,541.851 1060.5,540C 1064.43,538.848 1065.09,536.848 1062.5,534C 1062.83,533.667 1063.17,533.333 1063.5,533C 1062.33,532.581 1061.33,531.915 1060.5,531C 1061.83,529.333 1061.83,527.667 1060.5,526C 1061.5,525.167 1062.5,524.333 1063.5,523.5C 1063.44,521.138 1063.44,518.805 1063.5,516.5C 1061.12,512.589 1061.12,508.755 1063.5,505C 1062.83,503.333 1062.17,501.667 1061.5,500C 1062.62,497.335 1063.29,494.835 1063.5,492.5C 1063.06,491.494 1062.4,491.494 1061.5,492.5C 1060.76,491.009 1060.09,489.509 1059.5,488C 1060.04,487.283 1060.71,486.783 1061.5,486.5C 1063.66,484.339 1063.99,481.839 1062.5,479C 1063.07,476.102 1064.07,473.102 1065.5,470C 1064.17,469.333 1063.17,468.333 1062.5,467C 1062.15,464.945 1062.82,462.945 1064.5,461C 1061.6,458.295 1061.26,455.462 1063.5,452.5C 1063.25,451.287 1062.59,450.62 1061.5,450.5C 1062.01,445.428 1063.35,440.595 1065.5,436C 1064.43,433.343 1062.76,431.177 1060.5,429.5C 1062.26,426.066 1063.93,422.566 1065.5,419C 1064.67,418.085 1063.67,417.419 1062.5,417C 1063.19,412.427 1064.19,407.593 1065.5,402.5C 1064.82,401.14 1064.15,399.807 1063.5,398.5 Z"/></g>
<g><path style="opacity:0.004" fill="#e13413" d="M 969.5,402.5 C 970.713,403.497 970.546,404.497 969,405.5C 968.53,404.423 968.697,403.423 969.5,402.5 Z"/></g>
<g><path style="opacity:1" fill="#6d210f" d="M 1051.5,398.5 C 1055.5,398.5 1059.5,398.5 1063.5,398.5C 1064.15,399.807 1064.82,401.14 1065.5,402.5C 1064.19,407.593 1063.19,412.427 1062.5,417C 1063.67,417.419 1064.67,418.085 1065.5,419C 1063.93,422.566 1062.26,426.066 1060.5,429.5C 1062.76,431.177 1064.43,433.343 1065.5,436C 1063.35,440.595 1062.01,445.428 1061.5,450.5C 1059.94,453.15 1058.78,455.817 1058,458.5C 1058.33,457.833 1058.67,457.167 1059,456.5C 1059.23,458.78 1060.07,460.78 1061.5,462.5C 1061.17,462.833 1060.83,463.167 1060.5,463.5C 1058.18,460.585 1056.18,460.418 1054.5,463C 1052.45,463.054 1052.45,462.054 1054.5,460C 1053.83,459.667 1053.17,459.333 1052.5,459C 1053.76,458.077 1055.09,457.243 1056.5,456.5C 1055.42,456.251 1054.08,456.085 1052.5,456C 1054.26,454.992 1055.43,453.492 1056,451.5C 1059.31,452.455 1059.31,452.121 1056,450.5C 1054.84,451.187 1053.67,451.353 1052.5,451C 1052.84,448.363 1053.34,445.863 1054,443.5C 1055.08,445.657 1056.25,445.824 1057.5,444C 1055.17,442.925 1053.84,441.425 1053.5,439.5C 1054.26,438.281 1055.26,437.281 1056.5,436.5C 1055.27,435.719 1053.94,435.219 1052.5,435C 1055.84,432.528 1055.84,430.528 1052.5,429C 1053.62,427.926 1054.62,426.76 1055.5,425.5C 1056.45,426.326 1057.45,426.492 1058.5,426C 1057.77,424.601 1057.27,423.101 1057,421.5C 1056.58,422.672 1055.91,423.672 1055,424.5C 1054.83,424.167 1054.67,423.833 1054.5,423.5C 1053.75,421.242 1053.75,418.742 1054.5,416C 1053.83,415.667 1053.17,415.333 1052.5,415C 1053.3,411.794 1053.64,408.46 1053.5,405C 1053.24,403.739 1052.57,402.739 1051.5,402C 1052.68,400.855 1052.68,399.688 1051.5,398.5 Z"/></g>
<g><path style="opacity:0.453" fill="#b64024" d="M 1050.5,398.5 C 1049.52,401.863 1049.85,405.53 1051.5,409.5C 1050.43,412.894 1050.43,416.561 1051.5,420.5C 1050.7,421.941 1050.03,423.441 1049.5,425C 1050.85,426.555 1051.51,428.389 1051.5,430.5C 1049.8,436.039 1049.14,441.372 1049.5,446.5C 1049.76,448.187 1050.43,449.687 1051.5,451C 1050.43,454.245 1049.43,457.411 1048.5,460.5C 1047.84,439.473 1048.51,418.806 1050.5,398.5 Z"/></g>
<g><path style="opacity:1" fill="#7d2813" d="M 1050.5,398.5 C 1050.83,398.5 1051.17,398.5 1051.5,398.5C 1052.68,399.688 1052.68,400.855 1051.5,402C 1052.57,402.739 1053.24,403.739 1053.5,405C 1053.64,408.46 1053.3,411.794 1052.5,415C 1053.17,415.333 1053.83,415.667 1054.5,416C 1053.75,418.742 1053.75,421.242 1054.5,423.5C 1054.67,423.833 1054.83,424.167 1055,424.5C 1055.91,423.672 1056.58,422.672 1057,421.5C 1057.27,423.101 1057.77,424.601 1058.5,426C 1057.45,426.492 1056.45,426.326 1055.5,425.5C 1054.62,426.76 1053.62,427.926 1052.5,429C 1055.84,430.528 1055.84,432.528 1052.5,435C 1053.94,435.219 1055.27,435.719 1056.5,436.5C 1055.26,437.281 1054.26,438.281 1053.5,439.5C 1053.84,441.425 1055.17,442.925 1057.5,444C 1056.25,445.824 1055.08,445.657 1054,443.5C 1053.34,445.863 1052.84,448.363 1052.5,451C 1053.67,451.353 1054.84,451.187 1056,450.5C 1059.31,452.121 1059.31,452.455 1056,451.5C 1055.43,453.492 1054.26,454.992 1052.5,456C 1054.08,456.085 1055.42,456.251 1056.5,456.5C 1055.09,457.243 1053.76,458.077 1052.5,459C 1053.17,459.333 1053.83,459.667 1054.5,460C 1052.45,462.054 1052.45,463.054 1054.5,463C 1056.18,460.418 1058.18,460.585 1060.5,463.5C 1060.83,463.167 1061.17,462.833 1061.5,462.5C 1060.07,460.78 1059.23,458.78 1059,456.5C 1058.67,457.167 1058.33,457.833 1058,458.5C 1058.78,455.817 1059.94,453.15 1061.5,450.5C 1062.59,450.62 1063.25,451.287 1063.5,452.5C 1061.26,455.462 1061.6,458.295 1064.5,461C 1062.82,462.945 1062.15,464.945 1062.5,467C 1063.17,468.333 1064.17,469.333 1065.5,470C 1064.07,473.102 1063.07,476.102 1062.5,479C 1063.99,481.839 1063.66,484.339 1061.5,486.5C 1060.83,485.153 1060.83,483.986 1061.5,483C 1059.83,482 1058.17,481 1056.5,480C 1057.78,479.316 1058.95,479.483 1060,480.5C 1060.62,479.551 1060.45,478.718 1059.5,478C 1062.17,476.667 1062.17,475.333 1059.5,474C 1060.31,472.686 1061.31,471.519 1062.5,470.5C 1061.22,467.888 1059.55,465.555 1057.5,463.5C 1056.5,464 1055.5,464.5 1054.5,465C 1055.34,466.011 1055.67,467.178 1055.5,468.5C 1054.04,468.433 1052.71,468.766 1051.5,469.5C 1050.27,467.983 1050.27,466.316 1051.5,464.5C 1050.45,463.452 1049.45,462.452 1048.5,461.5C 1048.5,461.167 1048.5,460.833 1048.5,460.5C 1049.43,457.411 1050.43,454.245 1051.5,451C 1050.43,449.687 1049.76,448.187 1049.5,446.5C 1049.14,441.372 1049.8,436.039 1051.5,430.5C 1051.51,428.389 1050.85,426.555 1049.5,425C 1050.03,423.441 1050.7,421.941 1051.5,420.5C 1050.43,416.561 1050.43,412.894 1051.5,409.5C 1049.85,405.53 1049.52,401.863 1050.5,398.5 Z"/></g>
<g><path style="opacity:0.082" fill="#c93d1b" d="M 764.5,464.5 C 765.877,472.388 765.71,480.388 764,488.5C 763.47,482.836 762.97,477.169 762.5,471.5C 762.643,468.887 763.31,466.553 764.5,464.5 Z"/></g>
<g><path style="opacity:0.012" fill="#bd4f28" d="M 733.5,480.5 C 734.641,483.64 734.808,486.973 734,490.5C 733.782,487.574 733.282,484.74 732.5,482C 733.056,481.617 733.389,481.117 733.5,480.5 Z"/></g>
<g><path style="opacity:0.737" fill="#ad3c22" d="M 1048.5,461.5 C 1049.45,462.452 1050.45,463.452 1051.5,464.5C 1050.27,466.316 1050.27,467.983 1051.5,469.5C 1051.23,472.91 1051.23,476.41 1051.5,480C 1050.69,480.308 1050.03,480.808 1049.5,481.5C 1054.43,485.079 1054.1,488.413 1048.5,491.5C 1048.5,481.5 1048.5,471.5 1048.5,461.5 Z"/></g>
<g><path style="opacity:0.055" fill="#b93f22" d="M 703.5,498.5 C 704.651,503.65 704.817,508.984 704,514.5C 703.348,509.923 702.515,505.423 701.5,501C 702.381,500.292 703.047,499.458 703.5,498.5 Z"/></g>
<g><path style="opacity:0.81" fill="#99341c" d="M 1048.5,494.5 C 1049.45,495.919 1049.78,497.585 1049.5,499.5C 1051.1,499.312 1052.44,499.812 1053.5,501C 1051.64,504.743 1050.31,508.743 1049.5,513C 1050.17,513.667 1050.83,514.333 1051.5,515C 1050.17,516.333 1050.17,517.667 1051.5,519C 1050.69,519.308 1050.03,519.808 1049.5,520.5C 1051,524.569 1051.67,528.236 1051.5,531.5C 1050.62,532.548 1049.95,533.715 1049.5,535C 1053.29,537.736 1054.29,541.236 1052.5,545.5C 1049.07,545.35 1048.74,546.516 1051.5,549C 1050.82,551.342 1051.16,553.676 1052.5,556C 1051.01,558.793 1049.68,561.626 1048.5,564.5C 1048.5,541.167 1048.5,517.833 1048.5,494.5 Z"/></g>
<g><path style="opacity:1" fill="#6c200f" d="M 1061.5,486.5 C 1060.71,486.783 1060.04,487.283 1059.5,488C 1060.09,489.509 1060.76,491.009 1061.5,492.5C 1062.4,491.494 1063.06,491.494 1063.5,492.5C 1063.29,494.835 1062.62,497.335 1061.5,500C 1062.17,501.667 1062.83,503.333 1063.5,505C 1061.12,508.755 1061.12,512.589 1063.5,516.5C 1063.44,518.805 1063.44,521.138 1063.5,523.5C 1062.5,524.333 1061.5,525.167 1060.5,526C 1061.83,527.667 1061.83,529.333 1060.5,531C 1061.33,531.915 1062.33,532.581 1063.5,533C 1063.17,533.333 1062.83,533.667 1062.5,534C 1065.09,536.848 1064.43,538.848 1060.5,540C 1062.78,541.851 1062.78,543.518 1060.5,545C 1061.83,546.667 1061.83,548.333 1060.5,550C 1061.52,550.519 1062.18,551.353 1062.5,552.5C 1062.29,555.709 1061.29,558.542 1059.5,561C 1061.57,564.681 1062.9,568.681 1063.5,573C 1060.91,575.768 1061.25,577.768 1064.5,579C 1063.16,581.324 1062.82,583.658 1063.5,586C 1062.41,589.481 1061.08,592.815 1059.5,596C 1062.02,599.295 1062.02,602.629 1059.5,606C 1060.1,608.183 1060.77,610.683 1061.5,613.5C 1061.27,615.207 1060.94,616.874 1060.5,618.5C 1057.86,620.838 1058.19,623.005 1061.5,625C 1060.5,625.333 1059.5,625.667 1058.5,626C 1059.65,626.914 1059.49,627.747 1058,628.5C 1057.67,626.167 1057.33,623.833 1057,621.5C 1056.5,622 1056,622.5 1055.5,623C 1056.83,624.333 1056.83,625.667 1055.5,627C 1053.87,627.494 1052.2,627.66 1050.5,627.5C 1050.21,625.712 1050.55,624.045 1051.5,622.5C 1052.32,624.748 1053.32,624.914 1054.5,623C 1054.17,622.667 1053.83,622.333 1053.5,622C 1054.67,621.581 1055.67,620.915 1056.5,620C 1054.94,619.059 1053.61,617.892 1052.5,616.5C 1051.74,613.882 1051.74,611.049 1052.5,608C 1049.68,606.526 1049.34,605.026 1051.5,603.5C 1051.12,601.787 1050.12,600.787 1048.5,600.5C 1048.5,588.5 1048.5,576.5 1048.5,564.5C 1049.68,561.626 1051.01,558.793 1052.5,556C 1051.16,553.676 1050.82,551.342 1051.5,549C 1048.74,546.516 1049.07,545.35 1052.5,545.5C 1054.29,541.236 1053.29,537.736 1049.5,535C 1049.95,533.715 1050.62,532.548 1051.5,531.5C 1051.67,528.236 1051,524.569 1049.5,520.5C 1050.03,519.808 1050.69,519.308 1051.5,519C 1050.17,517.667 1050.17,516.333 1051.5,515C 1050.83,514.333 1050.17,513.667 1049.5,513C 1050.31,508.743 1051.64,504.743 1053.5,501C 1052.44,499.812 1051.1,499.312 1049.5,499.5C 1049.78,497.585 1049.45,495.919 1048.5,494.5C 1048.5,493.5 1048.5,492.5 1048.5,491.5C 1054.1,488.413 1054.43,485.079 1049.5,481.5C 1050.03,480.808 1050.69,480.308 1051.5,480C 1051.23,476.41 1051.23,472.91 1051.5,469.5C 1052.71,468.766 1054.04,468.433 1055.5,468.5C 1055.67,467.178 1055.34,466.011 1054.5,465C 1055.5,464.5 1056.5,464 1057.5,463.5C 1059.55,465.555 1061.22,467.888 1062.5,470.5C 1061.31,471.519 1060.31,472.686 1059.5,474C 1062.17,475.333 1062.17,476.667 1059.5,478C 1060.45,478.718 1060.62,479.551 1060,480.5C 1058.95,479.483 1057.78,479.316 1056.5,480C 1058.17,481 1059.83,482 1061.5,483C 1060.83,483.986 1060.83,485.153 1061.5,486.5 Z"/></g>
<g><path style="opacity:1" fill="#842b15" d="M 1048.5,600.5 C 1050.12,600.787 1051.12,601.787 1051.5,603.5C 1049.34,605.026 1049.68,606.526 1052.5,608C 1051.74,611.049 1051.74,613.882 1052.5,616.5C 1053.61,617.892 1054.94,619.059 1056.5,620C 1055.67,620.915 1054.67,621.581 1053.5,622C 1053.83,622.333 1054.17,622.667 1054.5,623C 1053.32,624.914 1052.32,624.748 1051.5,622.5C 1050.55,624.045 1050.21,625.712 1050.5,627.5C 1052.2,627.66 1053.87,627.494 1055.5,627C 1056.83,625.667 1056.83,624.333 1055.5,623C 1056,622.5 1056.5,622 1057,621.5C 1057.33,623.833 1057.67,626.167 1058,628.5C 1059.49,627.747 1059.65,626.914 1058.5,626C 1059.5,625.667 1060.5,625.333 1061.5,625C 1058.19,623.005 1057.86,620.838 1060.5,618.5C 1060.68,621.322 1061.34,623.989 1062.5,626.5C 1062.36,628.03 1061.69,629.03 1060.5,629.5C 1059.25,629.577 1058.42,630.244 1058,631.5C 1057.63,630.584 1057.13,629.75 1056.5,629C 1055.18,629.148 1054.01,628.982 1053,628.5C 1052.03,630.274 1051.2,632.107 1050.5,634C 1051.62,635.235 1051.62,636.402 1050.5,637.5C 1050.97,639.134 1051.97,640.3 1053.5,641C 1052.5,641.833 1051.5,642.667 1050.5,643.5C 1051.16,647.837 1051.49,652.337 1051.5,657C 1051.52,660.005 1050.85,662.838 1049.5,665.5C 1049.9,670.961 1049.9,676.627 1049.5,682.5C 1050.89,682.109 1051.89,682.942 1052.5,685C 1051.97,688.018 1050.97,690.851 1049.5,693.5C 1050.98,694.944 1050.65,695.611 1048.5,695.5C 1048.5,663.833 1048.5,632.167 1048.5,600.5 Z"/></g>
<g><path style="opacity:1" fill="#6e210f" d="M 1060.5,629.5 C 1059.58,633.446 1059.25,637.279 1059.5,641C 1062.47,643.526 1062.8,646.193 1060.5,649C 1061.17,649.333 1061.83,649.667 1062.5,650C 1061.35,651.604 1061.35,653.27 1062.5,655C 1061.04,658.175 1060.04,661.509 1059.5,665C 1060.63,666.016 1060.3,666.683 1058.5,667C 1061.46,669.135 1061.79,671.468 1059.5,674C 1060.33,676.061 1060.66,678.395 1060.5,681C 1060.14,683.449 1059.47,685.782 1058.5,688C 1059.57,688.739 1060.24,689.739 1060.5,691C 1060.28,693.558 1060.28,696.058 1060.5,698.5C 1061.44,698.489 1062.11,698.989 1062.5,700C 1061.44,704.189 1060.44,708.356 1059.5,712.5C 1059.97,714.246 1060.64,715.913 1061.5,717.5C 1061.33,718.167 1061.17,718.833 1061,719.5C 1060.67,718.5 1060.33,717.5 1060,716.5C 1059.77,719.095 1059.27,721.595 1058.5,724C 1059.17,725.333 1059.83,726.667 1060.5,728C 1058.6,728.64 1058.27,729.973 1059.5,732C 1058.45,734.969 1057.45,737.969 1056.5,741C 1057.25,741.671 1057.59,742.504 1057.5,743.5C 1055.17,743.5 1052.83,743.5 1050.5,743.5C 1051.95,742.175 1051.62,741.342 1049.5,741C 1050.71,739.887 1050.71,738.72 1049.5,737.5C 1049.84,735.575 1051.17,734.075 1053.5,733C 1051.91,733.617 1050.57,733.284 1049.5,732C 1050.17,731.333 1050.83,730.667 1051.5,730C 1050.22,726.717 1048.89,723.55 1047.5,720.5C 1048.44,712.221 1048.77,703.888 1048.5,695.5C 1050.65,695.611 1050.98,694.944 1049.5,693.5C 1050.97,690.851 1051.97,688.018 1052.5,685C 1051.89,682.942 1050.89,682.109 1049.5,682.5C 1049.9,676.627 1049.9,670.961 1049.5,665.5C 1050.85,662.838 1051.52,660.005 1051.5,657C 1051.49,652.337 1051.16,647.837 1050.5,643.5C 1051.5,642.667 1052.5,641.833 1053.5,641C 1051.97,640.3 1050.97,639.134 1050.5,637.5C 1051.62,636.402 1051.62,635.235 1050.5,634C 1051.2,632.107 1052.03,630.274 1053,628.5C 1054.01,628.982 1055.18,629.148 1056.5,629C 1057.13,629.75 1057.63,630.584 1058,631.5C 1058.42,630.244 1059.25,629.577 1060.5,629.5 Z"/></g>
<g><path style="opacity:0.004" fill="#bf1407" d="M 1018.5,734.5 C 1017.88,734.389 1017.38,734.056 1017,733.5C 1015.26,735.768 1013.09,737.435 1010.5,738.5C 1009.76,732.366 1012.43,729.366 1018.5,729.5C 1018.5,731.167 1018.5,732.833 1018.5,734.5 Z"/></g>
<g><path style="opacity:0.342" fill="#b74022" d="M 1047.5,720.5 C 1048.89,723.55 1050.22,726.717 1051.5,730C 1050.83,730.667 1050.17,731.333 1049.5,732C 1050.57,733.284 1051.91,733.617 1053.5,733C 1051.17,734.075 1049.84,735.575 1049.5,737.5C 1050.71,738.72 1050.71,739.887 1049.5,741C 1051.62,741.342 1051.95,742.175 1050.5,743.5C 1048.83,743.5 1047.17,743.5 1045.5,743.5C 1046.74,735.889 1047.41,728.223 1047.5,720.5 Z"/></g>
<g><path style="opacity:0.541" fill="#812813" d="M 1470.5,738.5 C 1467.11,741.221 1463.44,743.554 1459.5,745.5C 1459.28,743.319 1460.12,741.653 1462,740.5C 1462.33,740.833 1462.67,741.167 1463,741.5C 1465,739.253 1467.5,738.253 1470.5,738.5 Z"/></g>
<g><path style="opacity:0.047" fill="#bb4421" d="M 1018.5,734.5 C 1019.37,737.418 1020.37,740.418 1021.5,743.5C 1017.68,745.145 1013.68,745.811 1009.5,745.5C 1009.67,743.139 1010.01,740.806 1010.5,738.5C 1013.09,737.435 1015.26,735.768 1017,733.5C 1017.38,734.056 1017.88,734.389 1018.5,734.5 Z"/></g>
<g><path style="opacity:0.2" fill="#802914" d="M 1394.5,789.5 C 1390.85,792.66 1386.85,795.327 1382.5,797.5C 1381.71,797.217 1381.04,796.717 1380.5,796C 1382.3,795.363 1383.64,794.197 1384.5,792.5C 1385.09,792.709 1385.59,793.043 1386,793.5C 1387.76,792.531 1388.26,791.364 1387.5,790C 1389.81,789.503 1392.14,789.337 1394.5,789.5 Z"/></g>
<g><path style="opacity:0.973" fill="#892f18" d="M 1381.5,798.5 C 1373.38,804.401 1365.04,810.068 1356.5,815.5C 1355.23,814.923 1355.23,814.257 1356.5,813.5C 1361.41,810.357 1365.91,806.691 1370,802.5C 1370.33,802.833 1370.67,803.167 1371,803.5C 1372.07,802.809 1373.23,802.309 1374.5,802C 1374.38,800.719 1374.88,799.552 1376,798.5C 1377.63,798.854 1379.46,798.854 1381.5,798.5 Z"/></g>
<g><path style="opacity:0.004" fill="#fe0000" d="M 1348.5,842.5 C 1349.83,843.167 1349.83,843.167 1348.5,842.5 Z"/></g>
<g><path style="opacity:0.004" fill="#000000" d="M 1348.5,843.5 C 1347.83,844.167 1347.83,844.167 1348.5,843.5 Z"/></g>
<g><path style="opacity:0.004" fill="#fe0000" d="M 1342.5,847.5 C 1343,845.915 1344,845.415 1345.5,846C 1344.76,847.039 1343.76,847.539 1342.5,847.5 Z"/></g>
<g><path style="opacity:0.004" fill="#a41a0a" d="M 1340.5,848.5 C 1340.84,847.662 1341.51,847.328 1342.5,847.5C 1342.16,848.338 1341.49,848.672 1340.5,848.5 Z"/></g>
<g><path style="opacity:0.004" fill="#000000" d="M 1340.5,848.5 C 1339.83,849.167 1339.83,849.167 1340.5,848.5 Z"/></g>
<g><path style="opacity:0.004" fill="#000000" d="M 1339.5,849.5 C 1338.83,850.167 1338.83,850.167 1339.5,849.5 Z"/></g>
<g><path style="opacity:0.004" fill="#000000" d="M 1306.5,865.5 C 1307.83,866.167 1307.83,866.167 1306.5,865.5 Z"/></g>
<g><path style="opacity:0.031" fill="#ca4a1d" d="M 1306.5,866.5 C 1301.91,872.596 1296.74,878.262 1291,883.5C 1289.64,881.141 1288.64,878.807 1288,876.5C 1294.27,873.283 1300.44,869.95 1306.5,866.5 Z"/></g>
<g><path style="opacity:0.004" fill="#9b1408" d="M 1225.5,1249.5 C 1226.29,1249.78 1226.96,1250.28 1227.5,1251C 1226.18,1251.53 1225.52,1251.03 1225.5,1249.5 Z"/></g>
<g><path style="opacity:0.004" fill="#d01406" d="M 1003.5,1664.5 C 1006.2,1667.27 1005.87,1667.77 1002.5,1666C 1003.06,1665.62 1003.39,1665.12 1003.5,1664.5 Z"/></g>
</svg>
